<?xml version="1.0" encoding="utf-8"?>
<!-- Generator: Adobe Illustrator 23.0.0, SVG Export Plug-In . SVG Version: 6.00 Build 0)  -->
<svg version="1.0" id="图层_1" xmlns="http://www.w3.org/2000/svg" xmlns:xlink="http://www.w3.org/1999/xlink" x="0px" y="0px"
	 viewBox="0 0 20 20" enable-background="new 0 0 20 20" xml:space="preserve">
<title>Arrow-1</title>
<g>
	<g>
		<path fill="#3F3F3F" d="M13.2,9.4h-0.8c-0.1,0-0.2-0.1-0.2-0.2l0-1.4c0-0.9-0.4-1.7-1.2-2.1C9.5,4.9,7.8,6.1,7.8,7.6v1.6
			c0,0.1-0.1,0.2-0.2,0.2H6.8c-0.1,0-0.2-0.1-0.2-0.2l0-1.4c0-1.6,1-3,2.5-3.4c2.2-0.7,4.4,1.1,4.4,3.3v1.6
			C13.4,9.3,13.3,9.4,13.2,9.4z"/>
		<path fill="#3F3F3F" d="M9.1,15.7c-1.5-0.4-2.5-1.9-2.5-3.4l0-1.4c0-0.1,0.1-0.2,0.2-0.2h0.8c0.1,0,0.2,0.1,0.2,0.2l0,1.4
			c0,0.9,0.4,1.7,1.2,2.1c1.5,0.8,3.2-0.4,3.2-1.9v-1.6c0-0.1,0.1-0.2,0.2-0.2h0.8c0.1,0,0.2,0.1,0.2,0.2v1.6
			C13.4,14.6,11.3,16.3,9.1,15.7z"/>
	</g>
	<path fill="#3F3F3F" d="M10,12.7c-0.3,0-0.6-0.3-0.6-0.6V7.8c0-0.3,0.3-0.6,0.6-0.6s0.6,0.3,0.6,0.6v4.3
		C10.6,12.4,10.3,12.7,10,12.7z"/>
</g>
</svg>
