<?xml version="1.0" encoding="utf-8"?>
<!-- Generator: Adobe Illustrator 23.0.0, SVG Export Plug-In . SVG Version: 6.00 Build 0)  -->
<svg version="1.0" id="图层_1" xmlns="http://www.w3.org/2000/svg" xmlns:xlink="http://www.w3.org/1999/xlink" x="0px" y="0px"
	 viewBox="0 0 20 20" enable-background="new 0 0 20 20" xml:space="preserve">
<title>Arrow-1</title>
<g>
	<g>
		<g>
			<path fill="#B2B2B2" d="M12.7,9.1h-0.9c-0.1,0-0.2-0.1-0.2-0.2l0-2.4c0-0.8-0.6-1.5-1.4-1.6C9.2,4.8,8.4,5.5,8.4,6.4v2.5
				c0,0.1-0.1,0.2-0.2,0.2H7.3C7.2,9.1,7.1,9,7.1,8.9l0-2.4c0-1.5,1.1-2.9,2.7-3c1.7-0.1,3.1,1.2,3.1,2.9v2.5
				C12.9,9,12.8,9.1,12.7,9.1z"/>
			<path fill="#B2B2B2" d="M9.8,16.4c-1.5-0.1-2.7-1.4-2.7-3l0-2.4c0-0.1,0.1-0.2,0.2-0.2h0.9c0.1,0,0.2,0.1,0.2,0.2l0,2.4
				c0,0.8,0.6,1.5,1.4,1.6c0.9,0.1,1.7-0.6,1.7-1.6v-2.5c0-0.1,0.1-0.2,0.2-0.2h0.9c0.1,0,0.2,0.1,0.2,0.2v2.5
				C12.9,15.2,11.5,16.6,9.8,16.4z"/>
		</g>
		<g>
			<g>
				<path fill="#B2B2B2" d="M4.8,8.9l-1-1c-0.3-0.3-0.3-0.7,0-0.9l0,0c0.3-0.3,0.7-0.3,0.9,0l1,1C6,8.2,6,8.6,5.7,8.9l0,0
					C5.5,9.1,5.1,9.1,4.8,8.9z"/>
				<path fill="#B2B2B2" d="M3.8,13.1L3.8,13.1c-0.3-0.3-0.3-0.7,0-0.9l1-1c0.3-0.3,0.7-0.3,0.9,0l0,0C6,11.4,6,11.8,5.7,12l-1,1
					C4.5,13.3,4.1,13.3,3.8,13.1z"/>
			</g>
			<g>
				<path fill="#B2B2B2" d="M14.3,8.9L14.3,8.9C14,8.6,14,8.2,14.3,8l1-1c0.3-0.3,0.7-0.3,0.9,0l0,0c0.3,0.3,0.3,0.7,0,0.9l-1,1
					C14.9,9.1,14.5,9.1,14.3,8.9z"/>
				<path fill="#B2B2B2" d="M15.3,13.1l-1-1c-0.3-0.3-0.3-0.7,0-0.9l0,0c0.3-0.3,0.7-0.3,0.9,0l1,1c0.3,0.3,0.3,0.7,0,0.9v0
					C15.9,13.3,15.5,13.3,15.3,13.1z"/>
			</g>
		</g>
	</g>
</g>
</svg>
