<?xml version="1.0" encoding="UTF-8"?>
<svg width="20px" height="20px" viewBox="0 0 20 20" version="1.1" xmlns="http://www.w3.org/2000/svg" xmlns:xlink="http://www.w3.org/1999/xlink">
    <!-- Generator: Sketch 60.1 (88133) - https://sketch.com -->
    <title>串联断开@3x</title>
    <desc>Created with Sketch.</desc>
    <g id="串联断开" stroke="none" stroke-width="1" fill="none" fill-rule="evenodd">
        <g id="链接" transform="translate(3.000000, 3.000000)">
            <g id="分组">
                <rect id="矩形" x="0" y="0" width="14" height="14"></rect>
                <path d="M10.3790479,0.501460269 C11.596582,0.572637027 12.6941748,1.17363312 13.2622119,2.51005402 C13.8392871,3.86793488 13.5824268,5.13093781 12.5866846,6.20978058 C11.8817285,6.97231964 11.1247412,7.68742707 10.3847168,8.41719757 C10.0633594,8.73464386 9.54851074,8.74480988 9.27014648,8.45222199 C8.98839844,8.15623566 9.01895508,7.74955109 9.35727539,7.40951691 C10.0837207,6.68085968 10.8203613,5.96125519 11.5388672,5.22583039 C12.6217529,4.11760285 12.1408594,2.35527863 10.6449609,1.9576175 C10.0226221,1.79269074 9.4251709,1.90678742 8.9521875,2.34736847 C8.19065918,3.05569367 7.47439453,3.81032257 6.71626465,4.5197757 C6.55560059,4.67002472 6.2896875,4.79992707 6.08147461,4.78637726 C5.52363281,4.75248078 5.24188477,4.07692414 5.62773926,3.67476593 C6.45714844,2.81055207 7.30353516,1.959888 8.19405762,1.16006867 C8.73606445,0.673169254 9.44214844,0.505971988 10.3790479,0.501460269 Z M1.42407715,7.85235382 C2.14486816,7.11805695 2.87696777,6.39505402 3.60793945,5.67092316 C3.95532715,5.32636261 4.38191895,5.30039093 4.67610352,5.59636261 C4.98162598,5.90477082 4.95221191,6.29337921 4.59011719,6.65714386 C3.89421387,7.35528839 3.1870166,8.04440949 2.49791016,8.75046418 C1.64585449,9.62146027 1.60964355,10.7974515 2.39493164,11.5871194 C3.1462793,12.3428763 4.38870117,12.3462601 5.17398926,11.5814652 C5.8879834,10.8855765 6.58274414,10.1693558 7.29449707,9.47232453 C7.72220215,9.05434601 8.37171387,9.20346711 8.4848584,9.766055 C8.5255957,9.96826203 8.44413574,10.2732864 8.30380371,10.4212796 C7.52985352,11.2369046 6.75700195,12.0593265 5.91401367,12.799263 C4.8820459,13.7052689 3.67243652,13.8555325 2.41190918,13.3064944 C1.19324707,12.7755472 0.444169922,11.5792093 0.440771484,10.254097 C0.446425781,9.32209015 0.771181641,8.51661652 1.42407715,7.85235382 Z" id="形状" fill="#888888" fill-rule="nonzero"></path>
            </g>
        </g>
        <rect id="矩形" fill="#888888" x="14" y="11.7473658" width="3" height="1.5" rx="0.75"></rect>
        <rect id="矩形" fill="#888888" transform="translate(12.500000, 15.500000) rotate(90.000000) translate(-12.500000, -15.500000) " x="11" y="14.75" width="3" height="1.5" rx="0.75"></rect>
        <path d="M14.3044264,14.3409903 L15.8044264,14.3409903 C16.21864,14.3409903 16.5544264,14.6767767 16.5544264,15.0909903 C16.5544264,15.5052038 16.21864,15.8409903 15.8044264,15.8409903 L14.3044264,15.8409903 C13.8902128,15.8409903 13.5544264,15.5052038 13.5544264,15.0909903 C13.5544264,14.6767767 13.8902128,14.3409903 14.3044264,14.3409903 Z" id="矩形" fill="#888888" transform="translate(15.054426, 15.090990) rotate(-315.000000) translate(-15.054426, -15.090990) "></path>
        <rect id="矩形" fill="#888888" transform="translate(4.500000, 7.500000) scale(-1, -1) translate(-4.500000, -7.500000) " x="3" y="6.75" width="3" height="1.5" rx="0.75"></rect>
        <rect id="矩形" fill="#888888" transform="translate(7.500000, 4.500000) scale(-1, -1) rotate(90.000000) translate(-7.500000, -4.500000) " x="6" y="3.75" width="3" height="1.5" rx="0.75"></rect>
        <path d="M4.21966991,4.262333 L5.71966991,4.262333 C6.13388348,4.262333 6.46966991,4.59811943 6.46966991,5.012333 C6.46966991,5.42654656 6.13388348,5.762333 5.71966991,5.762333 L4.21966991,5.762333 C3.80545635,5.762333 3.46966991,5.42654656 3.46966991,5.012333 C3.46966991,4.59811943 3.80545635,4.262333 4.21966991,4.262333 Z" id="矩形" fill="#888888" transform="translate(4.969670, 5.012333) scale(-1, -1) rotate(-315.000000) translate(-4.969670, -5.012333) "></path>
    </g>
</svg>