<?xml version="1.0" encoding="utf-8"?>
<!-- Generator: Adobe Illustrator 23.0.0, SVG Export Plug-In . SVG Version: 6.00 Build 0)  -->
<svg version="1.1" id="图层_1" xmlns="http://www.w3.org/2000/svg" xmlns:xlink="http://www.w3.org/1999/xlink" x="0px" y="0px"
	 viewBox="0 0 98.3 20" style="enable-background:new 0 0 98.3 20;" xml:space="preserve">
<style type="text/css">
	.st0{fill:#D90E0E;}
	.st1{fill:#FFFFFF;}
</style>
<title>Emergency Stop-dark</title>
<g>
	<g id="图层_1-2">
		<path class="st0" d="M10.6,2.4h77.2c4.3,0,7.8,3.5,7.8,7.8v0c0,4.3-3.5,7.8-7.8,7.8H10.6c-4.3,0-7.8-3.5-7.8-7.8v0
			C2.8,5.9,6.3,2.4,10.6,2.4z"/>
		<path class="st1" d="M16.1,13.2c-1.4,0.1-2.8,0.1-4.2,0c-0.6,0-1-0.4-1-1c-0.1-1.4-0.1-2.8,0-4.2c0-0.6,0.4-1,1-1
			C13.3,7,14.7,7,16.1,7c0.6,0,1,0.4,1,1c0.1,1.4,0.1,2.8,0,4.2C17.1,12.8,16.6,13.2,16.1,13.2z"/>
		<path class="st1" d="M27.5,10.3H25v1.9h3V13h-4.1V6.8h4v0.9H25v1.7h2.6L27.5,10.3z"/>
		<path class="st1" d="M29.7,8.4v0.5c0.3-0.4,0.8-0.6,1.3-0.6c0.5-0.1,1.1,0.2,1.3,0.7c0.3-0.5,0.9-0.7,1.4-0.7
			c0.4,0,0.8,0.1,1.1,0.4c0.3,0.4,0.4,0.8,0.4,1.3V13h-1V10c0-0.2-0.1-0.5-0.2-0.6c-0.2-0.2-0.4-0.2-0.6-0.2c-0.2,0-0.4,0.1-0.6,0.2
			c-0.2,0.1-0.3,0.3-0.3,0.5V13h-1v-3c0-0.4-0.2-0.8-0.6-0.8c-0.1,0-0.1,0-0.2,0c-0.4,0-0.7,0.2-0.9,0.5V13h-1V8.4H29.7z"/>
		<path class="st1" d="M38.4,13.1c-0.6,0-1.2-0.2-1.6-0.6c-0.4-0.4-0.6-1-0.6-1.7v-0.1c0-0.4,0.1-0.9,0.3-1.2
			c0.2-0.3,0.4-0.6,0.8-0.9c0.3-0.2,0.7-0.3,1.1-0.3c0.6,0,1.1,0.2,1.5,0.6c0.4,0.5,0.6,1.1,0.5,1.7v0.4h-3c0,0.3,0.1,0.7,0.4,0.9
			c0.2,0.2,0.5,0.3,0.8,0.3c0.5,0,0.9-0.2,1.2-0.6l0.6,0.5c-0.2,0.3-0.4,0.5-0.8,0.6C39.2,13.1,38.8,13.1,38.4,13.1z M38.3,9.1
			c-0.3,0-0.5,0.1-0.7,0.3c-0.2,0.2-0.3,0.5-0.3,0.8h2v-0.1c0-0.3-0.1-0.6-0.3-0.8C38.8,9.2,38.6,9.1,38.3,9.1L38.3,9.1z"/>
		<path class="st1" d="M43.5,9.4c-0.1,0-0.3,0-0.4,0c-0.4-0.1-0.8,0.2-1,0.6v3.2h-1V8.4h1v0.5c0.2-0.4,0.6-0.6,1-0.6
			c0.1,0,0.3,0,0.4,0.1L43.5,9.4z"/>
		<path class="st1" d="M43.9,10.7c0-0.6,0.2-1.2,0.5-1.7c0.3-0.4,0.8-0.7,1.3-0.6c0.5,0,0.9,0.2,1.2,0.5V8.4h1v4.5
			c0,0.5-0.2,1.1-0.6,1.4c-0.4,0.4-1,0.6-1.5,0.5c-0.3,0-0.7-0.1-1-0.2c-0.3-0.1-0.5-0.3-0.7-0.6l0.5-0.6c0.3,0.4,0.7,0.6,1.2,0.6
			c0.3,0,0.6-0.1,0.8-0.3c0.2-0.2,0.3-0.5,0.3-0.8v-0.3c-0.3,0.3-0.7,0.5-1.2,0.5c-0.5,0-1-0.2-1.3-0.6C44.1,12,43.9,11.4,43.9,10.7
			z M44.9,10.8c0,0.4,0.1,0.8,0.3,1.1c0.2,0.3,0.5,0.4,0.8,0.4c0.4,0,0.8-0.2,0.9-0.5v-2c-0.2-0.4-0.5-0.6-0.9-0.6
			c-0.3,0-0.6,0.1-0.8,0.4C45,10,44.9,10.4,44.9,10.8L44.9,10.8z"/>
		<path class="st1" d="M51.1,13.1c-0.6,0-1.2-0.2-1.6-0.6c-0.4-0.4-0.6-1-0.6-1.7v-0.1c0-0.4,0.1-0.9,0.3-1.2
			c0.2-0.3,0.4-0.6,0.8-0.9c0.3-0.2,0.7-0.3,1.1-0.3c0.6,0,1.1,0.2,1.5,0.6C52.8,9.4,53,10,53,10.6v0.4h-3c0,0.3,0.1,0.7,0.4,0.9
			c0.2,0.2,0.5,0.3,0.8,0.3c0.5,0,0.9-0.2,1.2-0.6l0.6,0.5c-0.2,0.3-0.4,0.5-0.7,0.6C51.9,13.1,51.5,13.2,51.1,13.1z M51,9.1
			c-0.3,0-0.5,0.1-0.7,0.3C50.1,9.7,50,10,50,10.3h2v-0.1c0-0.3-0.1-0.6-0.3-0.8C51.5,9.2,51.3,9.1,51,9.1L51,9.1z"/>
		<path class="st1" d="M54.8,8.4v0.5c0.3-0.4,0.8-0.6,1.3-0.6c1,0,1.5,0.6,1.5,1.7V13h-1v-3c0-0.2-0.1-0.5-0.2-0.7
			c-0.2-0.2-0.4-0.2-0.6-0.2c-0.4,0-0.8,0.2-0.9,0.6V13h-1V8.4H54.8z"/>
		<path class="st1" d="M60.6,12.3c0.2,0,0.5-0.1,0.7-0.2c0.2-0.1,0.3-0.3,0.3-0.6h1c0,0.3-0.1,0.6-0.3,0.8c-0.2,0.3-0.4,0.5-0.7,0.6
			c-0.3,0.1-0.6,0.2-0.9,0.2c-0.6,0-1.1-0.2-1.5-0.6c-0.4-0.5-0.6-1.1-0.6-1.7v-0.1c0-0.6,0.1-1.2,0.5-1.7c0.4-0.4,1-0.7,1.5-0.6
			c0.5,0,1,0.2,1.3,0.5c0.3,0.3,0.5,0.8,0.5,1.3h-1c0-0.2-0.1-0.5-0.3-0.7c-0.2-0.2-0.4-0.3-0.7-0.3c-0.3,0-0.6,0.1-0.8,0.4
			c-0.2,0.3-0.3,0.7-0.3,1.1v0.2c0,0.4,0.1,0.8,0.3,1.1C59.9,12.2,60.3,12.4,60.6,12.3z"/>
		<path class="st1" d="M64.9,11.6l0.9-3.2h1.1l-1.8,5.3c-0.1,0.7-0.7,1.2-1.4,1.2c-0.2,0-0.3,0-0.5-0.1V14h0.2c0.2,0,0.4,0,0.6-0.1
			c0.2-0.1,0.3-0.3,0.3-0.5l0.2-0.4l-1.6-4.6h1.1L64.9,11.6z"/>
		<path class="st1" d="M73.1,11.4c0-0.2-0.1-0.5-0.3-0.6c-0.3-0.2-0.6-0.4-1-0.4c-0.4-0.1-0.8-0.3-1.2-0.5c-0.5-0.3-0.9-0.8-0.9-1.4
			c0-0.5,0.2-1,0.6-1.3c0.5-0.3,1-0.5,1.6-0.5c0.4,0,0.8,0.1,1.1,0.3c0.3,0.1,0.6,0.4,0.8,0.7c0.2,0.3,0.3,0.6,0.3,1h-1.1
			c0-0.3-0.1-0.6-0.3-0.8c-0.2-0.2-0.6-0.3-0.9-0.3c-0.3,0-0.6,0.1-0.8,0.2c-0.2,0.2-0.3,0.4-0.3,0.6c0,0.2,0.1,0.4,0.3,0.6
			c0.3,0.2,0.6,0.4,1,0.4c0.4,0.1,0.8,0.3,1.2,0.5c0.3,0.2,0.5,0.4,0.7,0.6c0.1,0.3,0.2,0.5,0.2,0.8c0,0.5-0.2,0.9-0.6,1.2
			c-0.5,0.3-1,0.5-1.6,0.5c-0.4,0-0.9-0.1-1.3-0.3c-0.4-0.1-0.7-0.4-0.9-0.7c-0.2-0.3-0.3-0.6-0.3-1h1.1c0,0.3,0.2,0.6,0.4,0.8
			c0.3,0.2,0.6,0.3,1,0.3c0.3,0,0.6-0.1,0.8-0.2C73,11.9,73.1,11.7,73.1,11.4z"/>
		<path class="st1" d="M76.3,7.3v1.1h0.8v0.8h-0.8v2.6c0,0.1,0,0.3,0.1,0.4c0.1,0.1,0.2,0.1,0.4,0.1c0.1,0,0.2,0,0.4,0V13
			c-0.2,0.1-0.5,0.1-0.7,0.1c-0.8,0-1.2-0.4-1.2-1.3V9.2h-0.8V8.4h0.8V7.3H76.3z"/>
		<path class="st1" d="M77.6,10.7c0-0.4,0.1-0.8,0.3-1.2c0.2-0.3,0.4-0.6,0.8-0.8c0.3-0.2,0.7-0.3,1.1-0.3c0.6,0,1.1,0.2,1.5,0.6
			c0.4,0.4,0.6,1,0.6,1.6v0.3c0,0.4-0.1,0.8-0.3,1.2c-0.2,0.3-0.4,0.6-0.8,0.8c-0.3,0.2-0.7,0.3-1.1,0.3c-0.6,0-1.2-0.2-1.6-0.7
			C77.8,12,77.6,11.4,77.6,10.7L77.6,10.7z M78.6,10.8c0,0.4,0.1,0.8,0.4,1.1c0.2,0.3,0.5,0.4,0.8,0.4c0.3,0,0.6-0.1,0.8-0.4
			c0.2-0.4,0.3-0.8,0.3-1.2c0-0.4-0.1-0.8-0.3-1.1c-0.3-0.5-0.9-0.6-1.4-0.2c-0.1,0.1-0.2,0.1-0.2,0.2C78.8,9.9,78.6,10.4,78.6,10.8
			L78.6,10.8z"/>
		<path class="st1" d="M86.9,10.8c0,0.6-0.1,1.2-0.5,1.7c-0.3,0.4-0.8,0.7-1.3,0.6c-0.5,0-0.9-0.2-1.2-0.5v2.2h-1V8.4h1v0.5
			c0.3-0.4,0.8-0.6,1.2-0.6c0.5,0,1,0.2,1.3,0.7C86.7,9.5,86.9,10.1,86.9,10.8L86.9,10.8z M85.9,10.7c0-0.4-0.1-0.8-0.3-1.1
			c-0.2-0.3-0.5-0.4-0.8-0.4c-0.4,0-0.7,0.2-0.9,0.5v2.1c0.2,0.3,0.5,0.6,0.9,0.5c0.3,0,0.6-0.1,0.8-0.4
			C85.8,11.5,85.9,11.1,85.9,10.7L85.9,10.7z"/>
	</g>
</g>
</svg>
