<?xml version="1.0" encoding="UTF-8"?>
<svg width="20px" height="20px" viewBox="0 0 20 20" version="1.1" xmlns="http://www.w3.org/2000/svg" xmlns:xlink="http://www.w3.org/1999/xlink">
    <!-- Generator: Sketch 60.1 (88133) - https://sketch.com -->
    <title>使用说明@3x</title>
    <desc>Created with Sketch.</desc>
    <g id="使用说明" stroke="none" stroke-width="1" fill="none" fill-rule="evenodd">
        <g id="书" transform="translate(1.000000, 1.000000)" fill="#000000" fill-rule="nonzero">
            <g id="分组">
                <rect id="矩形" opacity="0" x="0" y="0" width="18" height="18"></rect>
                <path d="M14.4375,1.5 L11.0625,1.5 C10.14,1.5 9.33,1.95 8.8125,2.6475 C8.295,1.95 7.485,1.5 6.5625,1.5 L3.1875,1.5 C2.25375,1.5 1.5,2.25375 1.5,3.1875 L1.5,12.1875 C1.5,13.12125 2.25375,13.875 3.1875,13.875 L6.5625,13.875 C7.49625,13.875 8.25,14.62875 8.25,15.5625 C8.25,15.8775 8.4975,16.125 8.8125,16.125 C9.1275,16.125 9.375,15.8775 9.375,15.5625 C9.375,14.62875 10.12875,13.875 11.0625,13.875 L14.4375,13.875 C15.37125,13.875 16.125,13.12125 16.125,12.1875 L16.125,3.1875 C16.125,2.25375 15.37125,1.5 14.4375,1.5 Z M8.25,13.3125 C7.7775,12.96375 7.1925,12.75 6.5625,12.75 L3.1875,12.75 C2.8725,12.75 2.625,12.5025 2.625,12.1875 L2.625,3.1875 C2.625,2.8725 2.8725,2.625 3.1875,2.625 L6.5625,2.625 C7.49625,2.625 8.25,3.37875 8.25,4.3125 L8.25,13.3125 Z M15,12.1875 C15,12.5025 14.7525,12.75 14.4375,12.75 L11.0625,12.75 C10.4325,12.75 9.8475,12.96375 9.375,13.3125 L9.375,4.3125 C9.375,3.37875 10.12875,2.625 11.0625,2.625 L14.4375,2.625 C14.7525,2.625 15,2.8725 15,3.1875 L15,12.1875 Z" id="形状"></path>
            </g>
        </g>
    </g>
</svg>