<?xml version="1.0" encoding="UTF-8"?>
<svg width="20px" height="20px" viewBox="0 0 20 20" version="1.1" xmlns="http://www.w3.org/2000/svg" xmlns:xlink="http://www.w3.org/1999/xlink">
    <!-- Generator: Sketch 60.1 (88133) - https://sketch.com -->
    <title>官网@3x</title>
    <desc>Created with Sketch.</desc>
    <g id="官网" stroke="none" stroke-width="1" fill="none" fill-rule="evenodd">
        <g transform="translate(2.000000, 2.000000)" fill="#0E0E0E" fill-rule="nonzero" id="形状">
            <path d="M8.85636155,0.375207526 C3.94774086,-0.12824075 -0.148810868,3.96831097 0.354637408,8.87693166 C0.704637408,12.2872765 3.8132581,15.3958972 7.22360293,15.7458972 C12.1322236,16.2493455 16.2287753,12.1527937 15.7253271,7.24417304 C15.3753271,3.83382822 12.2667064,0.725207526 8.85636155,0.375207526 Z M13.5598098,4.38037994 L14.2960167,5.85279373 C13.3098098,5.66658684 13.037396,5.67520753 12.087396,5.85279373 C11.5253271,6.00106959 11.2322236,6.40279373 11.0942926,6.6786558 C11.0236029,6.82003511 10.9891202,6.97693166 10.9960167,7.13555235 C11.0149822,7.60451787 10.9960167,8.85796615 10.2477409,9.1648627 C9.91670637,9.30106959 9.51153396,8.83555235 9.51153396,8.4286558 C9.5632581,6.10969028 10.611534,5.65624201 10.8977409,5.50796615 C11.1977409,5.35279373 12.087396,4.74934546 12.087396,4.74934546 C12.7322236,4.42175925 13.5598098,4.38037994 13.5598098,4.38037994 Z M5.18912017,3.00106959 C5.31153396,3.12348339 5.28049948,3.33037994 5.1270512,3.41141442 C4.70118913,3.63900063 3.94774086,4.22520753 3.32187879,5.69417304 C3.28049948,5.78900063 3.18739603,5.85107303 3.08394775,5.85107303 L2.15291327,5.85107303 C2.15291327,5.85279373 2.21498224,3.90969028 4.72877534,2.54072477 L5.18912017,3.00106959 Z M4.65291327,13.7286558 L3.00636155,12.3493455 C3.19256844,11.9769317 3.58394775,11.7269317 4.03222361,11.7407248 C4.60636155,11.7596903 5.07532706,12.2252075 5.09774086,12.7993455 C5.10980982,13.1803799 4.93222361,13.5200351 4.65291327,13.7286558 Z M8.03912017,14.6838282 C7.20980982,14.6838282 6.42015465,14.5252075 5.68912017,14.2476213 C6.00463741,13.8648627 6.19946499,13.3786558 6.19946499,12.844173 C6.19946499,11.6252075 5.21153396,10.6355524 3.9908443,10.6355524 C3.32532706,10.6355524 2.73049948,10.9338282 2.32532706,11.3993455 C1.74946499,10.418311 1.41498224,9.2786558 1.41498224,8.05969028 C1.41498224,7.78382822 1.43739603,7.51313856 1.47015465,7.24417304 L3.95636155,6.99589718 C4.18222361,6.97348339 4.36670637,6.80796615 4.41153396,6.58555235 C4.72532706,5.05106959 6.10463741,4.0786558 6.96498224,3.60969028 C7.28567189,3.43555235 7.32877534,2.99244891 7.04946499,2.75796615 L5.89601672,1.79762132 C6.56843051,1.56658684 7.28739603,1.43727649 8.03912017,1.43727649 C9.84601672,1.43727649 11.4822236,2.16313856 12.6770512,3.33555235 L11.0736029,3.97693166 C11.0736029,3.97693166 7.30291327,5.91313856 8.40808568,8.79589718 C8.77877534,9.66141442 9.44429258,10.1924489 10.049465,10.1924489 C11.3856719,10.1924489 12.1511891,9.00279373 12.087396,7.32348339 C12.337396,7.06658684 12.4149822,7.07693166 12.8236029,6.95624201 C13.6804995,6.81313856 13.961534,7.07175925 14.6184305,7.30624201 C14.6460167,7.55451787 14.6649822,7.80451787 14.6649822,8.05969028 C14.6632581,11.718311 11.6977409,14.6838282 8.03912017,14.6838282 Z"></path>
        </g>
    </g>
</svg>