<svg height="512pt" viewBox="0 0 512 512" width="512pt" xmlns="http://www.w3.org/2000/svg"><path d="m496.996094 419.003906h-420c-8.285156 0-15 6.714844-15 15v62.996094c0 8.285156 6.714844 15 15 15 8.28125 0 15-6.714844 15-15v-47.996094h390v47.996094c0 8.285156 6.714844 15 15 15s15-6.714844 15-15v-62.996094c0-8.285156-6.714844-15-15-15zm0 0"/><path d="m136.386719 314.394531c-5.855469 5.855469-5.855469 15.355469 0 21.210938l74.003906 74c2.925781 2.929687 6.765625 4.394531 10.605469 4.394531 3.835937 0 7.675781-1.464844 10.605468-4.394531 5.855469-5.855469 5.855469-15.355469 0-21.210938l-74-74c-5.859374-5.859375-15.355468-5.859375-21.214843 0zm0 0"/><path d="m387.890625 349.894531-40.5 40.5c-5.859375 5.855469-5.859375 15.355469 0 21.210938 2.929687 2.929687 6.765625 4.394531 10.605469 4.394531 3.835937 0 7.675781-1.464844 10.605468-4.394531l40.5-40.5c5.859376-5.855469 5.859376-15.355469 0-21.210938-5.855468-5.859375-15.355468-5.859375-21.210937 0zm0 0"/><path d="m93.96875 271.875c-5.855469 5.859375-5.855469 15.355469 0 21.214844l4.375 4.375c2.929688 2.929687 6.769531 4.394531 10.605469 4.394531 3.839843 0 7.679687-1.464844 10.605469-4.394531 5.859374-5.855469 5.859374-15.355469.003906-21.210938l-4.375-4.375c-5.855469-5.859375-15.355469-5.859375-21.214844-.003906zm0 0"/><path d="m176.996094 182c0 2.519531.628906 4.890625 1.726562 6.976562.011719.023438.015625.042969.027344.066407.011719.015625.019531.03125.027344.050781.019531.03125.035156.0625.050781.09375 5.296875 9.960938 29.277344 54.90625 31.933594 59.878906 2.605469 4.882813 7.691406 7.933594 13.230469 7.933594h18v91c0 8.285156 6.714843 15 15 15h15v27c0 8.285156 6.71875 15 15 15 8.285156 0 15-6.714844 15-15v-27h15c8.285156 0 15-6.714844 15-15v-91h17.988281c5.542969 0 10.636719-3.058594 13.242187-7.953125 0 0 27.714844-51.972656 31.941406-59.863281.015626-.027344.03125-.054688.042969-.085938.003907-.003906.007813-.011718.011719-.015625.128906-.242187.230469-.457031.3125-.65625.929688-1.949219 1.464844-4.125 1.464844-6.425781v-122h41c8.28125 0 15-6.71875 15-15v-30c0-8.285156-6.71875-15-15-15-8.285156 0-15 6.714844-15 15v15h-407.996094c-8.285156 0-15 6.714844-15 15 0 8.28125 6.714844 15 15 15h161.996094zm124.996094 151h-30v-76h30zm38.980468-106h-107.984375c-1.238281-2.324219-14.585937-27.355469-16-30h139.980469c-.304688.574219-12.082031 22.644531-15.996094 30zm-133.976562-167h160v107h-160zm0 0"/></svg>