<?xml version="1.0" encoding="iso-8859-1"?>
<!-- Generator: Adobe Illustrator 19.0.0, SVG Export Plug-In . SVG Version: 6.00 Build 0)  -->
<svg version="1.1" id="Capa_1" xmlns="http://www.w3.org/2000/svg" xmlns:xlink="http://www.w3.org/1999/xlink" x="0px" y="0px"
	 viewBox="0 0 386.615 386.615" style="enable-background:new 0 0 386.615 386.615;" xml:space="preserve">
<g>
	<g>
		<g>
			<path d="M36.573,309.292h2.09l100.833-21.943c1.964-0.327,3.784-1.237,5.224-2.612L315.56,113.896
				c12.48-12.453,19.443-29.391,19.331-47.02c0.023-17.766-6.917-34.833-19.331-47.543C303.108,6.853,286.17-0.11,268.54,0.003
				c-17.742-0.157-34.76,7.028-47.02,19.853L51.201,190.696c-1.502,1.209-2.597,2.85-3.135,4.702L26.124,296.231
				c-0.599,3.62,0.565,7.308,3.135,9.927C31.188,308.126,33.817,309.253,36.573,309.292z M268.54,20.901
				c25.103-0.002,45.454,20.347,45.456,45.45c0,0.175-0.001,0.35-0.003,0.525c0.171,11.959-4.547,23.47-13.061,31.869
				l-64.261-64.784C245.137,25.548,256.604,20.848,268.54,20.901z M222.042,49.113l64.261,64.261L137.405,261.749l-64.261-63.739
				L222.042,49.113z M64.785,218.909l51.722,51.722L50.156,285.26L64.785,218.909z"/>
			<path d="M368.328,365.717H18.287c-5.771,0-10.449,4.678-10.449,10.449s4.678,10.449,10.449,10.449h350.041
				c5.771,0,10.449-4.678,10.449-10.449S374.099,365.717,368.328,365.717z"/>
		</g>
	</g>
</g>
<g>
</g>
<g>
</g>
<g>
</g>
<g>
</g>
<g>
</g>
<g>
</g>
<g>
</g>
<g>
</g>
<g>
</g>
<g>
</g>
<g>
</g>
<g>
</g>
<g>
</g>
<g>
</g>
<g>
</g>
</svg>
