<?xml version="1.0" standalone="no"?><!DOCTYPE svg PUBLIC "-//W3C//DTD SVG 1.1//EN" "http://www.w3.org/Graphics/SVG/1.1/DTD/svg11.dtd"><svg t="1603856332069" class="icon" viewBox="0 0 1024 1024" version="1.1" xmlns="http://www.w3.org/2000/svg" p-id="2859" xmlns:xlink="http://www.w3.org/1999/xlink" width="200" height="200"><defs><style type="text/css"></style></defs><path d="M767.9 960H191.7c-53 0-96-43-96-96V224c0-53 43-96 96-96h448c17.7 0 32 14.3 32 32s-14.3 32-32 32h-448c-17.5 0-32 14.5-32 32v640c0 17.7 14.5 32 32 32h576c17.7 0 32-14.3 32-32V351.8c0-17.7 14.3-32 32-32s32 14.3 32 32v512c0.2 53-42.9 96.2-95.8 96.2z" fill="#2c2c2c" p-id="2860"></path><path d="M579.9 447.8c-8.3 0-16.3-3.1-22.7-9.5-12.6-12.6-12.6-32.7 0-45.2L875.3 75.2c12.6-12.6 32.7-12.6 45.2 0 12.6 12.6 12.6 32.7 0 45.2L602.4 438.5c-6.2 6.2-14.4 9.3-22.5 9.3zM447.7 447.8h-192c-17.7 0-32-14.3-32-32s14.3-32 32-32h192c17.7 0 32 14.3 32 32 0.1 17.8-14.2 32-32 32z m192.2 192H255.7c-17.7 0-32-14.3-32-32s14.3-32 32-32h384c17.7 0 32 14.3 32 32 0.1 17.8-14.2 32-31.8 32z" fill="#2c2c2c" p-id="2861"></path></svg>