<?xml version="1.0" encoding="UTF-8"?>
<svg width="20px" height="20px" viewBox="0 0 20 20" version="1.1" xmlns="http://www.w3.org/2000/svg" xmlns:xlink="http://www.w3.org/1999/xlink">
    <!-- Generator: Sketch 60.1 (88133) - https://sketch.com -->
    <title>论坛@3x</title>
    <desc>Created with Sketch.</desc>
    <g id="论坛" stroke="none" stroke-width="1" fill="none" fill-rule="evenodd">
        <g id="discord" transform="translate(1.000000, 4.000000)" fill="#000000" fill-rule="nonzero">
            <path d="M7.13720868,0.0186830357 L6.66651671,0.0753348214 C6.66651671,0.0753348214 4.554731,0.306160714 3.01247654,1.54466518 L2.99439618,1.54466518 L2.97511046,1.56274554 C2.62917296,1.88095982 2.47850332,2.27209821 2.24044529,2.84404018 C1.95982708,3.53215558 1.72093421,4.23655748 1.52506582,4.95341518 C1.07787832,6.57040179 0.715065822,8.52910714 0.715065822,10.3208705 L0.715065822,10.4715402 L0.790400643,10.6222098 C1.348481,11.6015625 2.33928457,12.2253348 3.25776671,12.65625 C4.17564618,13.0871652 4.96937386,13.3155804 5.51781136,13.3342634 L5.87580243,13.3529464 L6.06383814,13.0329241 L6.7231685,11.864933 C7.42227564,12.0228348 8.22745421,12.1289062 9.15256582,12.1289062 C10.0776774,12.1289062 10.882856,12.0228348 11.5819631,11.864933 L12.2412935,13.0329241 L12.4299319,13.3529464 L12.7873203,13.3342634 C13.3357578,13.3155804 14.1294855,13.0871652 15.0473649,12.65625 C15.9658471,12.2253348 16.9566506,11.6015625 17.514731,10.6222098 L17.5900658,10.4715402 L17.5900658,10.3208705 C17.5900658,8.52910714 17.2272533,6.57040179 16.7800658,4.95341518 C16.5841974,4.23655748 16.3453046,3.53215558 16.0646864,2.84404018 C15.8266283,2.27149554 15.6759587,1.88095982 15.3300212,1.56334821 L15.3113381,1.5440625 L15.2920524,1.5440625 C13.7510033,0.306160714 11.6386149,0.0753348214 11.6386149,0.0753348214 L11.167923,0.0186830357 L10.9979676,0.452008929 C10.9979676,0.452008929 10.8237935,0.891964286 10.715914,1.39399554 C10.1977913,1.32250909 9.6755818,1.28466199 9.15256582,1.28069196 C8.83013279,1.28069196 8.27265511,1.30178571 7.58921761,1.39399554 C7.48073546,0.891964286 7.30656136,0.452008929 7.30656136,0.452008929 L7.13720868,0.0186830357 Z M6.38386046,1.62 C5.60459707,1.81285714 4.77350332,2.10696429 4.01111493,2.58006696 L4.65115957,3.59738839 C6.21450779,2.62707589 8.46008814,2.48604911 9.15256582,2.48604911 C9.84444082,2.48604911 12.0906239,2.62707589 13.6539721,3.59738839 L14.2940167,2.58006696 C13.5316283,2.10696429 12.7005346,1.81285714 11.9212712,1.61939732 C11.9447756,1.55129464 11.9706908,1.47837054 11.996606,1.39339286 C12.5589051,1.50669643 13.6328783,1.76584821 14.5200212,2.46736607 C14.5151998,2.46977679 14.7460256,2.818125 14.9533471,3.31473214 C15.1654899,3.82580357 15.4005346,4.50622768 15.6126774,5.2734375 C16.0200881,6.74457589 16.3401105,8.53633929 16.3660256,10.1135491 C15.9863381,10.6927232 15.2830123,11.2152455 14.5387042,11.5641964 C14.0719205,11.7847726 13.5780877,11.9428315 13.0699765,12.0342857 L12.7686373,11.5262277 C12.9476328,11.459933 13.1242176,11.3876116 13.277298,11.3189062 C14.2048203,10.9114955 14.7086596,10.4715402 14.7086596,10.4715402 L13.9173426,9.56752232 C13.9173426,9.56752232 13.5786373,9.87850446 12.7873203,10.2268527 C11.9972087,10.5752009 10.7888381,10.9235491 9.15256582,10.9235491 C7.5162935,10.9235491 6.30852564,10.5752009 5.51781136,10.2268527 C4.72649439,9.87850446 4.38778904,9.56752232 4.38778904,9.56752232 L3.59647207,10.4715402 C3.59647207,10.4715402 4.10031136,10.9114955 5.02783368,11.3189062 C5.18091404,11.3876116 5.35749886,11.4605357 5.53649439,11.5262277 L5.23515511,12.0348884 C4.72678075,11.9431013 4.2327401,11.7846354 3.76582475,11.5635937 C3.02211939,11.2152455 2.31819082,10.6927232 1.93970868,10.1135491 C1.96502118,8.53633929 2.2850435,6.74457589 2.69305689,5.2734375 C2.8733487,4.60797535 3.09331808,3.95390354 3.35178457,3.31473214 C3.559106,2.818125 3.78993189,2.46977679 3.78511046,2.46736607 C4.67225332,1.76584821 5.74622654,1.50669643 6.30852564,1.39399554 C6.33444082,1.47837054 6.360356,1.55129464 6.38386046,1.62 Z M7.04319082,5.49944196 C6.57732029,5.49944196 6.16508814,5.76522321 5.9131685,6.10212054 C5.66124886,6.43901786 5.53649439,6.85305804 5.53649439,7.30747768 C5.53649439,7.76189732 5.66124886,8.1759375 5.9131685,8.51283482 C6.16508814,8.84973214 6.57732029,9.11551339 7.04319082,9.11551339 C7.50906136,9.11551339 7.9212935,8.84973214 8.17321314,8.51283482 C8.42513279,8.1759375 8.54988725,7.76189732 8.54988725,7.30747768 C8.54988725,6.85305804 8.42513279,6.43901786 8.17321314,6.10212054 C7.9212935,5.76522321 7.50906136,5.49944196 7.04319082,5.49944196 Z M11.2619408,5.49944196 C10.7960703,5.49944196 10.3838381,5.76522321 10.1319185,6.10212054 C9.87999886,6.43901786 9.75524439,6.85305804 9.75524439,7.30747768 C9.75524439,7.76189732 9.87999886,8.1759375 10.1319185,8.51283482 C10.3838381,8.84973214 10.7960703,9.11551339 11.2619408,9.11551339 C11.7278114,9.11551339 12.1400435,8.84973214 12.3919631,8.51283482 C12.6438828,8.1759375 12.7686373,7.76189732 12.7686373,7.30747768 C12.7686373,6.85305804 12.6438828,6.43901786 12.3919631,6.10212054 C12.1400435,5.76522321 11.7278114,5.49944196 11.2619408,5.49944196 Z M7.19386046,6.81810268 C7.26919529,6.91875 7.34453011,7.09533482 7.34453011,7.30747768 C7.34453011,7.51962054 7.26919529,7.69620536 7.19386046,7.79745536 C7.11852564,7.89810268 7.07633814,7.91015625 7.04319082,7.91015625 C7.0100435,7.91015625 6.967856,7.89810268 6.89252118,7.79685268 C6.79285404,7.65325572 6.74020939,7.48226592 6.74185154,7.30747768 C6.74185154,7.09533482 6.81718636,6.91875 6.89252118,6.8175 C6.967856,6.71685268 7.0100435,6.70479911 7.04319082,6.70479911 C7.07633814,6.70479911 7.11852564,6.71685268 7.19386046,6.81810268 Z M11.2619408,6.70479911 C11.2950881,6.70479911 11.3372756,6.71685268 11.4126105,6.81810268 C11.4879453,6.91875 11.5632801,7.09533482 11.5632801,7.30747768 C11.5632801,7.51962054 11.4879453,7.69620536 11.4126105,7.79745536 C11.3372756,7.89810268 11.2950881,7.91015625 11.2619408,7.91015625 C11.2287935,7.91015625 11.186606,7.89810268 11.1112712,7.79685268 C11.011604,7.65325572 10.9589594,7.48226592 10.9606015,7.30747768 C10.9606015,7.09533482 11.0359364,6.91875 11.1112712,6.8175 C11.186606,6.71685268 11.2287935,6.70479911 11.2619408,6.70479911 Z" id="形状"></path>
        </g>
    </g>
</svg>