<?xml version="1.0" encoding="utf-8"?>
<!-- Generator: Adobe Illustrator 23.0.0, SVG Export Plug-In . SVG Version: 6.00 Build 0)  -->
<svg version="1.1" id="图层_1" xmlns="http://www.w3.org/2000/svg" xmlns:xlink="http://www.w3.org/1999/xlink" x="0px" y="0px"
	 viewBox="0 0 20 20" style="enable-background:new 0 0 20 20;" xml:space="preserve">
<style type="text/css">
	.st0{fill:#424242;}
</style>
<title>Arrow-1</title>
<g>
	<g>
		<g>
			<g>
				<path class="st0" d="M12.9,13.4l-0.5-0.6c1-0.7,1.5-1.9,1.4-3.1c-0.1-1.7-1.4-3-3-3.3l0.1-0.8c1,0.1,1.9,0.6,2.5,1.3
					c0.7,0.7,1.1,1.7,1.2,2.7C14.7,11.1,14.1,12.5,12.9,13.4z"/>
			</g>
			<g>
				<g>
					<polygon class="st0" points="12.4,11.4 10.5,14 13.7,14.3 					"/>
				</g>
			</g>
		</g>
		<g>
			<g>
				<path class="st0" d="M7.5,13.7c-0.3-0.2-0.6-0.4-0.9-0.7c-0.7-0.7-1.1-1.7-1.2-2.7C5.3,8.9,5.9,7.5,7.1,6.6l0.5,0.6
					c-1,0.7-1.5,1.9-1.4,3.1c0.1,1.2,0.7,2.2,1.7,2.8c0.4,0.3,0.9,0.4,1.4,0.5l-0.1,0.8C8.5,14.2,8,14,7.5,13.7z"/>
			</g>
			<g>
				<g>
					<polygon class="st0" points="6.3,5.7 9.5,6 7.6,8.6 					"/>
				</g>
			</g>
		</g>
	</g>
	<circle class="st0" cx="10" cy="10" r="1.1"/>
</g>
</svg>
