<?xml version="1.0" standalone="no"?><!DOCTYPE svg PUBLIC "-//W3C//DTD SVG 1.1//EN"
        "http://www.w3.org/Graphics/SVG/1.1/DTD/svg11.dtd">
<svg t="1602936464786" class="icon" viewBox="0 0 1024 1024" version="1.1" xmlns="http://www.w3.org/2000/svg" p-id="4678"
     xmlns:xlink="http://www.w3.org/1999/xlink" width="300" height="300">
    <defs>
        <style type="text/css"></style>
    </defs>
    <path d="M512 896c-212.064 0-384-171.936-384-384s171.936-384 384-384 384 171.936 384 384-171.936 384-384 384m0-832C264.96 64 64 264.96 64 512s200.96 448 448 448 448-200.96 448-448S759.04 64 512 64"
          fill="#181818" p-id="4679"></path>
    <path d="M665.376 313.376L512 466.752 358.624 313.376l-45.248 45.248L466.752 512 313.376 665.376l45.248 45.248L512 557.248l153.376 153.376 45.248-45.248L557.248 512l153.376-153.376z"
          fill="#181818" p-id="4680"></path>
</svg>
