<?xml version="1.0" standalone="no"?><!DOCTYPE svg PUBLIC "-//W3C//DTD SVG 1.1//EN" "http://www.w3.org/Graphics/SVG/1.1/DTD/svg11.dtd"><svg t="1589535333173" class="icon" viewBox="0 0 1024 1024" version="1.1" xmlns="http://www.w3.org/2000/svg" p-id="3129" xmlns:xlink="http://www.w3.org/1999/xlink" width="200" height="200"><defs><style type="text/css"></style></defs><path d="M896 409.6h-256V46.08c0-25.6-20.48-46.08-46.08-46.08H430.08c-25.6 0-46.08 20.48-46.08 46.08V409.6H128c-25.6 0-51.2 25.6-51.2 51.2v517.12c0 25.6 20.48 46.08 40.96 46.08h783.36c25.6 0 40.96-20.48 40.96-46.08V460.8c5.12-51.2-46.08-51.2-46.08-51.2z m0 563.2h-153.6v-102.4c0-20.48 5.12-46.08-15.36-46.08-15.36 0-35.84 25.6-35.84 46.08v102.4H537.6v-153.6c0-15.36-10.24-30.72-25.6-30.72s-25.6 15.36-25.6 30.72v153.6H332.8v-102.4c0-20.48-20.48-46.08-40.96-46.08s-10.24 25.6-10.24 46.08v102.4H128v-256h768v256z m-51.2-307.2H128V460.8h307.2l5.12-404.48h143.36L588.8 460.8h307.2v204.8h-51.2z" p-id="3130"></path></svg>