<?xml version="1.0" standalone="no"?><!DOCTYPE svg PUBLIC "-//W3C//DTD SVG 1.1//EN" "http://www.w3.org/Graphics/SVG/1.1/DTD/svg11.dtd"><svg t="1589536937922" class="icon" viewBox="0 0 1024 1024" version="1.1" xmlns="http://www.w3.org/2000/svg" p-id="10482" xmlns:xlink="http://www.w3.org/1999/xlink" width="200" height="200"><defs><style type="text/css"></style></defs><path d="M419.101229 1023.999022l406.50918 0L825.610409 922.381022l-406.510159 0c-112.270702 0-203.255568-90.983888-203.255568-203.25459 0-112.280487 90.983888-203.255568 203.255568-203.255568L736.334946 515.870864 637.27077701 614.925248c-19.819096 19.820074-19.819096 52.061942 0 71.881038 19.802462 19.801483 52.06977 19.801483 71.85461899 0l185.783844-185.853316c19.820074-19.819096 19.820074-52.060964 0-71.863426L709.124418 243.29885099c-19.783871-19.793656-52.052158-19.793656-71.85462001 1e-8-19.819096 19.820074-19.819096 52.06977 1e-8 71.889845L736.334946 414.235252l-317.233717 0c-168.346366 0-304.874546 136.518395-304.874547 304.892159 0 168.363 136.52818 304.871611 304.874547 304.871611" p-id="10483"></path></svg>