<svg version="1.1" width="100" height="100" xmlns="http://www.w3.org/2000/svg"
     xmlns:xlink="http://www.w3.org/1999/xlink" id="iconCart" viewBox="0 0 1047 1024">
    <path d="M465.412235 907.646941A116.353059 116.353059 0 1 0 349.059176 1024a116.353059 116.353059 0 0 0 116.353059-116.353059z m465.412236 0a116.353059 116.353059 0 1 0-116.353059 116.353059 116.353059 116.353059 0 0 0 116.353059-116.353059zM194.123443 186.257977a1128.112717 1128.112717 0 0 0-37.838014-125.288974A93.082447 93.082447 0 0 0 68.974093 0.046541H23.270612a23.270612 23.270612 0 0 0 0 46.541224h45.703481a46.541224 46.541224 0 0 1 43.655668 30.43796 1142.168167 1142.168167 0 0 1 51.846923 194.681938q18.104536 101.273702 34.905918 298.794655a162.894282 162.894282 0 0 0 173.831469 148.699209 1342.109263 1342.109263 0 0 0 283.901464-51.846923l273.010817-80.28361a162.894282 162.894282 0 0 0 116.958095-156.285429V276.92028a69.811835 69.811835 0 0 0-66.321244-69.811835Q568.128716 186.537224 194.123443 186.257977zM279.247341 907.646941A69.811835 69.811835 0 1 1 349.059176 977.458776 69.811835 69.811835 0 0 1 279.247341 907.646941z m465.412235 0a69.811835 69.811835 0 1 1 69.811836 69.811835 69.811835 69.811835 0 0 1-69.811836-69.811835zM204.409054 232.7992q368.234161 0.511953 774.120171 20.943551a23.270612 23.270612 0 0 1 22.06054 23.270611v153.865285a116.353059 116.353059 0 0 1-83.494955 111.698937l-273.010818 80.330152a1296.033452 1296.033452 0 0 1-274.127806 50.078356 116.353059 116.353059 0 0 1-124.218526-106.253613q-16.987547-199.289519-35.464412-303.029907Q207.573857 248.01818 204.409054 232.7992z"></path>
</svg>