<svg version="1.1" width="100" height="100" xmlns="http://www.w3.org/2000/svg" xmlns:xlink="http://www.w3.org/1999/xlink" id="iconX-Mouth" viewBox="0 0 1024 1024"><path d="M512 1024C228.693333 1024 0 795.306667 0 512S228.693333 0 512 0s512 228.693333 512 512-228.693333 512-512 512z m0-989.866667C249.173333 34.133333 34.133333 249.173333 34.133333 512s215.04 477.866667 477.866667 477.866667 477.866667-215.04 477.866667-477.866667S774.826667 34.133333 512 34.133333z" fill="" ></path><path d="M324.266667 819.2c-6.826667 0-13.653333-3.413333-17.066667-10.24-3.413333-10.24 0-17.066667 6.826667-23.893333l375.466666-170.666667c10.24-3.413333 17.066667 0 23.893334 6.826667 3.413333 10.24 0 17.066667-6.826667 23.893333l-375.466667 170.666667c-3.413333 3.413333-3.413333 3.413333-6.826666 3.413333z" fill="" ></path><path d="M699.733333 819.2h-6.826666l-375.466667-170.666667c-10.24-6.826667-13.653333-17.066667-10.24-23.893333s13.653333-13.653333 23.893333-6.826667l375.466667 170.666667c10.24 3.413333 13.653333 13.653333 6.826667 23.893333 0 3.413333-6.826667 6.826667-13.653334 6.826667zM324.266667 409.6c-27.306667 0-51.2-23.893333-51.2-51.2S296.96 307.2 324.266667 307.2s51.2 23.893333 51.2 51.2-23.893333 51.2-51.2 51.2z m0-68.266667c-10.24 0-17.066667 6.826667-17.066667 17.066667s6.826667 17.066667 17.066667 17.066667 17.066667-6.826667 17.066666-17.066667-6.826667-17.066667-17.066666-17.066667zM699.733333 409.6c-27.306667 0-51.2-23.893333-51.2-51.2S672.426667 307.2 699.733333 307.2s51.2 23.893333 51.2 51.2-23.893333 51.2-51.2 51.2z m0-68.266667c-10.24 0-17.066667 6.826667-17.066666 17.066667s6.826667 17.066667 17.066666 17.066667 17.066667-6.826667 17.066667-17.066667-6.826667-17.066667-17.066667-17.066667z" fill="" ></path></svg>