<svg version="1.1" width="100" height="100" xmlns="http://www.w3.org/2000/svg" xmlns:xlink="http://www.w3.org/1999/xlink" id="iconHappy-Wink" viewBox="0 0 1024 1024"><path d="M699.733333 409.6c-27.306667 0-51.2-23.893333-51.2-51.2S672.426667 307.2 699.733333 307.2s51.2 23.893333 51.2 51.2-23.893333 51.2-51.2 51.2z m0-68.266667c-10.24 0-17.066667 6.826667-17.066666 17.066667s6.826667 17.066667 17.066666 17.066667 17.066667-6.826667 17.066667-17.066667-6.826667-17.066667-17.066667-17.066667zM358.4 375.466667h-136.533333c-10.24 0-17.066667-6.826667-17.066667-17.066667s6.826667-17.066667 17.066667-17.066667h136.533333c10.24 0 17.066667 6.826667 17.066667 17.066667s-6.826667 17.066667-17.066667 17.066667zM512 887.466667c-208.213333 0-375.466667-129.706667-375.466667-290.133334 0-10.24 6.826667-17.066667 17.066667-17.066666h716.8c10.24 0 17.066667 6.826667 17.066667 17.066666 0 160.426667-167.253333 290.133333-375.466667 290.133334zM170.666667 614.4c10.24 133.12 160.426667 238.933333 341.333333 238.933333s327.68-105.813333 341.333333-238.933333H170.666667z" fill="" ></path><path d="M512 1024C228.693333 1024 0 795.306667 0 512S228.693333 0 512 0s512 228.693333 512 512-228.693333 512-512 512z m0-989.866667C249.173333 34.133333 34.133333 249.173333 34.133333 512s215.04 477.866667 477.866667 477.866667 477.866667-215.04 477.866667-477.866667S774.826667 34.133333 512 34.133333z" fill="" ></path></svg>