<svg version="1.1" width="100" height="100" xmlns="http://www.w3.org/2000/svg" xmlns:xlink="http://www.w3.org/1999/xlink" id="iconCar" viewBox="0 0 1024 1024"><path d="M977.066667 505.6L917.333333 426.666667c40.533333 0 74.666667-34.133333 74.666667-74.666667S957.866667 277.333333 917.333333 277.333333h-61.866666l-14.933334-46.933333c-21.333333-66.133333-76.8-115.2-145.066666-128-121.6-23.466667-243.2-23.466667-362.666667 0-68.266667 12.8-123.733333 61.866667-145.066667 128L168.533333 277.333333H106.666667c-40.533333 0-74.666667 34.133333-74.666667 74.666667S66.133333 426.666667 106.666667 426.666667l-59.733334 78.933333C17.066667 546.133333 0 597.333333 0 646.4V874.666667c0 36.266667 27.733333 64 64 64h91.733333c32 0 57.6-23.466667 64-53.333334l12.8-74.666666h561.066667l12.8 74.666666c4.266667 32 32 53.333333 64 53.333334H960c36.266667 0 64-27.733333 64-64V646.4c0-49.066667-17.066667-100.266667-46.933333-140.8zM917.333333 320c17.066667 0 32 14.933333 32 32S934.4 384 917.333333 384h-27.733333l-21.333333-64H917.333333zM74.666667 352c0-17.066667 14.933333-32 32-32h49.066666l-21.333333 64H106.666667c-17.066667 0-32-14.933333-32-32zM981.333333 874.666667c0 12.8-8.533333 21.333333-21.333333 21.333333h-91.733333c-10.666667 0-19.2-8.533333-21.333334-17.066667l-19.2-110.933333H196.266667l-19.2 110.933333c-2.133333 10.666667-10.666667 17.066667-21.333334 17.066667H64c-12.8 0-21.333333-8.533333-21.333333-21.333333V646.4c0-40.533333 12.8-83.2 38.4-115.2l87.466666-117.333333 57.6-170.666667c17.066667-51.2 59.733333-89.6 113.066667-100.266667 115.2-21.333333 232.533333-21.333333 347.733333 0 53.333333 10.666667 96 49.066667 113.066667 100.266667l57.6 170.666667 87.466667 117.333333c25.6 32 38.4 74.666667 38.4 115.2V874.666667z"  ></path><path d="M241.066667 571.733333l-81.066667-10.666666c-19.2-2.133333-38.4 4.266667-53.333333 17.066666s-21.333333 29.866667-21.333334 49.066667v10.666667C85.333333 674.133333 115.2 704 151.466667 704h81.066666c36.266667 0 66.133333-29.866667 66.133334-66.133333 0-34.133333-25.6-61.866667-57.6-66.133334z m-8.533334 89.6H151.466667c-12.8 0-23.466667-10.666667-23.466667-23.466666v-10.666667c0-6.4 2.133333-12.8 8.533333-17.066667 4.266667-4.266667 10.666667-6.4 14.933334-6.4h2.133333l81.066667 10.666667c12.8 2.133333 21.333333 10.666667 21.333333 23.466667 0 12.8-10.666667 23.466667-23.466667 23.466666zM864 561.066667l-81.066667 10.666666c-32 4.266667-57.6 32-57.6 66.133334 0 36.266667 29.866667 66.133333 66.133334 66.133333h81.066666c36.266667 0 66.133333-29.866667 66.133334-66.133333v-10.666667c0-19.2-8.533333-38.4-23.466667-49.066667s-32-19.2-51.2-17.066666z m32 76.8c0 12.8-10.666667 23.466667-23.466667 23.466666h-81.066666c-12.8 0-23.466667-10.666667-23.466667-23.466666 0-12.8 8.533333-21.333333 21.333333-23.466667l81.066667-10.666667h2.133333c6.4 0 10.666667 2.133333 14.933334 6.4 4.266667 4.266667 8.533333 10.666667 8.533333 17.066667v10.666667zM341.333333 597.333333h320v42.666667H341.333333z"  ></path></svg>