<svg version="1.1" width="100" height="100" xmlns="http://www.w3.org/2000/svg" xmlns:xlink="http://www.w3.org/1999/xlink" id="iconYelling" viewBox="0 0 1024 1024"><path d="M392.533333 324.266667h-6.826666L249.173333 273.066667c-6.826667-3.413333-13.653333-13.653333-10.24-23.893334s13.653333-13.653333 23.893334-10.24l136.533333 51.2c10.24 3.413333 13.653333 13.653333 10.24 20.48-3.413333 10.24-10.24 13.653333-17.066667 13.653334zM631.466667 324.266667c-6.826667 0-13.653333-3.413333-17.066667-10.24-3.413333-10.24 0-17.066667 10.24-20.48l136.533333-51.2c10.24-3.413333 17.066667 0 20.48 10.24 3.413333 10.24 0 17.066667-10.24 20.48l-136.533333 51.2h-3.413333z" fill="" ></path><path d="M512 1024C228.693333 1024 0 795.306667 0 512S228.693333 0 512 0s512 228.693333 512 512-228.693333 512-512 512z m0-989.866667C249.173333 34.133333 34.133333 249.173333 34.133333 512s215.04 477.866667 477.866667 477.866667 477.866667-215.04 477.866667-477.866667S774.826667 34.133333 512 34.133333z" fill="" ></path><path d="M324.266667 409.6c-27.306667 0-51.2-23.893333-51.2-51.2S296.96 307.2 324.266667 307.2s51.2 23.893333 51.2 51.2-23.893333 51.2-51.2 51.2z m0-68.266667c-10.24 0-17.066667 6.826667-17.066667 17.066667s6.826667 17.066667 17.066667 17.066667 17.066667-6.826667 17.066666-17.066667-6.826667-17.066667-17.066666-17.066667zM699.733333 409.6c-27.306667 0-51.2-23.893333-51.2-51.2S672.426667 307.2 699.733333 307.2s51.2 23.893333 51.2 51.2-23.893333 51.2-51.2 51.2z m0-68.266667c-10.24 0-17.066667 6.826667-17.066666 17.066667s6.826667 17.066667 17.066666 17.066667 17.066667-6.826667 17.066667-17.066667-6.826667-17.066667-17.066667-17.066667zM802.133333 750.933333h-580.266666c-10.24 0-17.066667-6.826667-17.066667-17.066666 0-122.88 136.533333-221.866667 307.2-221.866667s307.2 98.986667 307.2 221.866667c0 10.24-6.826667 17.066667-17.066667 17.066666zM238.933333 716.8h546.133334c-13.653333-95.573333-129.706667-170.666667-273.066667-170.666667s-259.413333 75.093333-273.066667 170.666667z" fill="" ></path></svg>