<svg version="1.1" width="100" height="100" xmlns="http://www.w3.org/2000/svg" xmlns:xlink="http://www.w3.org/1999/xlink" id="iconThoung-Out" viewBox="0 0 1024 1024"><path d="M512 1024C228.693333 1024 0 795.306667 0 512S228.693333 0 512 0s512 228.693333 512 512-228.693333 512-512 512z m0-989.866667C249.173333 34.133333 34.133333 249.173333 34.133333 512s215.04 477.866667 477.866667 477.866667 477.866667-215.04 477.866667-477.866667S774.826667 34.133333 512 34.133333z" fill="" ></path><path d="M512 819.2c-105.813333 0-201.386667-54.613333-259.413333-139.946667-3.413333-6.826667-3.413333-17.066667 6.826666-23.893333 6.826667-6.826667 17.066667-3.413333 23.893334 6.826667 51.2 78.506667 136.533333 126.293333 228.693333 126.293333 95.573333 0 180.906667-47.786667 232.106667-126.293333 3.413333-6.826667 17.066667-10.24 23.893333-6.826667 6.826667 3.413333 10.24 17.066667 6.826667 23.893333C716.8 764.586667 617.813333 819.2 512 819.2zM324.266667 409.6c-27.306667 0-51.2-23.893333-51.2-51.2S296.96 307.2 324.266667 307.2s51.2 23.893333 51.2 51.2-23.893333 51.2-51.2 51.2z m0-68.266667c-10.24 0-17.066667 6.826667-17.066667 17.066667s6.826667 17.066667 17.066667 17.066667 17.066667-6.826667 17.066666-17.066667-6.826667-17.066667-17.066666-17.066667zM699.733333 409.6c-27.306667 0-51.2-23.893333-51.2-51.2S672.426667 307.2 699.733333 307.2s51.2 23.893333 51.2 51.2-23.893333 51.2-51.2 51.2z m0-68.266667c-10.24 0-17.066667 6.826667-17.066666 17.066667s6.826667 17.066667 17.066666 17.066667 17.066667-6.826667 17.066667-17.066667-6.826667-17.066667-17.066667-17.066667z" fill="" ></path><path d="M614.4 955.733333c-58.026667 0-102.4-44.373333-102.4-102.4v-51.2c0-10.24 6.826667-17.066667 17.066667-17.066666s17.066667 6.826667 17.066666 17.066666V853.333333c0 37.546667 30.72 68.266667 68.266667 68.266667s68.266667-30.72 68.266667-68.266667v-119.466666c0-10.24 6.826667-17.066667 17.066666-17.066667s17.066667 6.826667 17.066667 17.066667V853.333333c0 58.026667-44.373333 102.4-102.4 102.4z" fill="" ></path></svg>