<svg version="1.1" width="100" height="100" xmlns="http://www.w3.org/2000/svg" xmlns:xlink="http://www.w3.org/1999/xlink" id="iconWondering" viewBox="0 0 1024 1024"><path d="M768 375.466667h-136.533333c-10.24 0-17.066667-6.826667-17.066667-17.066667s6.826667-17.066667 17.066667-17.066667h136.533333c10.24 0 17.066667 6.826667 17.066667 17.066667s-6.826667 17.066667-17.066667 17.066667z" fill="" ></path><path d="M512 1024C228.693333 1024 0 795.306667 0 512S228.693333 0 512 0s512 228.693333 512 512-228.693333 512-512 512z m0-989.866667C249.173333 34.133333 34.133333 249.173333 34.133333 512s215.04 477.866667 477.866667 477.866667 477.866667-215.04 477.866667-477.866667S774.826667 34.133333 512 34.133333z" fill="" ></path><path d="M665.6 716.8h-307.2c-10.24 0-17.066667-6.826667-17.066667-17.066667s6.826667-17.066667 17.066667-17.066666h307.2c10.24 0 17.066667 6.826667 17.066667 17.066666s-6.826667 17.066667-17.066667 17.066667zM228.693333 314.026667c-3.413333 0-10.24 0-13.653333-3.413334-6.826667-6.826667-6.826667-17.066667 0-23.893333 30.72-30.72 68.266667-47.786667 112.64-47.786667s81.92 17.066667 109.226667 44.373334c6.826667 6.826667 6.826667 17.066667 0 23.893333s-17.066667 6.826667-23.893334 0c-44.373333-44.373333-126.293333-44.373333-170.666666 0-6.826667 3.413333-10.24 6.826667-13.653334 6.826667z" fill="" ></path><path d="M324.266667 546.133333C259.413333 546.133333 204.8 491.52 204.8 426.666667S259.413333 307.2 324.266667 307.2s119.466667 54.613333 119.466666 119.466667S389.12 546.133333 324.266667 546.133333z m0-204.8C276.48 341.333333 238.933333 378.88 238.933333 426.666667S276.48 512 324.266667 512s85.333333-37.546667 85.333333-85.333333S372.053333 341.333333 324.266667 341.333333zM699.733333 460.8c-27.306667 0-51.2-23.893333-51.2-51.2s23.893333-51.2 51.2-51.2 51.2 23.893333 51.2 51.2-23.893333 51.2-51.2 51.2z m0-68.266667c-10.24 0-17.066667 6.826667-17.066666 17.066667s6.826667 17.066667 17.066666 17.066667 17.066667-6.826667 17.066667-17.066667-6.826667-17.066667-17.066667-17.066667z" fill="" ></path></svg>