<svg version="1.1" width="100" height="100" xmlns="http://www.w3.org/2000/svg" xmlns:xlink="http://www.w3.org/1999/xlink" id="iconSweating" viewBox="0 0 1024 1024"><path d="M512 819.2c-54.613333 0-136.533333 0-136.533333-81.92 0-68.266667 61.44-122.88 136.533333-122.88s136.533333 54.613333 136.533333 122.88c0 81.92-81.92 81.92-136.533333 81.92z m0-170.666667c-58.026667 0-102.4 40.96-102.4 88.746667 0 37.546667 23.893333 47.786667 102.4 47.786667s102.4-10.24 102.4-47.786667c0-47.786667-44.373333-88.746667-102.4-88.746667z" fill="" ></path><path d="M512 1024C228.693333 1024 0 795.306667 0 512S228.693333 0 512 0c153.6 0 296.96 68.266667 395.946667 187.733333 6.826667 6.826667 3.413333 17.066667-3.413334 23.893334-6.826667 6.826667-17.066667 3.413333-23.893333-3.413334C791.893333 98.986667 655.36 34.133333 512 34.133333 249.173333 34.133333 34.133333 249.173333 34.133333 512s215.04 477.866667 477.866667 477.866667 477.866667-215.04 477.866667-477.866667c0-27.306667-3.413333-51.2-6.826667-78.506667 0-10.24 3.413333-17.066667 13.653333-20.48 10.24 0 17.066667 3.413333 20.48 13.653334 3.413333 27.306667 6.826667 58.026667 6.826667 85.333333 0 283.306667-228.693333 512-512 512z" fill="" ></path><path d="M324.266667 409.6c-27.306667 0-51.2-23.893333-51.2-51.2S296.96 307.2 324.266667 307.2s51.2 23.893333 51.2 51.2-23.893333 51.2-51.2 51.2z m0-68.266667c-10.24 0-17.066667 6.826667-17.066667 17.066667s6.826667 17.066667 17.066667 17.066667 17.066667-6.826667 17.066666-17.066667-6.826667-17.066667-17.066666-17.066667zM699.733333 409.6c-27.306667 0-51.2-23.893333-51.2-51.2S672.426667 307.2 699.733333 307.2s51.2 23.893333 51.2 51.2-23.893333 51.2-51.2 51.2z m0-68.266667c-10.24 0-17.066667 6.826667-17.066666 17.066667s6.826667 17.066667 17.066666 17.066667 17.066667-6.826667 17.066667-17.066667-6.826667-17.066667-17.066667-17.066667zM921.6 477.866667c-58.026667 0-102.4-44.373333-102.4-102.4 0-51.2 78.506667-211.626667 88.746667-228.693334 6.826667-10.24 23.893333-10.24 30.72 0 6.826667 17.066667 85.333333 177.493333 85.333333 228.693334 0 58.026667-44.373333 102.4-102.4 102.4z m0-283.306667c-30.72 68.266667-68.266667 157.013333-68.266667 180.906667 0 37.546667 30.72 68.266667 68.266667 68.266666s68.266667-30.72 68.266667-68.266666c0-27.306667-37.546667-116.053333-68.266667-180.906667z" fill="" ></path></svg>