<svg version="1.1" width="100" height="100" xmlns="http://www.w3.org/2000/svg" xmlns:xlink="http://www.w3.org/1999/xlink" id="iconUfo" viewBox="0 0 1024 1024"><path d="M512 1024C252.586667 1024 51.2 727.04 51.2 467.626667 51.2 211.626667 259.413333 0 512 0s460.8 211.626667 460.8 467.626667C972.8 727.04 771.413333 1024 512 1024z m0-989.866667C276.48 34.133333 85.333333 228.693333 85.333333 467.626667 85.333333 706.56 276.48 989.866667 512 989.866667s426.666667-283.306667 426.666667-522.24S747.52 34.133333 512 34.133333z" fill="" ></path><path d="M512 853.333333c-88.746667 0-170.666667-54.613333-218.453333-146.773333-3.413333-6.826667 0-17.066667 6.826666-23.893333 6.826667-3.413333 17.066667 0 23.893334 6.826666 40.96 78.506667 112.64 126.293333 191.146666 126.293334s146.773333-47.786667 191.146667-126.293334c3.413333-6.826667 13.653333-10.24 23.893333-6.826666 6.826667 3.413333 10.24 13.653333 6.826667 23.893333-54.613333 92.16-136.533333 146.773333-225.28 146.773333zM368.64 546.133333c-78.506667 0-146.773333-64.853333-146.773333-146.773333 0-13.653333 3.413333-27.306667 6.826666-40.96 0-6.826667 6.826667-10.24 10.24-10.24 17.066667-3.413333 30.72-6.826667 44.373334-6.826667 78.506667 0 146.773333 64.853333 146.773333 146.773334 0 13.653333-3.413333 27.306667-6.826667 40.96 0 6.826667-6.826667 10.24-10.24 10.24-20.48 3.413333-34.133333 6.826667-44.373333 6.826666z m-109.226667-167.253333c-3.413333 6.826667-3.413333 17.066667-3.413333 23.893333 0 61.44 51.2 112.64 112.64 112.64 6.826667 0 13.653333 0 23.893333-3.413333 3.413333-6.826667 3.413333-17.066667 3.413334-23.893333 0-61.44-51.2-112.64-112.64-112.64-10.24 0-17.066667 0-23.893334 3.413333zM658.773333 546.133333c-13.653333 0-27.306667-3.413333-40.96-6.826666-6.826667 0-10.24-6.826667-10.24-10.24-3.413333-13.653333-6.826667-27.306667-6.826666-40.96 0-78.506667 64.853333-146.773333 146.773333-146.773334 13.653333 0 27.306667 3.413333 40.96 6.826667 6.826667 0 10.24 6.826667 10.24 10.24 3.413333 13.653333 6.826667 27.306667 6.826667 40.96-3.413333 81.92-68.266667 146.773333-146.773334 146.773333z m-23.893333-37.546666c6.826667 3.413333 13.653333 3.413333 23.893333 3.413333 61.44 0 112.64-51.2 112.64-112.64 0-6.826667 0-13.653333-3.413333-23.893333h-23.893333c-61.44 0-112.64 51.2-112.64 112.64 0 6.826667 0 13.653333 3.413333 20.48z" fill="" ></path></svg>