<svg version="1.1" width="100" height="100" xmlns="http://www.w3.org/2000/svg" xmlns:xlink="http://www.w3.org/1999/xlink" id="iconSleeping" viewBox="0 0 1024 1024"><path d="M1006.933333 170.666667h-102.4c-6.826667 0-13.653333-3.413333-13.653333-10.24s-3.413333-13.653333 0-17.066667L972.8 34.133333h-68.266667c-10.24 0-17.066667-6.826667-17.066666-17.066666s6.826667-17.066667 17.066666-17.066667h102.4c6.826667 0 13.653333 3.413333 13.653334 10.24s3.413333 13.653333 0 17.066667L938.666667 136.533333h68.266666c10.24 0 17.066667 6.826667 17.066667 17.066667s-6.826667 17.066667-17.066667 17.066667zM870.4 341.333333h-170.666667c-6.826667 0-13.653333-3.413333-17.066666-10.24 0-6.826667 0-13.653333 3.413333-17.066666L832.853333 136.533333h-133.12c-10.24 0-17.066667-6.826667-17.066666-17.066666s6.826667-17.066667 17.066666-17.066667h170.666667c6.826667 0 13.653333 3.413333 17.066667 10.24 0 6.826667 0 13.653333-3.413334 17.066667L737.28 307.2h133.12c10.24 0 17.066667 6.826667 17.066667 17.066667s-6.826667 17.066667-17.066667 17.066666z" fill="" ></path><path d="M512 1024C228.693333 1024 0 795.306667 0 512S228.693333 0 512 0s512 228.693333 512 512-228.693333 512-512 512z m0-989.866667C249.173333 34.133333 34.133333 249.173333 34.133333 512s215.04 477.866667 477.866667 477.866667 477.866667-215.04 477.866667-477.866667S774.826667 34.133333 512 34.133333z" fill="" ></path><path d="M597.333333 750.933333h-170.666666c-10.24 0-17.066667-6.826667-17.066667-17.066666s6.826667-17.066667 17.066667-17.066667h170.666666c10.24 0 17.066667 6.826667 17.066667 17.066667s-6.826667 17.066667-17.066667 17.066666zM324.266667 477.866667C259.413333 477.866667 204.8 423.253333 204.8 358.4c0-10.24 6.826667-17.066667 17.066667-17.066667s17.066667 6.826667 17.066666 17.066667C238.933333 406.186667 276.48 443.733333 324.266667 443.733333s85.333333-37.546667 85.333333-85.333333c0-10.24 6.826667-17.066667 17.066667-17.066667s17.066667 6.826667 17.066666 17.066667c0 64.853333-54.613333 119.466667-119.466666 119.466667zM699.733333 477.866667c-64.853333 0-119.466667-54.613333-119.466666-119.466667 0-10.24 6.826667-17.066667 17.066666-17.066667s17.066667 6.826667 17.066667 17.066667c0 47.786667 37.546667 85.333333 85.333333 85.333333s85.333333-37.546667 85.333334-85.333333c0-10.24 6.826667-17.066667 17.066666-17.066667s17.066667 6.826667 17.066667 17.066667c0 64.853333-54.613333 119.466667-119.466667 119.466667z" fill="" ></path></svg>