<svg version="1.1" width="100" height="100" xmlns="http://www.w3.org/2000/svg" xmlns:xlink="http://www.w3.org/1999/xlink" id="iconQuiet" viewBox="0 0 1024 1024"><path d="M631.466667 716.8h-102.4c-10.24 0-17.066667-6.826667-17.066667-17.066667s6.826667-17.066667 17.066667-17.066666h102.4c10.24 0 17.066667 6.826667 17.066666 17.066666s-6.826667 17.066667-17.066666 17.066667z" fill="" ></path><path d="M512 1024c-23.893333 0-51.2-3.413333-81.92-6.826667-10.24 0-17.066667-10.24-13.653333-20.48 0-10.24 10.24-17.066667 20.48-13.653333 27.306667 3.413333 51.2 6.826667 75.093333 6.826667 262.826667 0 477.866667-215.04 477.866667-477.866667S774.826667 34.133333 512 34.133333 34.133333 249.173333 34.133333 512c0 150.186667 71.68 296.96 194.56 385.706667 10.24 6.826667 10.24 17.066667 3.413334 23.893333-6.826667 6.826667-17.066667 10.24-23.893334 3.413333C78.506667 829.44 0 675.84 0 512 0 228.693333 228.693333 0 512 0s512 228.693333 512 512-228.693333 512-512 512z" fill="" ></path><path d="M426.666667 716.8h-34.133334c-10.24 0-17.066667-6.826667-17.066666-17.066667s6.826667-17.066667 17.066666-17.066666h34.133334c10.24 0 17.066667 6.826667 17.066666 17.066666s-6.826667 17.066667-17.066666 17.066667zM324.266667 409.6c-27.306667 0-51.2-23.893333-51.2-51.2S296.96 307.2 324.266667 307.2s51.2 23.893333 51.2 51.2-23.893333 51.2-51.2 51.2z m0-68.266667c-10.24 0-17.066667 6.826667-17.066667 17.066667s6.826667 17.066667 17.066667 17.066667 17.066667-6.826667 17.066666-17.066667-6.826667-17.066667-17.066666-17.066667zM699.733333 409.6c-27.306667 0-51.2-23.893333-51.2-51.2S672.426667 307.2 699.733333 307.2s51.2 23.893333 51.2 51.2-23.893333 51.2-51.2 51.2z m0-68.266667c-10.24 0-17.066667 6.826667-17.066666 17.066667s6.826667 17.066667 17.066666 17.066667 17.066667-6.826667 17.066667-17.066667-6.826667-17.066667-17.066667-17.066667z" fill="" ></path><path d="M382.293333 1024C296.96 1024 204.8 979.626667 204.8 904.533333c0-68.266667 75.093333-119.466667 170.666667-119.466666 6.826667 0 17.066667 3.413333 34.133333 6.826666V682.666667c0-37.546667 30.72-68.266667 68.266667-68.266667s68.266667 30.72 68.266666 68.266667v242.346666c-13.653333 58.026667-81.92 98.986667-163.84 98.986667z m-6.826666-204.8c-75.093333 0-136.533333 37.546667-136.533334 85.333333S303.786667 989.866667 382.293333 989.866667c64.853333 0 119.466667-30.72 129.706667-71.68V682.666667c0-20.48-13.653333-34.133333-34.133333-34.133334s-34.133333 13.653333-34.133334 34.133334v133.12c0 6.826667-3.413333 10.24-6.826666 13.653333s-10.24 3.413333-13.653334 3.413333c-13.653333-3.413333-40.96-13.653333-47.786666-13.653333z" fill="" ></path></svg>