<svg version="1.1" width="100" height="100" xmlns="http://www.w3.org/2000/svg" xmlns:xlink="http://www.w3.org/1999/xlink" id="iconShy" viewBox="0 0 1024 1024"><path d="M512 1024C228.693333 1024 0 795.306667 0 512S228.693333 0 512 0s512 228.693333 512 512-228.693333 512-512 512z m0-989.866667C249.173333 34.133333 34.133333 249.173333 34.133333 512s215.04 477.866667 477.866667 477.866667 477.866667-215.04 477.866667-477.866667S774.826667 34.133333 512 34.133333z" fill="" ></path><path d="M515.413333 819.2c-68.266667 0-126.293333-34.133333-163.84-95.573333-3.413333-6.826667-3.413333-17.066667 6.826667-23.893334 6.826667-3.413333 17.066667-3.413333 23.893333 6.826667 30.72 47.786667 78.506667 78.506667 133.12 78.506667s105.813333-30.72 133.12-78.506667c3.413333-6.826667 17.066667-10.24 23.893334-6.826667 6.826667 3.413333 10.24 17.066667 6.826666 23.893334-34.133333 61.44-95.573333 95.573333-163.84 95.573333zM221.866667 341.333333c-6.826667 0-13.653333-3.413333-13.653334-10.24-6.826667-6.826667-3.413333-17.066667 6.826667-20.48l102.4-51.2c6.826667-3.413333 17.066667 0 23.893333 6.826667 3.413333 6.826667 0 17.066667-6.826666 23.893333l-102.4 51.2h-10.24zM802.133333 341.333333c-3.413333 0-6.826667 0-6.826666-3.413333l-102.4-51.2c-10.24-3.413333-13.653333-13.653333-6.826667-20.48 3.413333-6.826667 13.653333-10.24 23.893333-6.826667l102.4 51.2c6.826667 3.413333 10.24 13.653333 6.826667 23.893334-3.413333 3.413333-10.24 6.826667-17.066667 6.826666zM324.266667 443.733333c-27.306667 0-51.2-23.893333-51.2-51.2S296.96 341.333333 324.266667 341.333333s51.2 23.893333 51.2 51.2-23.893333 51.2-51.2 51.2z m0-68.266666c-10.24 0-17.066667 6.826667-17.066667 17.066666s6.826667 17.066667 17.066667 17.066667 17.066667-6.826667 17.066666-17.066667-6.826667-17.066667-17.066666-17.066666zM699.733333 443.733333c-27.306667 0-51.2-23.893333-51.2-51.2s23.893333-51.2 51.2-51.2 51.2 23.893333 51.2 51.2-23.893333 51.2-51.2 51.2z m0-68.266666c-10.24 0-17.066667 6.826667-17.066666 17.066666s6.826667 17.066667 17.066666 17.066667 17.066667-6.826667 17.066667-17.066667-6.826667-17.066667-17.066667-17.066666zM785.066667 716.8c-58.026667 0-102.4-44.373333-102.4-102.4s44.373333-102.4 102.4-102.4 102.4 44.373333 102.4 102.4-44.373333 102.4-102.4 102.4z m0-170.666667c-37.546667 0-68.266667 30.72-68.266667 68.266667s30.72 68.266667 68.266667 68.266667 68.266667-30.72 68.266666-68.266667-30.72-68.266667-68.266666-68.266667zM238.933333 716.8c-58.026667 0-102.4-44.373333-102.4-102.4s44.373333-102.4 102.4-102.4 102.4 44.373333 102.4 102.4-44.373333 102.4-102.4 102.4z m0-170.666667c-37.546667 0-68.266667 30.72-68.266666 68.266667s30.72 68.266667 68.266666 68.266667 68.266667-30.72 68.266667-68.266667-30.72-68.266667-68.266667-68.266667z" fill="" ></path></svg>