<svg version="1.1" width="100" height="100" xmlns="http://www.w3.org/2000/svg" xmlns:xlink="http://www.w3.org/1999/xlink" id="iconKiss" viewBox="0 0 1024 1024"><path d="M512 1024C228.693333 1024 0 795.306667 0 512S228.693333 0 512 0s512 228.693333 512 512-228.693333 512-512 512z m0-989.866667C249.173333 34.133333 34.133333 249.173333 34.133333 512s215.04 477.866667 477.866667 477.866667 477.866667-215.04 477.866667-477.866667S774.826667 34.133333 512 34.133333z" fill="" ></path><path d="M512 853.333333c-119.466667 0-238.933333-88.746667-238.933333-129.706666 0-6.826667 3.413333-17.066667 10.24-20.48 3.413333-3.413333 10.24-6.826667 20.48-6.826667 20.48 0 34.133333-10.24 51.2-20.48 20.48-13.653333 44.373333-30.72 81.92-30.72 78.506667 0 92.16 44.373333 92.16 47.786667 3.413333 10.24-3.413333 17.066667-10.24 20.48-10.24 3.413333-17.066667-3.413333-20.48-10.24 0 0-10.24-23.893333-61.44-23.893334-27.306667 0-44.373333 10.24-64.853334 23.893334-17.066667 10.24-34.133333 23.893333-61.44 27.306666 23.893333 30.72 109.226667 88.746667 201.386667 88.746667 10.24 0 17.066667 6.826667 17.066667 17.066667s-6.826667 17.066667-17.066667 17.066666z" fill="" ></path><path d="M512 853.333333c-10.24 0-17.066667-6.826667-17.066667-17.066666s6.826667-17.066667 17.066667-17.066667c92.16 0 177.493333-58.026667 197.973333-85.333333-27.306667-3.413333-44.373333-13.653333-61.44-27.306667s-34.133333-23.893333-64.853333-23.893333c-51.2 0-58.026667 20.48-61.44 23.893333-3.413333 10.24-13.653333 13.653333-20.48 10.24-10.24-3.413333-13.653333-10.24-10.24-20.48 0-3.413333 13.653333-47.786667 92.16-47.786667 40.96 0 64.853333 17.066667 81.92 30.72 17.066667 10.24 30.72 20.48 51.2 20.48 6.826667 0 13.653333 3.413333 20.48 6.826667 6.826667 3.413333 10.24 13.653333 10.24 20.48 3.413333 37.546667-116.053333 126.293333-235.52 126.293333z" fill="" ></path><path d="M512 785.066667c-88.746667 0-221.866667-34.133333-225.28-34.133334-10.24-3.413333-13.653333-10.24-13.653333-20.48 3.413333-10.24 10.24-13.653333 20.48-13.653333 0 0 133.12 34.133333 218.453333 34.133333 85.333333 0 215.04-34.133333 218.453333-34.133333 10.24-3.413333 17.066667 3.413333 20.48 13.653333s-3.413333 17.066667-13.653333 20.48c-3.413333 0-136.533333 34.133333-225.28 34.133334zM358.4 409.6c-10.24 0-17.066667-6.826667-17.066667-17.066667s-6.826667-17.066667-17.066666-17.066666-17.066667 6.826667-17.066667 17.066666-6.826667 17.066667-17.066667 17.066667-17.066667-6.826667-17.066666-17.066667c0-27.306667 23.893333-51.2 51.2-51.2s51.2 23.893333 51.2 51.2c0 10.24-6.826667 17.066667-17.066667 17.066667zM733.866667 409.6c-10.24 0-17.066667-6.826667-17.066667-17.066667s-6.826667-17.066667-17.066667-17.066666-17.066667 6.826667-17.066666 17.066666-6.826667 17.066667-17.066667 17.066667-17.066667-6.826667-17.066667-17.066667c0-27.306667 23.893333-51.2 51.2-51.2s51.2 23.893333 51.2 51.2c0 10.24-6.826667 17.066667-17.066666 17.066667z" fill="" ></path></svg>