<svg version="1.1" width="100" height="100"
    xmlns="http://www.w3.org/2000/svg"
    xmlns:xlink="http://www.w3.org/1999/xlink" id="iconHeart" viewBox="0 0 1024 1024">
    <path d="M512 1024c-3.413333 0-6.826667 0-10.24-3.413333C481.28 1003.52 0 628.053333 0 286.72 0 129.706667 129.706667 0 286.72 0c98.986667 0 177.493333 61.44 225.28 122.88C559.786667 61.44 641.706667 0 737.28 0 894.293333 0 1024 129.706667 1024 286.72c0 341.333333-481.28 716.8-501.76 733.866667-3.413333 3.413333-6.826667 3.413333-10.24 3.413333zM286.72 34.133333C146.773333 34.133333 34.133333 146.773333 34.133333 286.72c0 296.96 406.186667 641.706667 477.866667 699.733333 71.68-58.026667 477.866667-399.36 477.866667-699.733333C989.866667 146.773333 877.226667 34.133333 737.28 34.133333c-95.573333 0-170.666667 64.853333-211.626667 129.706667-6.826667 10.24-23.893333 10.24-27.306666 0C457.386667 98.986667 382.293333 34.133333 286.72 34.133333z" fill="" ></path>
</svg>