<svg version="1.1" width="100" height="100" xmlns="http://www.w3.org/2000/svg" xmlns:xlink="http://www.w3.org/1999/xlink" id="iconSkull" viewBox="0 0 1024 1024"><path d="M802.081409 887.491102c-10.238167 0-17.063612-6.825445-17.063613-17.063613v-34.127224c0-51.190837 34.127225-95.556229 47.778115-116.032564 58.016282-75.079894 88.730784-167.2234 88.730784-262.779629 0-119.445286-44.365392-228.652405-129.683454-307.145021-78.492616-78.492616-184.287013-119.445286-293.494131-112.619841C283.347595 41.135933 105.886028 228.835668 102.473305 454.07535c0 98.968951 30.714502 191.112458 92.143507 269.605074 20.476335 27.30178 44.365392 71.667172 44.365392 112.619841v34.127224c0 10.238167-6.825445 17.063612-17.063613 17.063613s-17.063612-6.825445-17.063612-17.063613v-34.127224c0-30.714502-20.476335-71.667172-37.539947-92.143506C102.473305 662.25142 68.346081 559.869746 68.346081 454.07535 71.758803 211.772055 262.871261 7.008708 498.34911 0.183263c119.445286-3.412722 232.065127 40.952669 317.383189 122.858009 88.730784 88.730784 139.921621 204.763347 139.92162 334.4468 0 105.794396-34.127225 204.763347-95.556228 283.255964-23.889057 30.714502-40.952669 68.254449-40.95267 95.556229v34.127224c0 10.238167-6.825445 17.063612-17.063612 17.063613z" fill="" ></path><path d="M645.096176 1024c-13.65089 0-27.30178-10.238167-40.95267-20.476335-6.825445-6.825445-20.476335-17.063612-23.889057-13.65089-3.412722 0-13.65089 6.825445-20.476335 13.65089-13.65089 10.238167-30.714502 20.476335-47.778114 20.476335-20.476335 0-30.714502-13.65089-40.952669-23.889057l-10.238168-10.238168c-3.412722 0-17.063612 10.238167-23.889057 13.65089-13.65089 10.238167-27.30178 20.476335-44.365392 20.476335-20.476335-3.412722-34.127225-23.889057-51.190837-44.365392-6.825445-10.238167-17.063612-23.889057-20.476335-23.889057-3.412722 0-17.063612 10.238167-23.889057 17.063612-13.65089 10.238167-27.30178 23.889057-44.365392 17.063612-51.190837-20.476335-47.778114-64.841727-47.778114-105.794396v-13.65089c0-10.238167 6.825445-17.063612 17.063612-17.063612s17.063612 6.825445 17.063613 17.063612v13.65089c0 44.365392 0 61.429004 20.476334 71.667172 3.412722-3.412722 10.238167-6.825445 13.65089-10.238167 13.65089-13.65089 34.127225-27.30178 54.603559-23.889058 13.65089 3.412722 23.889057 17.063612 37.539947 37.539947 6.825445 10.238167 20.476335 30.714502 27.30178 30.714502 3.412722 0 13.65089-6.825445 20.476335-13.650889 13.65089-10.238167 27.30178-23.889057 47.778114-20.476335 17.063612 0 27.30178 13.65089 34.127225 20.476335 6.825445 6.825445 10.238167 13.65089 13.65089 13.650889 6.825445 0 17.063612-10.238167 27.301779-13.650889 13.65089-10.238167 27.30178-17.063612 40.95267-20.476335 17.063612 0 34.127225 10.238167 47.778114 20.476335 6.825445 3.412722 17.063612 13.65089 20.476335 13.650889 3.412722-3.412722 10.238167-20.476335 17.063612-27.301779 10.238167-17.063612 17.063612-37.539947 34.127225-40.95267 20.476335-3.412722 40.952669 10.238167 54.603559 23.889058 3.412722 3.412722 10.238167 6.825445 13.65089 10.238167 23.889057-13.65089 20.476335-58.016282 20.476334-81.905339l17.063613-3.412723h17.063612c3.412722 34.127225 6.825445 98.968951-44.365392 119.445286-17.063612 6.825445-30.714502-6.825445-44.365392-17.063612-6.825445-6.825445-20.476335-17.063612-27.301779-17.063612l-10.238168 20.476335c-10.238167 20.476335-20.476335 44.365392-44.365392 47.778114h-3.412722zM467.634608 819.236653c-13.65089 0-61.429004 0-61.429004-61.429005 0-44.365392 75.079894-122.858008 88.730784-139.92162 6.825445-6.825445 17.063612-6.825445 23.889057 0 6.825445 6.825445 6.825445 17.063612 0 23.889057-34.127225 34.127225-81.905339 92.143506-81.905339 116.032563 0 23.889057 6.825445 27.30178 27.30178 27.30178 10.238167 0 27.30178-6.825445 27.301779-27.30178 0-10.238167 6.825445-17.063612 17.063613-17.063612s17.063612 6.825445 17.063612 17.063612c3.412722 40.952669-27.30178 61.429004-58.016282 61.429005z" fill="" ></path><path d="M552.952669 819.236653c-30.714502 0-61.429004-23.889057-61.429004-61.429005 0-10.238167 6.825445-17.063612 17.063613-17.063612s17.063612 6.825445 17.063612 17.063612c0 20.476335 13.65089 27.30178 27.301779 27.30178 17.063612 0 27.30178 0 27.30178-27.30178 0-23.889057-47.778114-81.905339-81.905339-116.032563-6.825445-6.825445-6.825445-17.063612 0-23.889057 6.825445-6.825445 17.063612-6.825445 23.889057 0 13.65089 17.063612 88.730784 95.556229 88.730784 139.92162 3.412722 61.429004-40.952669 61.429004-58.016282 61.429005zM307.236653 580.346081c-58.016282 0-102.381674-44.365392-102.381674-102.381674s44.365392-102.381674 102.381674-102.381674 102.381674 44.365392 102.381673 102.381674-44.365392 102.381674-102.381673 102.381674z m0-170.636123c-37.539947 0-68.254449 30.714502-68.254449 68.254449s30.714502 68.254449 68.254449 68.254449 68.254449-30.714502 68.254449-68.254449-30.714502-68.254449-68.254449-68.254449zM716.763347 580.346081c-58.016282 0-102.381674-44.365392-102.381673-102.381674s44.365392-102.381674 102.381673-102.381674 102.381674 44.365392 102.381674 102.381674-44.365392 102.381674-102.381674 102.381674z m0-170.636123c-37.539947 0-68.254449 30.714502-68.254449 68.254449s30.714502 68.254449 68.254449 68.254449 68.254449-30.714502 68.254449-68.254449-30.714502-68.254449-68.254449-68.254449z" fill="" ></path></svg>