<svg version="1.1" width="100" height="100" xmlns="http://www.w3.org/2000/svg" xmlns:xlink="http://www.w3.org/1999/xlink" id="iconSunglass" viewBox="0 0 1024 1024"><path d="M426.666667 378.88c-10.24 0-17.066667-6.826667-17.066667-17.066667 0-30.72 44.373333-54.613333 102.4-54.613333s102.4 23.893333 102.4 54.613333c0 10.24-6.826667 17.066667-17.066667 17.066667s-17.066667-6.826667-17.066666-17.066667c0-6.826667-27.306667-20.48-68.266667-20.48-44.373333 0-68.266667 13.653333-68.266667 20.48 0 10.24-6.826667 17.066667-17.066666 17.066667zM512 269.653333L102.4 249.173333c-6.826667 0-10.24-3.413333-13.653333-10.24-3.413333-6.826667-3.413333-13.653333 0-17.066666C184.32 81.92 341.333333 0 512 0s327.68 81.92 423.253333 225.28c3.413333 3.413333 3.413333 10.24 0 17.066667s-6.826667 10.24-13.653333 10.24l-409.6 17.066666zM136.533333 218.453333l375.466667 17.066667 375.466667-20.48C798.72 102.4 658.773333 34.133333 512 34.133333S225.28 102.4 136.533333 218.453333zM512 1024C228.693333 1024 0 795.306667 0 512c0-37.546667 3.413333-75.093333 13.653333-112.64 3.413333-10.24 10.24-13.653333 20.48-13.653333 10.24 3.413333 13.653333 10.24 13.653334 20.48C37.546667 443.733333 34.133333 477.866667 34.133333 512c0 262.826667 215.04 477.866667 477.866667 477.866667s477.866667-215.04 477.866667-477.866667c0-34.133333-3.413333-68.266667-13.653334-105.813333-3.413333-10.24 3.413333-17.066667 13.653334-20.48 10.24-3.413333 17.066667 3.413333 20.48 13.653333 10.24 37.546667 13.653333 75.093333 13.653333 112.64 0 283.306667-228.693333 512-512 512z" fill="" ></path><path d="M187.733333 546.133333C88.746667 546.133333 0 450.56 0 341.333333V296.96c0-34.133333 47.786667-81.92 81.92-81.92L512 238.933333c10.24 0 17.066667 10.24 17.066667 17.066667 0 10.24-10.24 17.066667-17.066667 17.066667l-47.786667-3.413334c-10.24 150.186667-133.12 276.48-276.48 276.48zM81.92 249.173333C68.266667 249.173333 34.133333 283.306667 34.133333 296.96V341.333333c0 81.92 64.853333 170.666667 153.6 170.666667 126.293333 0 235.52-112.64 242.346667-242.346667L81.92 249.173333z" fill="" ></path><path d="M832.853333 546.133333c-143.36 0-266.24-126.293333-273.066666-276.48L512 273.066667c-10.24 0-17.066667-6.826667-17.066667-17.066667 0-6.826667 6.826667-17.066667 17.066667-17.066667l430.08-23.893333c34.133333 0 81.92 47.786667 81.92 81.92V341.333333c0 105.813333-92.16 204.8-191.146667 204.8z m-238.933333-276.48c6.826667 129.706667 116.053333 242.346667 238.933333 242.346667 81.92 0 157.013333-81.92 157.013334-170.666667V296.96c0-13.653333-34.133333-47.786667-47.786667-47.786667l-348.16 20.48z" fill="" ></path><path d="M522.24 819.2c-105.813333 0-201.386667-54.613333-259.413333-139.946667-3.413333-6.826667-3.413333-17.066667 6.826666-23.893333 6.826667-6.826667 17.066667-6.826667 23.893334 3.413333 51.2 78.506667 136.533333 126.293333 228.693333 126.293334 95.573333 0 180.906667-47.786667 232.106667-126.293334 3.413333-6.826667 17.066667-10.24 23.893333-6.826666 6.826667 3.413333 10.24 17.066667 6.826667 23.893333-58.026667 88.746667-157.013333 143.36-262.826667 143.36z" fill="" ></path></svg>