<?xml version="1.0" standalone="no"?><!DOCTYPE svg PUBLIC "-//W3C//DTD SVG 1.1//EN" "http://www.w3.org/Graphics/SVG/1.1/DTD/svg11.dtd"><svg t="1589428298198" class="icon" viewBox="0 0 1024 1024" version="1.1" xmlns="http://www.w3.org/2000/svg" p-id="2124" xmlns:xlink="http://www.w3.org/1999/xlink" width="200" height="200"><defs><style type="text/css"></style></defs><path d="M512 85.589333A423.509333 423.509333 0 0 0 210.304 210.346667c-166.314667 166.314667-166.314667 436.992 0 603.392 80.426667 80.426667 187.562667 124.714667 301.696 124.714666s221.312-44.288 301.696-124.714666c166.314667-166.357333 166.314667-437.034667 0-603.392A423.509333 423.509333 0 0 0 512 85.589333z m241.365333 667.776c-64.298667 64.298667-150.016 99.712-241.365333 99.712s-177.066667-35.413333-241.365333-99.712c-133.034667-133.077333-133.034667-349.610667 0-482.688C334.976 206.336 420.650667 170.922667 512 170.922667s177.024 35.413333 241.365333 99.754666c133.034667 133.077333 133.034667 349.610667 0 482.688z" fill="" p-id="2125"></path><path d="M609.834667 353.834667l-135.168 135.168L384 398.336V640h241.621333l-90.624-90.666667 135.168-135.168z" fill="" p-id="2126"></path></svg>