<?xml version="1.0" standalone="no"?><!DOCTYPE svg PUBLIC "-//W3C//DTD SVG 1.1//EN" "http://www.w3.org/Graphics/SVG/1.1/DTD/svg11.dtd"><svg t="1589428394125" class="icon" viewBox="0 0 1024 1024" version="1.1" xmlns="http://www.w3.org/2000/svg" p-id="1025" xmlns:xlink="http://www.w3.org/1999/xlink" width="200" height="200"><defs><style type="text/css"></style></defs><path d="M512.256 85.632a423.552 423.552 0 0 0-301.696 124.672c-166.314667 166.357333-166.314667 437.034667 0 603.392 80.426667 80.426667 187.562667 124.714667 301.696 124.714667s221.312-44.288 301.696-124.714667c166.314667-166.314667 166.314667-436.992 0-603.392a423.594667 423.594667 0 0 0-301.696-124.672z m241.365333 667.690667c-64.298667 64.298667-150.058667 99.712-241.365333 99.712s-177.066667-35.413333-241.365333-99.712c-133.034667-133.077333-133.034667-349.610667 0-482.688 64.298667-64.298667 150.016-99.669333 241.365333-99.669334s177.066667 35.370667 241.365333 99.669334c133.034667 133.077333 133.034667 349.610667 0 482.688z" p-id="1026"></path><path d="M489.258667 474.666667l-137.130667 137.130666 60.330667 60.330667 137.130666-137.130667 90.666667 90.624V384H398.634667z" p-id="1027"></path></svg>