<?xml version="1.0" encoding="UTF-8"?>
<svg width="16px" height="16px" viewBox="0 0 16 16" version="1.1" xmlns="http://www.w3.org/2000/svg" xmlns:xlink="http://www.w3.org/1999/xlink">
    <!-- Generator: Sketch 60.1 (88133) - https://sketch.com -->
    <title>快捷清除@3x</title>
    <desc>Created with Sketch.</desc>
    <g id="快捷清除" stroke="none" stroke-width="1" fill="none" fill-rule="evenodd">
        <g id="清空" fill="#888888" fill-rule="nonzero">
            <rect id="矩形" opacity="0" x="0" y="0" width="16" height="16"></rect>
            <path d="M13.8500156,6.17339062 L9.91720312,6.17339062 L9.91720312,1.25959375 C9.91720312,0.914421875 9.60628125,0.63459375 9.22271875,0.63459375 L6.8616875,0.63459375 C6.47814062,0.63459375 6.16720312,0.914421875 6.16720312,1.25959375 L6.16720312,6.17339062 L2.23439062,6.17339062 C1.88571875,6.17339062 1.60307812,6.45321875 1.60307812,6.79839062 L1.60307812,14.712 C1.60307812,15.0571719 1.88573437,15.337 2.23439062,15.337 L13.8500156,15.337 C14.1986875,15.337 14.4813281,15.0571719 14.4813281,14.712 L14.4813281,6.79839062 C14.4813281,6.45320312 14.1986875,6.17339062 13.8500156,6.17339062 L13.8500156,6.17339062 Z M13.6825156,14.5557344 L11.6828281,14.5557344 L11.6828281,12.984375 C11.6828281,12.7082344 11.4939531,12.484375 11.2609531,12.484375 C11.0279531,12.484375 10.8390781,12.7082344 10.8390781,12.984375 L10.8390781,14.5557344 L8.46407812,14.5557344 L8.46407812,12.375 C8.46407812,12.142 8.27520312,11.953125 8.04220312,11.953125 C7.80920312,11.953125 7.62032812,12.142 7.62032812,12.375 L7.62032812,14.5557344 L5.24532812,14.5557344 L5.24532812,12.984375 C5.24532812,12.7082344 5.05645312,12.484375 4.82345312,12.484375 C4.59045312,12.484375 4.40157812,12.7082344 4.40157812,12.984375 L4.40157812,14.5557344 L2.38432812,14.5557344 L2.38432812,10.7551875 L13.6825156,10.7551875 L13.6825156,14.5557344 Z M13.6825156,9.9739375 L2.38432812,9.9739375 L2.38432812,6.95464062 L6.94498437,6.95464062 L6.94498437,1.41584375 L9.09840625,1.41584375 L9.09840625,6.95464062 L13.6825156,6.95464062 L13.6825156,9.9739375 L13.6825156,9.9739375 Z" id="形状"></path>
        </g>
    </g>
</svg>
