<?xml version="1.0" encoding="UTF-8"?>
<svg  viewBox="0 0 1024 1024" version="1.1" xmlns="http://www.w3.org/2000/svg"
     xmlns:xlink="http://www.w3.org/1999/xlink" width="200" height="200">
    <g id="清空" fill="#888888" stroke="#888888">
        <path stroke-width="0.6"
              d="M923.017846 32.295385a2.756923 2.756923 0 0 1-0.787692-0.315077L921.6 31.665231a39.936 39.936 0 0 0-17.329231-3.072H667.175385a39.463385 39.463385 0 1 0 0 78.769231h144.147692L488.605538 430.552615a39.699692 39.699692 0 0 0 27.963077 67.268923 38.912 38.912 0 0 0 28.041847-11.815384L866.461538 163.052308v141.23323a39.463385 39.463385 0 0 0 39.620924 39.148308c22.055385 0 39.699692-17.014154 39.699692-39.148308V67.741538a38.439385 38.439385 0 0 0-22.843077-35.446153z m-16.068923 410.151384a38.596923 38.596923 0 0 0-39.778461 39.148308v335.005538c0 43.480615-35.288615 78.926769-78.769231 78.92677H158.483692c-43.480615 0-78.769231-35.446154-78.76923-78.92677v-630.941538a78.769231 78.769231 0 0 1 78.76923-78.848h337.762462A39.384615 39.384615 0 0 0 535.236923 67.741538a39.305846 39.305846 0 0 0-39.148308-39.148307H158.326154c-87.118769 0.157538-157.538462 70.734769-157.538462 157.774769v630.941538c0 87.04 70.419692 157.696 157.538462 157.77477h630.075077c87.04-0.078769 157.538462-70.734769 157.538461-157.77477V481.673846a39.305846 39.305846 0 0 0-39.069538-39.227077z"
        ></path>
    </g>
</svg>






