<?xml version="1.0" encoding="utf-8"?>
<!-- Generator: Adobe Illustrator 23.0.0, SVG Export Plug-In . SVG Version: 6.00 Build 0)  -->
<svg version="1.1" id="图层_1" xmlns="http://www.w3.org/2000/svg" xmlns:xlink="http://www.w3.org/1999/xlink" x="0px" y="0px"
	 viewBox="0 0 48 48" style="enable-background:new 0 0 48 48;" xml:space="preserve">
<style type="text/css">
	.st0{fill:#919191;}
</style>
<title>Pick</title>
<desc>Created with Sketch.</desc>
<path class="st0" d="M29.3,23.8l-0.1-13.2H19l-0.3,13.2L15.3,26c-0.3,0.2-0.3,0.6,0,0.7l2.9,1.8c0.3,0.2,0.3,0.6,0,0.7l-2.9,1.8
	c-0.3,0.2-0.3,0.6,0,0.7l2.9,1.8c0.3,0.2,0.3,0.6,0,0.7L15.6,36c-0.3,0.2-0.2,0.7,0.2,0.8c5.5,0.9,10.9,0.9,16.4,0
	c0.4-0.1,0.5-0.6,0.2-0.8l-2.5-1.6c-0.3-0.2-0.3-0.6,0-0.7l2.9-1.8c0.3-0.2,0.3-0.6,0-0.7l-2.9-1.8c-0.3-0.2-0.3-0.6,0-0.7l2.9-1.8
	c0.3-0.2,0.3-0.6,0-0.7L29.3,23.8z"/>
</svg>
