<?xml version="1.0" encoding="utf-8"?>
<!-- Generator: Adobe Illustrator 23.0.0, SVG Export Plug-In . SVG Version: 6.00 Build 0)  -->
<svg version="1.1" id="图层_1" xmlns="http://www.w3.org/2000/svg" xmlns:xlink="http://www.w3.org/1999/xlink" x="0px" y="0px"
	 viewBox="0 0 48 48" style="enable-background:new 0 0 48 48;" xml:space="preserve">
<style type="text/css">
	.st0{fill:#1890FF;}
</style>
<title>Drop</title>
<desc>Created with Sketch.</desc>
<path class="st0" d="M29.6,30.5c-0.4,0.5-0.9,1-1.3,1.4c2.4,0.4,4.1,1.2,4.1,2.1c0,1.3-3.7,2.4-8.3,2.4c-4.6,0-8.3-1.1-8.3-2.4
	c0-0.9,1.6-1.7,4.1-2.1c-0.5-0.5-0.9-0.9-1.3-1.4C16.1,31,14,32,14,34c0,3.9,8.3,4.1,10,4.1c1.7,0,10-0.2,10-4.1
	C34,32,31.9,31,29.6,30.5z M24,10c-5.1,0-9.2,4.1-9.2,9.2c0,0.1,0,0.2,0,0.2c0,0,0,0,0,0c0,0.1,0,0.1,0,0.2
	c0.1,3.1,1.7,6.8,5.2,10.6c0.5,0.5,1,1,1.5,1.5c0.7,0.7,1.5,1.4,2.4,2c0.9-0.7,1.7-1.4,2.4-2c0.5-0.5,1-1,1.5-1.5
	c3.5-3.8,5.1-7.5,5.2-10.6c0-0.1,0-0.1,0-0.2c0,0,0,0,0,0c0-0.1,0-0.2,0-0.2C33.2,14.1,29.1,10,24,10z M24,23
	c-2.3,0-4.2-1.9-4.2-4.2s1.9-4.2,4.2-4.2c2.3,0,4.2,1.9,4.2,4.2S26.3,23,24,23z"/>
</svg>
