<?xml version="1.0" encoding="utf-8"?>
<!-- Generator: Adobe Illustrator 23.0.0, SVG Export Plug-In . SVG Version: 6.00 Build 0)  -->
<svg version="1.1" id="图层_1" xmlns="http://www.w3.org/2000/svg" xmlns:xlink="http://www.w3.org/1999/xlink" x="0px" y="0px"
	 viewBox="0 0 48 48" style="enable-background:new 0 0 48 48;" xml:space="preserve">
<style type="text/css">
	.st0{fill:#1890FF;}
</style>
<title>Pick</title>
<desc>Created with Sketch.</desc>
<g>
	<path class="st0" d="M29.3,22.2l-0.4-11.4h-9.9l-0.4,11.4l-3.5,1.7c-0.2,0.1-0.2,0.4,0,0.4l3,1.5c0.2,0.1,0.2,0.4,0,0.4l-3,1.5
		c-0.2,0.1-0.2,0.4,0,0.4l3.1,1.5c0.2,0.1,0.2,0.3,0,0.4l-3.2,2c-0.2,0.1-0.1,0.5,0.1,0.5c5.9-0.5,11.7-0.5,17.5,0
		c0.3,0,0.4-0.3,0.1-0.5l-3.2-2c-0.2-0.1-0.2-0.3,0-0.4l3.1-1.5c0.2-0.1,0.2-0.4,0-0.4l-3-1.5c-0.2-0.1-0.2-0.4,0-0.4l3-1.5
		c0.2-0.1,0.2-0.4,0-0.4L29.3,22.2z"/>
	<path class="st0" d="M15.3,37.2c-0.9,0-1.6-0.7-1.6-1.6c-0.1-1,0.6-1.8,1.5-1.9c5.6-0.5,11.6-0.5,17.6,0c0.9,0.1,1.6,0.9,1.5,1.9
		c-0.1,1-0.9,1.7-1.8,1.6c-5.8-0.5-11.6-0.5-17.1,0C15.4,37.2,15.4,37.2,15.3,37.2z"/>
</g>
</svg>
