<?xml version="1.0" encoding="UTF-8"?>
<svg width="18px" height="18px" viewBox="0 0 18 18" version="1.1" xmlns="http://www.w3.org/2000/svg" xmlns:xlink="http://www.w3.org/1999/xlink">
    <path d="M15.8044922,15.2859375 L14.8728516,9.9140625 L15.1875,9.9140625 C15.440625,9.9140625 15.6445312,9.71015625 15.6445312,9.45703125 L15.6445312,6.08203125 C15.6445312,5.82890625 15.440625,5.625 15.1875,5.625 L10.8632812,5.625 L10.8632812,2.42578125 C10.8632812,2.17265625 10.659375,1.96875 10.40625,1.96875 L7.59375,1.96875 C7.340625,1.96875 7.13671875,2.17265625 7.13671875,2.42578125 L7.13671875,5.625 L2.8125,5.625 C2.559375,5.625 2.35546875,5.82890625 2.35546875,6.08203125 L2.35546875,9.45703125 C2.35546875,9.71015625 2.559375,9.9140625 2.8125,9.9140625 L3.12714844,9.9140625 L2.19550781,15.2859375 C2.19023438,15.3123047 2.18847656,15.3386719 2.18847656,15.3632812 C2.18847656,15.6164063 2.39238281,15.8203125 2.64550781,15.8203125 L15.3544922,15.8203125 C15.3808594,15.8203125 15.4072266,15.8185547 15.4318359,15.8132813 C15.6814453,15.7710938 15.8484375,15.5337891 15.8044922,15.2859375 Z M3.5859375,6.85546875 L8.3671875,6.85546875 L8.3671875,3.19921875 L9.6328125,3.19921875 L9.6328125,6.85546875 L14.4140625,6.85546875 L14.4140625,8.68359375 L3.5859375,8.68359375 L3.5859375,6.85546875 Z M11.8125,14.5898438 L11.8125,11.8476562 C11.8125,11.7703125 11.7492188,11.7070312 11.671875,11.7070312 L10.828125,11.7070312 C10.7507813,11.7070312 10.6875,11.7703125 10.6875,11.8476562 L10.6875,14.5898438 L7.3125,14.5898438 L7.3125,11.8476562 C7.3125,11.7703125 7.24921875,11.7070312 7.171875,11.7070312 L6.328125,11.7070312 C6.25078125,11.7070312 6.1875,11.7703125 6.1875,11.8476562 L6.1875,14.5898438 L3.56484375,14.5898438 L4.35761719,10.0195312 L13.640625,10.0195312 L14.4333984,14.5898438 L11.8125,14.5898438 Z" id="形状" fill="#000000"></path>
</svg>