<?xml version="1.0" encoding="utf-8"?>
<!-- Generator: Adobe Illustrator 23.0.0, SVG Export Plug-In . SVG Version: 6.00 Build 0)  -->
<svg version="1.1" id="图层_1" xmlns="http://www.w3.org/2000/svg" xmlns:xlink="http://www.w3.org/1999/xlink" x="0px" y="0px"
	 viewBox="0 0 20 20" style="enable-background:new 0 0 20 20;" xml:space="preserve">
<style type="text/css">
	.st0{fill:#3F3F3F;}
</style>
<title>Rotary Soft Gripper-continuous2-dark</title>
<g>
	<g id="图层_1-2">
		<path class="st0" d="M13.9,10.5c0.4-2.1-1-4.1-3.1-4.5c-0.7-0.1-1.5,0-2.2,0.2L8.3,5.5c1-0.4,2-0.5,3.1-0.2c2.5,0.7,4,3.2,3.3,5.7
			l1.1,0.8l-3.1,1.5L13,9.9L13.9,10.5z M9.8,13.9c-2.1,0-3.8-1.7-3.8-3.8c0-0.2,0-0.5,0.1-0.7l1,0.7l0.3-3.4L4.2,8.1l1.1,0.8
			c-0.7,2.5,0.8,5,3.3,5.7l0,0c0.4,0.1,0.8,0.2,1.2,0.2c0.6,0,1.3-0.1,1.8-0.4l-0.3-0.8C10.8,13.8,10.3,13.9,9.8,13.9z"/>
	</g>
</g>
</svg>
