<?xml version="1.0" standalone="no"?><!DOCTYPE svg PUBLIC "-//W3C//DTD SVG 1.1//EN" "http://www.w3.org/Graphics/SVG/1.1/DTD/svg11.dtd"><svg t="1589536739740" class="icon" viewBox="0 0 1024 1024" version="1.1" xmlns="http://www.w3.org/2000/svg" p-id="8071" xmlns:xlink="http://www.w3.org/1999/xlink" width="200" height="200"><defs><style type="text/css"></style></defs><path d="M722.34496 199.68H911.36a10.24 10.24 0 0 1 10.24 10.24v56.32a10.24 10.24 0 0 1-10.24 10.24H112.64a10.24 10.24 0 0 1-10.24-10.24V209.92a10.24 10.24 0 0 1 10.24-10.24h170.66496L343.04 92.16c7.48544-15.9232 23.7568-25.6 40.96-25.6h245.76c13.568 0 30.0544 9.96864 35.84 25.6l56.74496 107.52zM371.2 199.68h261.12L604.16 143.36H399.36l-28.16 56.32zM378.88 363.52a10.24 10.24 0 0 1 10.24-10.24h56.32a10.24 10.24 0 0 1 10.24 10.24v460.8a10.24 10.24 0 0 1-10.24 10.24H389.12a10.24 10.24 0 0 1-10.24-10.24V363.52z m184.32 0a10.24 10.24 0 0 1 10.24-10.24h56.32a10.24 10.24 0 0 1 10.24 10.24v460.8a10.24 10.24 0 0 1-10.24 10.24h-56.32a10.24 10.24 0 0 1-10.24-10.24V363.52zM250.88 896h522.24V363.52a10.24 10.24 0 0 1 10.24-10.24h56.32a10.24 10.24 0 0 1 10.24 10.24v568.32c0 21.65248-19.24608 40.96-40.96 40.96H215.04c-21.64736 0-40.96-19.2256-40.96-40.96V363.52a10.24 10.24 0 0 1 10.24-10.24h56.32a10.24 10.24 0 0 1 10.24 10.24v532.48z" p-id="8072"></path></svg>