<?xml version="1.0" encoding="UTF-8"?>
<svg width="18px" height="18px" viewBox="0 0 18 18" version="1.1" xmlns="http://www.w3.org/2000/svg" xmlns:xlink="http://www.w3.org/1999/xlink">
    <path d="M7.03125,5.58457031 L8.33027344,5.58457031 L8.33027344,11.53125 C8.33027344,11.6085937 8.39355469,11.671875 8.47089844,11.671875 L9.52558594,11.671875 C9.60292969,11.671875 9.66621094,11.6085937 9.66621094,11.53125 L9.66621094,5.58457031 L10.96875,5.58457031 C11.0865234,5.58457031 11.1515625,5.44921875 11.0794922,5.3578125 L9.11074219,2.86523437 C9.05449219,2.79316406 8.94550781,2.79316406 8.88925781,2.86523437 L6.92050781,5.35605469 C6.8484375,5.44921875 6.91347656,5.58457031 7.03125,5.58457031 L7.03125,5.58457031 Z M15.4335938,11.0039062 L14.3789062,11.0039062 C14.3015625,11.0039062 14.2382812,11.0671875 14.2382812,11.1445312 L14.2382812,13.8515625 L3.76171875,13.8515625 L3.76171875,11.1445312 C3.76171875,11.0671875 3.6984375,11.0039062 3.62109375,11.0039062 L2.56640625,11.0039062 C2.4890625,11.0039062 2.42578125,11.0671875 2.42578125,11.1445312 L2.42578125,14.625 C2.42578125,14.9361328 2.67714844,15.1875 2.98828125,15.1875 L15.0117188,15.1875 C15.3228516,15.1875 15.5742188,14.9361328 15.5742188,14.625 L15.5742188,11.1445312 C15.5742188,11.0671875 15.5109375,11.0039062 15.4335938,11.0039062 Z" id="形状" fill="#000000"></path>
</svg>