<?xml version="1.0" encoding="UTF-8"?>
<svg width="48px" height="48px" viewBox="0 0 48 48" version="1.1" xmlns="http://www.w3.org/2000/svg" xmlns:xlink="http://www.w3.org/1999/xlink">
    <!-- Generator: Sketch 60.1 (88133) - https://sketch.com -->
    <title>laser OFF</title>
    <desc>Created with Sketch.</desc>
    <g id="laser-OFF" stroke="none" stroke-width="1" fill="none" fill-rule="evenodd">
        <g id="游戏-游戏-射击备份" fill="#007AFF" fill-rule="nonzero">
            <rect id="矩形" opacity="0" x="0" y="0" width="48" height="48"></rect>
            <path d="M40,25.6 L38.3032,25.6 C37.564,32.272 32.2728,37.5672 25.6,38.3064 L25.6,40 C25.6,40.884 24.884,41.6 24,41.6 C23.116,41.6 22.4,40.884 22.4,40 L22.4,38.3064 C15.7272,37.5672 10.436,32.272 9.69680002,25.6 L8.00000002,25.6 C7.116,25.6 6.40000003,24.884 6.40000003,24 C6.40000003,23.116 7.11600005,22.4 8.00000002,22.4 L9.69680002,22.4 C10.436,15.728 15.7272,10.432 22.4,9.6936 L22.4,8.00000002 C22.4,7.116 23.116,6.40000003 24,6.40000003 C24.8832,6.40000003 25.6,7.11600005 25.6,8.00000002 L25.6,9.6936 C32.2728,10.432 37.564,15.728 38.3032,22.4 L40,22.4 C40.8832,22.4 41.6,23.116 41.6,24 C41.6,24.8832 40.884,25.6 40,25.6 Z M35.8816,22.4 C35.1672,17.0576 30.944,12.8328 25.6,12.1192 C24.8736596,12.0594912 24.3403262,12.0296368 24,12.0296368 C23.6292151,12.0296368 23.0958818,12.0594912 22.4,12.1192 C17.056,12.8328 12.8328,17.0576 12.1184,22.4 C12.0501496,23.1180637 12.0160244,23.6563365 12.0160244,24.0148184 C12.0160244,24.3674476 12.0501496,24.8958415 12.1184,25.6 C12.8328,30.9424 17.056,35.1672 22.4,35.8808 C23.1071665,35.9602667 23.6404998,36 24,36 C24.3516109,36 24.8849443,35.9602667 25.6,35.8808 C30.944,35.1672 35.1672,30.9424 35.8816,25.6 C35.946031,24.8857623 35.9782465,24.352429 35.9782465,24 C35.9782465,23.6413179 35.946031,23.1079846 35.8816,22.4 Z" id="形状"></path>
        </g>
    </g>
</svg>