<?xml version="1.0" encoding="UTF-8"?>
<svg width="48px" height="48px" viewBox="0 0 48 48" version="1.1" xmlns="http://www.w3.org/2000/svg" xmlns:xlink="http://www.w3.org/1999/xlink">
    <!-- Generator: Sketch 60.1 (88133) - https://sketch.com -->
    <title>laser ON</title>
    <desc>Created with Sketch.</desc>
    <g id="laser-ON" stroke="none" stroke-width="1" fill="none" fill-rule="evenodd">
        <g id="游戏-游戏-射击备份" fill="#007AFF" fill-rule="nonzero">
            <rect id="矩形" opacity="0" x="0" y="0" width="48" height="48"></rect>
            <path d="M40,25.6 L38.3032,25.6 C37.564,32.272 32.2728,37.5672 25.6,38.3064 L25.6,40 C25.6,40.884 24.884,41.6 24,41.6 C23.116,41.6 22.4,40.884 22.4,40 L22.4,38.3064 C15.7272,37.5672 10.436,32.272 9.69680002,25.6 L8.00000002,25.6 C7.116,25.6 6.40000003,24.884 6.40000003,24 C6.40000003,23.116 7.11600005,22.4 8.00000002,22.4 L9.69680002,22.4 C10.436,15.728 15.7272,10.432 22.4,9.6936 L22.4,8.00000002 C22.4,7.116 23.116,6.40000003 24,6.40000003 C24.8832,6.40000003 25.6,7.11600005 25.6,8.00000002 L25.6,9.6936 C32.2728,10.432 37.564,15.728 38.3032,22.4 L40,22.4 C40.8832,22.4 41.6,23.116 41.6,24 C41.6,24.8832 40.884,25.6 40,25.6 Z M32,22.4 L35.8816,22.4 C35.1672,17.0576 30.944,12.8328 25.6,12.1192 L25.6,16 C25.6,16.884 24.884,17.6 24,17.6 C23.116,17.6 22.4,16.8832 22.4,16 L22.4,12.1192 C17.056,12.8328 12.8328,17.0576 12.1184,22.4 L16,22.4 C16.8832,22.4 17.6,23.116 17.6,24 C17.6,24.8832 16.884,25.6 16,25.6 L12.1184,25.6 C12.8328,30.9424 17.056,35.1672 22.4,35.8808 L22.4,32 C22.4,31.116 23.116,30.4 24,30.4 C24.8832,30.4 25.6,31.1168 25.6,32 L25.6,35.8808 C30.944,35.1672 35.1672,30.9424 35.8816,25.6 L32,25.6 C31.116,25.6 30.4,24.884 30.4,24 C30.4,23.116 31.116,22.4 32,22.4 Z M24,26.4 C22.6744,26.4 21.6,25.3256 21.6,24 C21.6,22.6744 22.6744,21.6 24,21.6 C25.3256,21.6 26.4,22.6744 26.4,24 C26.4,25.3256 25.3256,26.4 24,26.4 Z" id="形状"></path>
        </g>
    </g>
</svg>