<?xml version="1.0" encoding="utf-8"?>
<!-- Generator: Adobe Illustrator 23.0.0, SVG Export Plug-In . SVG Version: 6.00 Build 0)  -->
<svg version="1.1" id="图层_1" xmlns="http://www.w3.org/2000/svg" xmlns:xlink="http://www.w3.org/1999/xlink" x="0px" y="0px"
	 viewBox="0 0 20 20" style="enable-background:new 0 0 20 20;" xml:space="preserve">
<style type="text/css">
	.st0{fill:#3F3F3F;}
</style>
<title>A-Sliding Rail-initialization-dark</title>
<g>
	<path class="st0" d="M7.4,13.1c-1.7,0-3.1-1.4-3.1-3.1s1.4-3.1,3.1-3.1h0.4v0.7c0,0.1,0.1,0.2,0.2,0.1l2.3-1.3c0.1,0,0.1-0.2,0-0.2
		L8,4.8c-0.1,0-0.2,0-0.2,0.1v0.7H7.4C5,5.7,3,7.6,3,10s1.9,4.3,4.3,4.3c0.3,0,0.6-0.3,0.6-0.6S7.7,13.1,7.4,13.1z"/>
	<path class="st0" d="M12.6,5.7C12.3,5.7,12,6,12,6.3s0.3,0.6,0.6,0.6c1.7,0,3.1,1.4,3.1,3.1s-1.4,3.1-3.1,3.1h-0.4v-0.7
		c0-0.1-0.1-0.2-0.2-0.1l-2.3,1.3c-0.1,0-0.1,0.2,0,0.2l2.3,1.3c0.1,0,0.2,0,0.2-0.1v-0.7h0.4c2.4,0,4.3-1.9,4.3-4.3
		C17,7.6,15,5.7,12.6,5.7z"/>
</g>
</svg>
