<?xml version="1.0" encoding="UTF-8"?>
<svg width="24px" height="24px" viewBox="0 0 24 24" version="1.1" xmlns="http://www.w3.org/2000/svg" xmlns:xlink="http://www.w3.org/1999/xlink">
    <!-- Generator: Sketch 60.1 (88133) - https://sketch.com -->
    <title>记录普通态</title>
    <desc>Created with Sketch.</desc>
    <g id="记录普通态" stroke="none" stroke-width="1" fill="none" fill-rule="evenodd">
        <g id="分组-10">
            <rect id="矩形" x="0" y="0" width="24" height="24"></rect>
            <g id="record" transform="translate(5.400000, 5.400000)" fill="#000000" fill-rule="nonzero">
                <g id="分组">
                    <path d="M9.21723302,6.59902566 C9.21723302,8.04552993 8.04583723,9.2172555 6.59901817,9.2172555 C5.15474739,9.2172555 3.98273701,8.04552993 3.98273701,6.59902566 C3.98273701,5.15411032 5.15476238,3.9827445 6.59901817,3.9827445 C8.04583723,3.9827445 9.21723302,5.1541253 9.21723302,6.59902566 Z M13.143581,2.67269272 L13.143581,10.5253886 C13.143581,11.9715931 11.9722002,13.1436034 10.5253661,13.1436034 L2.67268522,13.1436034 C1.22841444,13.1436034 0.0564040576,11.9715781 0.0564040576,10.5253886 L0.0564040576,2.67269272 C0.0564040576,1.22777738 1.22842942,0.0564115576 2.67268522,0.0564115576 L10.5253661,0.0564115576 C11.9722002,0.0564115576 13.143581,1.22777736 13.143581,2.67269272 Z M9.41148705,2.09984261 L3.78684458,2.09984261 C2.85525785,2.09984261 2.09997751,2.85487292 2.09997751,3.78783786 L2.09997751,9.41184736 C2.09997751,10.34373 2.85525786,11.0998426 3.78684458,11.0998426 L9.41149993,11.0998426 C10.3436407,11.0998426 11.0999775,10.34373 11.0999775,9.41184736 L11.0999775,3.78783786 C11.0999775,2.85487292 10.3436278,2.09984261 9.41148705,2.09984261 Z" id="形状"></path>
                </g>
            </g>
        </g>
    </g>
</svg>