<?xml version="1.0" encoding="utf-8"?>
<svg width="24px" height="24px" viewBox="0 0 24 24" version="1.1" xmlns:xlink="http://www.w3.org/1999/xlink"
     xmlns="http://www.w3.org/2000/svg">
    <desc>Created with Lunacy</desc>
    <g id="录像">
        <g id="分组" transform="translate(2 2)">
            <path d="M16.75 2.625C16.3438 2.0625 15.5625 1.9375 15 2.3125L13.75 3.1875L13.75 3.125C13.75 1.40625 12.3438 0 10.625 0L3.125 0C1.40625 0 0 1.40625 0 3.125L0 9.375C0 11.0938 1.40625 12.5 3.125 12.5L10.625 12.5C12.2813 12.5 13.625 11.2188 13.75 9.625L15.0313 10.5C15.25 10.6563 15.5 10.7188 15.75 10.7188C16.4375 10.7188 17 10.1563 17 9.46875L17 3.34375C16.9688 3.09375 16.9063 2.84375 16.75 2.625ZM10.625 11.25C11.6563 11.25 12.5 10.4063 12.5 9.375L12.5 3.125C12.5 2.09375 11.6563 1.25 10.625 1.25L3.125 1.25C2.09375 1.25 1.25 2.09375 1.25 3.125L1.25 9.375C1.25 10.4063 2.09375 11.25 3.125 11.25L10.625 11.25ZM4.0625 5C3.54473 5 3.125 4.58027 3.125 4.0625C3.125 3.54473 3.54473 3.125 4.0625 3.125C4.58027 3.125 5 3.54473 5 4.0625C5 4.58027 4.58027 5 4.0625 5ZM15.7188 9.46875L13.75 8.09375L13.75 4.71875L15.7188 3.34375L15.7188 9.46875Z"
                  transform="translate(1.5625 3.75)" id="形状" fill="#007AFF" fill-rule="evenodd" stroke="none"/>
        </g>
    </g>
</svg>