<?xml version="1.0" encoding="UTF-8"?>
<svg width="48px" height="48px" viewBox="0 0 48 48" version="1.1" xmlns="http://www.w3.org/2000/svg" xmlns:xlink="http://www.w3.org/1999/xlink">
    <!-- Generator: Sketch 60.1 (88133) - https://sketch.com -->
    <title>Rlease</title>
    <desc>Created with Sketch.</desc>
    <g id="Rlease" stroke="none" stroke-width="1" fill="none" fill-rule="evenodd">
        <g id="抓料机备份" fill="#007AFF" fill-rule="nonzero">
            <rect id="矩形" opacity="0" x="0" y="0" width="48" height="48"></rect>
            <path d="M34.7760891,36.1490636 L28.5,23.841 L24,21.246 L19.5,23.841 L13.0769042,36.1490636 C12.737721,36.7158804 12.2885198,37.3643592 12.074872,37.506 C11.8612242,37.6476408 10.9585781,37.7052541 10.5040516,37.3643592 L5.57739565,31.0141395 C5.26100903,30.6384723 4.98613462,30.0014927 5.11923383,29.8141395 L10.2922084,18.7882116 C10.6038222,18.2457157 10.7870227,17.9134398 11.25,17.631 L23.25,10.701 C23.7141016,10.4330508 24.2858984,10.4330508 24.75,10.701 L36.75,17.631 C37.2159513,17.9000114 37.3036186,18.3480249 37.6466261,18.9306073 L43.1993782,29.8141395 C43.2535968,30.0517386 42.9411968,30.5942554 42.5993782,31.0141395 L37.3036186,37.206 C37.0439744,37.4007332 36.7281739,37.506 36.4036186,37.506 C35.747914,37.3643592 35.1887126,36.9625525 34.7760891,36.1490636 Z M24,18.006 C24.2627646,18.0041853 24.5213956,18.0714293 24.75,18.201 L30.75,21.666 C30.9252093,21.9099833 30.75,21.666 31.5,22.971 L36.897693,33.1212845 L39.7564514,29.7361255 L34.5,19.806 L24,13.806 L13.5,19.806 L8.61559409,29.7361255 L11.0122081,33.1212845 L16.5,22.971 C17.0168411,22.0518062 16.8135627,22.1965115 17.25,21.666 L23.25,18.201 C23.4786044,18.0714293 23.7372354,18.0041853 24,18.006 Z" id="形状"></path>
        </g>
    </g>
</svg>