<?xml version="1.0" encoding="UTF-8"?>
<svg width="48px" height="48px" viewBox="0 0 48 48" version="1.1" xmlns="http://www.w3.org/2000/svg" xmlns:xlink="http://www.w3.org/1999/xlink">
    <!-- Generator: Sketch 60.1 (88133) - https://sketch.com -->
    <title>Neutral</title>
    <desc>Created with Sketch.</desc>
    <g id="Neutral" stroke="none" stroke-width="1" fill="none" fill-rule="evenodd">
        <g id="抓料机备份" fill="#007AFF" fill-rule="nonzero">
            <rect id="矩形" opacity="0" x="0" y="0" width="48" height="48"></rect>
            <path d="M30,37.5060086 C29.1715729,37.5060086 28.5,36.8344271 28.5,36.006 L28.5,23.841 L24,21.246 L19.5,23.841 L19.5,36.006 C19.5,36.5741581 19.1789964,37.0935528 18.6708204,37.3476408 C18.1626444,37.6017288 17.5545265,37.5468949 17.1,37.206 L11.1,32.706 C10.7222912,32.4227184 10.4999881,31.978136 10.4999881,31.506 L10.4999881,18.936 C10.497864,18.3979729 10.7840487,17.9000114 11.25,17.631 L23.25,10.701 C23.7141016,10.4330508 24.2858984,10.4330508 24.75,10.701 L36.75,17.631 C37.2159513,17.9000114 37.502136,18.3979729 37.5000119,18.936 L37.5000119,31.506 C37.5000119,31.978136 37.2777088,32.4227184 36.9,32.706 L30.9,37.206 C30.6403557,37.4007332 30.3245553,37.5060086 30,37.5060086 L30,37.5060086 Z M24,18.006 C24.2627646,18.0041853 24.5213956,18.0714293 24.75,18.201 L30.75,21.666 C31.2159513,21.9350114 31.502136,22.4329729 31.5,22.971 L31.5,33.006 L34.5,30.756 L34.5,19.806 L24,13.806 L13.5,19.806 L13.5,30.756 L16.5,33.006 L16.5,22.971 C16.497864,22.4329729 16.7840487,21.9350114 17.25,21.666 L23.25,18.201 C23.4786044,18.0714293 23.7372354,18.0041853 24,18.006 Z" id="形状"></path>
        </g>
    </g>
</svg>