<?xml version="1.0" encoding="utf-8"?>
<!-- Generator: Adobe Illustrator 23.0.0, SVG Export Plug-In . SVG Version: 6.00 Build 0)  -->
<svg version="1.1" id="图层_1" xmlns="http://www.w3.org/2000/svg" xmlns:xlink="http://www.w3.org/1999/xlink" x="0px" y="0px"
	 viewBox="0 0 48 48" style="enable-background:new 0 0 48 48;" xml:space="preserve">
<style type="text/css">
	.st0{fill:#1890FF;}
</style>
<title>Rlease</title>
<desc>Created with Sketch.</desc>
<g>
	<g>
		<g>
			<path class="st0" d="M13,16.2c0,0.9-0.1,1.8-0.2,2.7c-0.2,0-0.4-0.1-0.6-0.1c-0.3,0-0.5,0.1-0.5,0.4c-0.1,0.6-0.2,1.3-0.3,1.9
				c0,0.3,0.1,0.6,0.4,0.6c0.2,0.1,0.4,0.1,0.6,0.2c-0.1,0.7-0.3,1.3-0.4,1.9c-0.2-0.1-0.4-0.1-0.6-0.2c-0.3-0.1-0.5,0.1-0.6,0.4
				c-0.2,0.6-0.3,1.2-0.5,1.8c-0.1,0.3,0.1,0.5,0.3,0.6c0.2,0.1,0.4,0.2,0.6,0.2c-0.2,0.6-0.4,1.2-0.6,1.8c-0.2-0.1-0.4-0.2-0.6-0.3
				c-0.2-0.1-0.5,0-0.6,0.3c-0.2,0.6-0.5,1.1-0.7,1.6c-0.1,0.2,0,0.5,0.2,0.6C9,30.8,9.2,30.9,9.4,31c-0.1,0.2-0.2,0.4-0.3,0.6
				c-0.5,1-0.5,2.2,0,3.2c0.3,0.6,0.5,1.2,0.8,1.8c0.3,0.6,1.1,0.7,1.5,0.1c3.5-5.5,5.8-12.2,6.1-19.7C16,16.7,14.5,16.4,13,16.2z"
				/>
		</g>
		<g>
			<path class="st0" d="M35,16.2c0,0.9,0.1,1.8,0.2,2.7c0.2,0,0.4-0.1,0.6-0.1c0.3,0,0.5,0.1,0.5,0.4c0.1,0.6,0.2,1.3,0.3,1.9
				c0,0.3-0.1,0.6-0.4,0.6c-0.2,0.1-0.4,0.1-0.6,0.2c0.1,0.7,0.3,1.3,0.4,1.9c0.2-0.1,0.4-0.1,0.6-0.2c0.3-0.1,0.5,0.1,0.6,0.4
				c0.2,0.6,0.3,1.2,0.5,1.8c0.1,0.3-0.1,0.5-0.3,0.6c-0.2,0.1-0.4,0.2-0.6,0.2c0.2,0.6,0.4,1.2,0.6,1.8c0.2-0.1,0.4-0.2,0.6-0.3
				c0.2-0.1,0.5,0,0.6,0.3c0.2,0.6,0.5,1.1,0.7,1.6c0.1,0.2,0,0.5-0.2,0.6c-0.2,0.1-0.4,0.2-0.6,0.3c0.1,0.2,0.2,0.4,0.3,0.6
				c0.5,1,0.5,2.2,0,3.2c-0.3,0.6-0.5,1.2-0.8,1.8c-0.3,0.6-1.1,0.7-1.5,0.1c-3.5-5.5-5.8-12.2-6.1-19.7C32,16.7,33.5,16.4,35,16.2z
				"/>
		</g>
	</g>
	<path class="st0" d="M36.4,11.9H28v-0.4c0-0.3-0.3-0.6-0.6-0.6h-6.7c-0.3,0-0.6,0.3-0.6,0.6v0.4h-8.4c-0.3,0-0.6,0.3-0.6,0.6v4.1
		c0,0.3,0.3,0.6,0.6,0.6h24.8c0.3,0,0.6-0.3,0.6-0.6v-4.1C37,12.2,36.7,11.9,36.4,11.9z"/>
</g>
</svg>
