<?xml version="1.0" encoding="utf-8"?>
<!-- Generator: Adobe Illustrator 23.0.0, SVG Export Plug-In . SVG Version: 6.00 Build 0)  -->
<svg version="1.1" id="图层_1" xmlns="http://www.w3.org/2000/svg" xmlns:xlink="http://www.w3.org/1999/xlink" x="0px" y="0px"
	 viewBox="0 0 48 48" style="enable-background:new 0 0 48 48;" xml:space="preserve">
<style type="text/css">
	.st0{fill:#1890FF;}
</style>
<title>Grip</title>
<desc>Created with Sketch.</desc>
<g>
	<g>
		<g>
			<path class="st0" d="M12.6,16.9c0,1.1,0,2.1,0,3.2c-0.2,0-0.5,0.1-0.7,0.1c-0.3,0.1-0.5,0.4-0.5,0.8c0.1,0.8,0.1,1.6,0.2,2.4
				c0,0.4,0.3,0.6,0.6,0.5c0.2-0.1,0.4-0.1,0.7-0.2c0.1,0.8,0.2,1.5,0.4,2.3c-0.2,0.1-0.4,0.2-0.7,0.2c-0.3,0.1-0.4,0.5-0.3,0.8
				c0.2,0.8,0.4,1.5,0.6,2.2c0.1,0.3,0.4,0.5,0.6,0.4c0.2-0.1,0.4-0.2,0.6-0.3c0.2,0.7,0.5,1.4,0.7,2.1c-0.2,0.1-0.4,0.2-0.6,0.3
				c-0.3,0.1-0.4,0.5-0.2,0.8c0.3,0.7,0.6,1.4,0.9,2.1c0.1,0.3,0.4,0.4,0.7,0.3c0.2-0.1,0.4-0.2,0.6-0.4c0.1,0.2,0.2,0.5,0.3,0.7
				c0.6,1.2,1.7,1.9,2.9,1.9c0.7,0,1.3,0,2-0.1c0.7,0,1.1-0.8,0.7-1.4c-3.3-5.3-5.2-12-4.8-19.2C15.7,16.5,14.2,16.6,12.6,16.9z"/>
		</g>
		<g>
			<path class="st0" d="M35.4,16.9c0,1.1,0,2.1,0,3.2c0.2,0,0.5,0.1,0.7,0.1c0.3,0.1,0.5,0.4,0.5,0.8c-0.1,0.8-0.1,1.6-0.2,2.4
				c0,0.4-0.3,0.6-0.6,0.5c-0.2-0.1-0.4-0.1-0.7-0.2c-0.1,0.8-0.2,1.5-0.4,2.3c0.2,0.1,0.4,0.2,0.7,0.2c0.3,0.1,0.4,0.5,0.3,0.8
				c-0.2,0.8-0.4,1.5-0.6,2.2c-0.1,0.3-0.4,0.5-0.6,0.4c-0.2-0.1-0.4-0.2-0.6-0.3c-0.2,0.7-0.5,1.4-0.7,2.1c0.2,0.1,0.4,0.2,0.6,0.3
				c0.3,0.1,0.4,0.5,0.2,0.8c-0.3,0.7-0.6,1.4-0.9,2.1c-0.1,0.3-0.4,0.4-0.7,0.3c-0.2-0.1-0.4-0.2-0.6-0.4c-0.1,0.2-0.2,0.5-0.3,0.7
				c-0.6,1.2-1.7,1.9-2.9,1.9c-0.7,0-1.3,0-2-0.1c-0.7,0-1.1-0.8-0.7-1.4c3.3-5.3,5.2-12,4.8-19.2C32.3,16.5,33.8,16.6,35.4,16.9z"
				/>
		</g>
	</g>
	<path class="st0" d="M36.4,11.9H28v-0.4c0-0.3-0.3-0.6-0.6-0.6h-6.7c-0.3,0-0.6,0.3-0.6,0.6v0.4h-8.4c-0.3,0-0.6,0.3-0.6,0.6v4.1
		c0,0.3,0.3,0.6,0.6,0.6h24.8c0.3,0,0.6-0.3,0.6-0.6v-4.1C37,12.2,36.7,11.9,36.4,11.9z"/>
</g>
</svg>
