<?xml version="1.0" encoding="utf-8"?>
<!-- Generator: Adobe Illustrator 23.0.0, SVG Export Plug-In . SVG Version: 6.00 Build 0)  -->
<svg version="1.1" id="图层_1" xmlns="http://www.w3.org/2000/svg" xmlns:xlink="http://www.w3.org/1999/xlink" x="0px" y="0px"
	 viewBox="0 0 48 48" style="enable-background:new 0 0 48 48;" xml:space="preserve">
<style type="text/css">
	.st0{fill:#1890FF;}
</style>
<title>Neutral</title>
<desc>Created with Sketch.</desc>
<g>
	<g>
		<g>
			<g>
				<path class="st0" d="M16.4,38l-1.9-1.1c-1.1-0.7-1.8-1.9-1.8-3.2V16.4h5.2v20.7C17.9,37.9,17,38.4,16.4,38z"/>
				<path class="st0" d="M12.8,22.3h-0.6c-0.4,0-0.8-0.4-0.8-0.8v-1.6c0-0.4,0.4-0.8,0.8-0.8h0.6V22.3z M12.8,24.4h-0.6
					c-0.4,0-0.8,0.4-0.8,0.8v1.6c0,0.4,0.4,0.8,0.8,0.8h0.6V24.4z M12.8,29.7h-0.6c-0.4,0-0.8,0.4-0.8,0.8v1.6
					c0,0.4,0.4,0.8,0.8,0.8h0.6V29.7z"/>
			</g>
			<g>
				<path class="st0" d="M31.6,38l1.9-1.1c1.1-0.7,1.8-1.9,1.8-3.2V16.4h-5.2v20.7C30.1,37.9,31,38.4,31.6,38z"/>
				<path class="st0" d="M35.2,19.1h0.6c0.4,0,0.8,0.4,0.8,0.8v1.6c0,0.4-0.4,0.8-0.8,0.8h-0.6V19.1z M35.2,27.6h0.6
					c0.4,0,0.8-0.4,0.8-0.8v-1.6c0-0.4-0.4-0.8-0.8-0.8h-0.6V27.6z M35.2,32.9h0.6c0.4,0,0.8-0.4,0.8-0.8v-1.6
					c0-0.4-0.4-0.8-0.8-0.8h-0.6V32.9z"/>
			</g>
		</g>
	</g>
	<path class="st0" d="M36.4,12.4H28v-0.4c0-0.3-0.3-0.6-0.6-0.6h-6.7c-0.3,0-0.6,0.3-0.6,0.6v0.4h-8.4c-0.3,0-0.6,0.3-0.6,0.6v4.1
		c0,0.3,0.3,0.6,0.6,0.6h24.8c0.3,0,0.6-0.3,0.6-0.6V13C37,12.7,36.7,12.4,36.4,12.4z"/>
</g>
</svg>
