<?xml version="1.0" encoding="utf-8"?>
<!-- Generator: Adobe Illustrator 23.0.0, SVG Export Plug-In . SVG Version: 6.00 Build 0)  -->
<svg version="1.1" id="图层_1" xmlns="http://www.w3.org/2000/svg" xmlns:xlink="http://www.w3.org/1999/xlink" x="0px" y="0px"
	 viewBox="0 0 20 20" style="enable-background:new 0 0 20 20;" xml:space="preserve">
<style type="text/css">
	.st0{fill:#3F3F3F;}
</style>
<title>Rotary Soft Gripper-absolute-dark</title>
<g>
	<g id="图层_1-2">
		<path class="st0" d="M6.7,10c0.2-1.6,1.2-3.1,2.7-3.9L8.9,5.3c-1.9,1-3.1,2.9-3.2,5l-1.3,0.3l2.3,2.6l1.1-3.4L6.7,10z"/>
		<path class="st0" d="M13.2,10L12,9.7l1.1,3.3l2.3-2.6l-1.2-0.3c-0.1-0.9-0.3-1.9-0.8-2.7c-0.6-1-1.4-1.8-2.4-2.3L10.6,6
			C12,6.9,13,8.4,13.2,10z"/>
		<path class="st0" d="M9.1,14.4c0,0.5,0.4,0.9,0.9,0.9s0.9-0.4,0.9-0.9s-0.4-0.9-0.9-0.9C9.4,13.5,9,13.9,9.1,14.4
			C9,14.4,9,14.4,9.1,14.4z"/>
	</g>
</g>
</svg>
