<?xml version="1.0" encoding="utf-8"?>
<svg width="16px" height="16px" viewBox="0 0 16 16" version="1.1" xmlns:xlink="http://www.w3.org/1999/xlink" xmlns="http://www.w3.org/2000/svg">
  <desc>Created with Lunacy</desc>
  <g id="911菜单_反馈">
    <g id="分组">
      <path d="M0 0L16 0L16 16L0 16L0 0Z" id="矩形" fill="#000000" fill-opacity="0" stroke="none" />
      <path d="M11.0057 13.9283L1.57184 13.9283C0.70424 13.9283 0 13.2083 0 12.3211L0 1.60704C-2.22045e-16 0.72 0.70424 0 1.57184 0L8.90696 0C9.1972 0 9.43104 0.23896 9.43104 0.53568C9.43104 0.8324 9.1972 1.07136 8.90696 1.07136L1.57184 1.07136C1.28456 1.07136 1.04792 1.31328 1.04792 1.60704L1.04792 12.3212C1.04792 12.618 1.28456 12.857 1.57184 12.857L11.0028 12.857C11.293 12.857 11.5267 12.618 11.5267 12.3212L11.5267 3.74696C11.5267 3.4504 11.7606 3.21128 12.0507 3.21128C12.3408 3.21128 12.5746 3.4504 12.5746 3.74696L12.5746 12.3182C12.5774 13.2055 11.8705 13.9283 11.0057 13.9283L11.0057 13.9283Z" transform="translate(1.17072 1.36)" id="路径" fill="#C0C0C0" stroke="none" />
      <path d="M5.59136 5.99845C5.45738 5.99884 5.32887 5.9453 5.2348 5.84989C5.14011 5.75596 5.08684 5.62811 5.08684 5.49473C5.08684 5.36135 5.14011 5.2335 5.2348 5.13957L10.2291 0.147893C10.3231 0.0532368 10.4509 0 10.5843 0C10.7176 0 10.8455 0.0532368 10.9394 0.147893C11.0341 0.241834 11.0874 0.369702 11.0874 0.503092C11.0874 0.636483 11.0341 0.764351 10.9394 0.858292L5.9452 5.85253C5.85124 5.94612 5.72398 5.9986 5.59136 5.99845L5.59136 5.99845ZM3.51688 5.99845L0.502481 5.99845C0.369151 5.99871 0.241206 5.94586 0.14692 5.85159C0.0526336 5.75732 -0.00023342 5.62938 7.74787e-07 5.49605C-0.00023342 5.36272 0.0526336 5.23479 0.14692 5.14052C0.241206 5.04624 0.369151 4.9934 0.502481 4.99365L3.5168 4.99365C3.65014 4.99338 3.77809 5.04622 3.87238 5.14049C3.96668 5.23477 4.01954 5.36272 4.01928 5.49605C4.01958 5.62939 3.96674 5.75735 3.87246 5.85163C3.77818 5.94592 3.65022 5.99875 3.51688 5.99845L3.51688 5.99845ZM6.53408 9.01293L0.502561 9.01293C0.224321 9.01293 8.07748e-05 8.78877 8.07748e-05 8.51061C8.07748e-05 8.23245 0.224321 8.00829 0.502561 8.00829L6.53128 8.00829C6.8096 8.00829 7.03376 8.23245 7.03376 8.51061C7.03376 8.78877 6.8096 9.01293 6.53408 9.01293Z" transform="translate(3.438719 0.9686675)" id="形状" fill="#C0C0C0" stroke="none" />
    </g>
  </g>
</svg>