<?xml version="1.0" standalone="no"?><!DOCTYPE svg PUBLIC "-//W3C//DTD SVG 1.1//EN" "http://www.w3.org/Graphics/SVG/1.1/DTD/svg11.dtd"><svg t="1589428447279" class="icon" viewBox="0 0 1024 1024" version="1.1" xmlns="http://www.w3.org/2000/svg" p-id="2368" xmlns:xlink="http://www.w3.org/1999/xlink" width="200" height="200"><defs><style type="text/css"></style></defs><path d="M512 85.632a423.594667 423.594667 0 0 0-301.696 124.672c-166.357333 166.357333-166.357333 437.034667 0 603.434667 80.426667 80.426667 187.562667 124.714667 301.696 124.714666s221.269333-44.288 301.653333-124.714666c80.469333-80.426667 124.757333-187.562667 124.757334-301.696S894.122667 290.730667 813.653333 210.346667A423.381333 423.381333 0 0 0 512 85.632z m241.322667 667.733333c-64.298667 64.298667-150.016 99.712-241.322667 99.712s-177.066667-35.413333-241.365333-99.712c-133.077333-133.077333-133.077333-349.653333 0-482.730666C334.933333 206.336 420.650667 170.965333 512 170.965333s177.024 35.370667 241.322667 99.669334C817.664 334.976 853.077333 420.693333 853.077333 512s-35.413333 177.024-99.754666 241.365333z" p-id="2369"></path><path d="M625.664 384H384v241.621333l90.666667-90.624 135.168 135.168 60.330666-60.330666-135.168-135.168z" p-id="2370"></path></svg>