<svg xmlns="http://www.w3.org/2000/svg" viewBox="0 0 350.48 406.33"><defs><style>.cls-1{fill:none;stroke:#3f3f3f;stroke-linecap:round;stroke-linejoin:round;stroke-width:4px;}</style></defs><title>资源 36</title><g id="图层_2" data-name="图层 2"><g id="图层_1-2" data-name="图层 1"><path class="cls-1" d="M307.59,206V253.4a18.28,18.28,0,0,1-18.22,18.23h-81.3a18.29,18.29,0,0,1-18.23-18.23V206a17.83,17.83,0,0,1,1.39-6.93,18.28,18.28,0,0,1,16.84-11.3h81.3A18.28,18.28,0,0,1,307.59,206Z"/><polyline class="cls-1" points="169.05 396.62 169.05 302 340.07 302 340.07 396.62"/><rect class="cls-1" x="160.87" y="396.62" width="187.61" height="7.71"/><path class="cls-1" d="M231.19,396.62l9.29-14a18.31,18.31,0,0,1,15.27-8.19h84.32"/><rect class="cls-1" x="216.65" y="192.72" width="84.98" height="73.94" rx="22.06"/><path class="cls-1" d="M216.65,220H231a3.72,3.72,0,0,0,3.71-3.72h0a18.15,18.15,0,0,1,18.1-18.1h25.83a18.15,18.15,0,0,1,18.1,18.1v26.87a18.16,18.16,0,0,1-18.1,18.11H252.8a18.15,18.15,0,0,1-18.1-18.1h0a3.71,3.71,0,0,0-3.71-3.71H216.65"/><line class="cls-1" x1="258.61" y1="187.75" x2="164.14" y2="33.35"/><path class="cls-1" d="M173.6,23,274.39,187.75"/><path class="cls-1" d="M191.23,199.05,121.7,85.41l18.06-15.49a13.54,13.54,0,0,0,3-16.79"/><line class="cls-1" x1="147.14" y1="49.11" x2="231.96" y2="187.75"/><path class="cls-1" d="M173.6,23a9,9,0,0,1-2.48,3.85l-7,6.47-17,15.76-4.34,4-9,8.3a9.14,9.14,0,0,1-14-1.85l-9.09-14.53L98.33,25.17,93.4,17.28a9.08,9.08,0,0,1-.74-8.22,9,9,0,0,1,7.12-5.67,131.26,131.26,0,0,1,68.45,8.26A9.19,9.19,0,0,1,173.6,23Z"/><circle class="cls-1" cx="164.33" cy="20.76" r="2.76"/><circle class="cls-1" cx="100.61" cy="12.64" r="2.76"/><circle class="cls-1" cx="127.82" cy="53.64" r="2.76"/><path class="cls-1" d="M47,214.33,56.67,58a12.33,12.33,0,0,1,2.65-6.92l33.34-42"/><path class="cls-1" d="M98.33,25.17,73.7,55.88A12.36,12.36,0,0,0,71,62.78L60.18,222.1"/><path class="cls-1" d="M74.21,241.52,86.75,77.74A29.72,29.72,0,0,1,96.45,58l14.31-12.91"/><path class="cls-1" d="M121.7,85.41l-12,10.33a29.75,29.75,0,0,0-10.28,20.44L90,249.27"/><path class="cls-1" d="M196.85,302V267.74"/><path class="cls-1" d="M300.23,268v34"/><line class="cls-1" x1="17.42" y1="214.33" x2="17.42" y2="271.63"/><polyline class="cls-1" points="30.97 249.27 89.96 249.27 91.01 249.29 91.01 271.63 2 271.63 2 214.33 54.57 214.33 60.18 222.1 79.81 249.27"/><rect class="cls-1" x="251.87" y="213.83" width="27.69" height="31.72" rx="12"/><path class="cls-1" d="M149.33,130.57V102.84a7,7,0,0,1,10.25-6.28l24.11,12.29"/><line class="cls-1" x1="30.97" y1="249.27" x2="30.97" y2="214.33"/></g></g></svg>