<svg xmlns="http://www.w3.org/2000/svg" viewBox="0 0 394.26 310.13"><defs><style>.cls-1{fill:none;stroke:#3f3f3f;stroke-linecap:round;stroke-linejoin:round;stroke-width:14px;}</style></defs><title>资源 46</title><g id="图层_2" data-name="图层 2"><g id="图层_1-2" data-name="图层 1"><path class="cls-1" d="M387.26,205.07l-5.12,82.41a16.08,16.08,0,0,1-15.89,15.27l-24.6.38c-8.25,0-15.07-5.55-18.22-11.24l-20-34.05H90.84l-20,34.05c-4.16,6.72-10,11.24-18.22,11.24L28,302.75a16.1,16.1,0,0,1-15.89-15.27L7,205.07a93.14,93.14,0,0,1,38.78-75.94l5.62-4,10.74-7.63c10.45-7.45,10.78-6.32,13-21.85.58-4.08,1.31-8.19,2.23-12.25C86.33,43.71,113.78,7,197.13,7s110.8,36.71,119.81,76.41c.92,4.06,1.64,8.17,2.22,12.25,2.18,15.53,2.51,14.4,13,21.85l10.73,7.63h0l5.61,4A93.14,93.14,0,0,1,387.26,205.07Z"/><path class="cls-1" d="M287.18,113.82a1577.36,1577.36,0,0,0-180.1,0c.22-1.37.45-3,.71-5,4.54-34.29,22.07-69,89.34-69s84.8,34.72,89.34,69C286.73,110.83,287,112.45,287.18,113.82Z"/><line class="cls-1" x1="118.34" y1="192.72" x2="275.92" y2="192.72"/><line class="cls-1" x1="118.34" y1="218.72" x2="275.92" y2="218.72"/><path class="cls-1" d="M86.39,202.65c0,15.59-12.35,25.67-27.58,25.67s-27.58-10.08-27.58-25.67,12.35-23.11,27.58-23.11S86.39,187.05,86.39,202.65Z"/><path class="cls-1" d="M51.4,125.14l-.08,0C32,119.29,19,104.9,23.32,89.94S45.38,72.49,64.74,78.32a68.94,68.94,0,0,1,12.59,5.09"/><path class="cls-1" d="M316.94,83.41a68.54,68.54,0,0,1,12.58-5.09c19.36-5.83,37.13-3.35,41.42,11.62s-8.63,29.35-28,35.18l-.07,0h0"/><path class="cls-1" d="M363.9,202.65c0,15.59-12.34,25.67-27.57,25.67s-27.58-10.08-27.58-25.67,12.35-23.11,27.58-23.11S363.9,187.05,363.9,202.65Z"/></g></g></svg>