<svg xmlns="http://www.w3.org/2000/svg" viewBox="0 0 332.67 327.83"><defs><style>.cls-1{fill:none;stroke:#3f3f3f;stroke-linecap:round;stroke-linejoin:round;stroke-width:14px;}</style></defs><title>资源 68</title><g id="图层_2" data-name="图层 2"><g id="图层_1-2" data-name="图层 1"><polygon class="cls-1" points="166.33 36.45 194 7 209.93 44.13 246 25.93 248.27 66.27 288.39 61.49 276.72 100.18 316.06 109.42 291.86 141.78 325.67 163.91 291.86 186.05 316.06 218.41 276.72 227.65 288.39 266.33 248.27 261.56 246 301.9 209.93 283.69 194 320.83 166.33 291.38 138.67 320.83 122.74 283.69 86.67 301.9 84.4 261.56 44.28 266.33 55.94 227.65 16.61 218.41 40.8 186.05 7 163.91 40.8 141.78 16.61 109.42 55.94 100.18 44.28 61.49 84.4 66.27 86.67 25.93 122.74 44.13 138.67 7 166.33 36.45"/></g></g></svg>