<svg xmlns="http://www.w3.org/2000/svg" viewBox="0 0 325.98 325.98"><defs><style>.cls-1{fill:none;stroke:#3f3f3f;stroke-linecap:round;stroke-linejoin:round;stroke-width:14px;}</style></defs><title>资源 70</title><g id="图层_2" data-name="图层 2"><g id="图层_1-2" data-name="图层 1"><line class="cls-1" x1="162.99" y1="7" x2="162.99" y2="46.2"/><line class="cls-1" x1="114.79" y1="14.63" x2="126.9" y2="51.91"/><line class="cls-1" x1="71.3" y1="36.79" x2="94.34" y2="68.5"/><line class="cls-1" x1="36.79" y1="71.3" x2="68.5" y2="94.34"/><line class="cls-1" x1="14.63" y1="114.78" x2="51.92" y2="126.9"/><line class="cls-1" x1="7" y1="162.99" x2="46.2" y2="162.99"/><line class="cls-1" x1="14.63" y1="211.19" x2="51.91" y2="199.08"/><line class="cls-1" x1="36.79" y1="254.67" x2="68.5" y2="231.63"/><line class="cls-1" x1="71.3" y1="289.18" x2="94.34" y2="257.47"/><line class="cls-1" x1="114.78" y1="311.34" x2="126.9" y2="274.06"/><line class="cls-1" x1="162.99" y1="318.98" x2="162.99" y2="279.78"/><line class="cls-1" x1="211.19" y1="311.34" x2="199.08" y2="274.06"/><line class="cls-1" x1="254.67" y1="289.18" x2="231.63" y2="257.47"/><line class="cls-1" x1="289.18" y1="254.68" x2="257.47" y2="231.63"/><line class="cls-1" x1="311.34" y1="211.19" x2="274.06" y2="199.08"/><line class="cls-1" x1="318.98" y1="162.99" x2="279.78" y2="162.99"/><line class="cls-1" x1="311.34" y1="114.79" x2="274.06" y2="126.9"/><line class="cls-1" x1="289.18" y1="71.3" x2="257.47" y2="94.34"/><line class="cls-1" x1="254.68" y1="36.79" x2="231.63" y2="68.5"/><line class="cls-1" x1="211.19" y1="14.63" x2="199.08" y2="51.92"/></g></g></svg>