<svg xmlns="http://www.w3.org/2000/svg" viewBox="0 0 406.26 369"><defs><style>.cls-1{fill:none;stroke:#3f3f3f;stroke-linecap:round;stroke-linejoin:round;stroke-width:14px;}</style></defs><title>资源 40</title><g id="图层_2" data-name="图层 2"><g id="图层_1-2" data-name="图层 1"><path class="cls-1" d="M27.08,208.41C38,297.58,109.93,362,203.13,362s165.1-64.42,176.05-153.59"/><path class="cls-1" d="M43.25,104.67C71.42,45.71,130.87,7,203.13,7S334.84,45.71,363,104.67"/><path class="cls-1" d="M152.06,259.89c5.56,14,22.87,28,51.07,28s45.52-14,51.07-28"/><path class="cls-1" d="M7,154.32C7,111.85,44,98,89.72,98s82.72,11.9,82.72,54.37-37,87.9-82.72,87.9S7,196.79,7,154.32Z"/><path class="cls-1" d="M399.26,154.32c0-42.47-37-56.37-82.71-56.37s-82.72,11.9-82.72,54.37,37,87.9,82.72,87.9S399.26,196.79,399.26,154.32Z"/><path class="cls-1" d="M148.51,109.38a361.73,361.73,0,0,0,109.24,0"/><path class="cls-1" d="M172.42,151.45a359.93,359.93,0,0,0,61.42,0"/></g></g></svg>