<svg xmlns="http://www.w3.org/2000/svg" viewBox="0 0 369 369"><defs><style>.cls-1{fill:none;stroke:#3f3f3f;stroke-linecap:round;stroke-linejoin:round;stroke-width:14px;}</style></defs><title>资源 41</title><g id="图层_2" data-name="图层 2"><g id="图层_1-2" data-name="图层 1"><circle class="cls-1" cx="184.5" cy="184.5" r="177.5"/><polyline class="cls-1" points="58.71 116.3 146.55 163.22 34.45 176.29"/><polyline class="cls-1" points="310.29 116.3 222.45 163.22 334.55 176.29"/><path class="cls-1" d="M54.69,247.89c14.59,7.18,31.5,3.17,40-19.7,10-26.86-3.42-54.77-3.42-54.77S61,179.81,45.85,204.16C33,224.88,40.1,240.72,54.69,247.89Z"/><path class="cls-1" d="M314.31,247.89c-14.59,7.18-31.5,3.17-40-19.7-10-26.86,3.42-54.77,3.42-54.77s30.31,6.39,45.46,30.74C336.05,224.88,328.9,240.72,314.31,247.89Z"/><path class="cls-1" d="M290.85,248.78c-21.91,33.91-57.61,59.86-106.35,59.86s-84.44-25.95-106.35-59.86"/><path class="cls-1" d="M108.12,282.25c20.16-15.75,45.69-25.81,76.38-25.81s56.22,10.06,76.38,25.81"/><path class="cls-1" d="M96.93,220.77c24.91,6.1,54.14,9.73,87.57,9.73s62.66-3.63,87.57-9.73"/></g></g></svg>