<svg xmlns="http://www.w3.org/2000/svg" viewBox="0 0 369 369"><defs><style>.cls-1{fill:none;stroke:#3f3f3f;stroke-linecap:round;stroke-linejoin:round;stroke-width:14px;}</style></defs><title>资源 42</title><g id="图层_2" data-name="图层 2"><g id="图层_1-2" data-name="图层 1"><circle class="cls-1" cx="184.5" cy="184.5" r="177.5"/><path class="cls-1" d="M133.43,259.89c5.55,14,22.87,28,51.07,28s45.52-14,51.07-28"/><path class="cls-1" d="M101.47,222.74s3.94-8.42,26.29-20.84c40.34-22.42,34.86-70.19,9.31-79.73-22.77-8.5-35.6,11-35.6,11h0s-12.82-19.48-35.59-11c-25.55,9.54-31,57.31,9.31,79.73,22.35,12.42,26.28,20.84,26.28,20.84Z"/><path class="cls-1" d="M267.53,222.74s3.93-8.42,26.28-20.84c40.34-22.42,34.86-70.19,9.31-79.73-22.77-8.5-35.59,11-35.59,11h0s-12.83-19.48-35.6-11c-25.55,9.54-31,57.31,9.31,79.73,22.35,12.42,26.29,20.84,26.29,20.84Z"/></g></g></svg>