<svg xmlns="http://www.w3.org/2000/svg" viewBox="0 0 369 369"><defs><style>.cls-1{fill:none;stroke:#3f3f3f;stroke-linecap:round;stroke-linejoin:round;stroke-width:14px;}</style></defs><title>资源 43</title><g id="图层_2" data-name="图层 2"><g id="图层_1-2" data-name="图层 1"><circle class="cls-1" cx="184.5" cy="184.5" r="177.5"/><path class="cls-1" d="M133.43,259.89c5.55,14,22.87,28,51.07,28s45.52-14,51.07-28"/><path class="cls-1" d="M135.71,153.75c-4.66-8.83-19.21-17.67-42.9-17.67s-41.7,8.17-41.7,17.67c0,11.92,15.89,16.93,41.7,17.6,23.93.62,41.42,5.72,41.42,17.64,0,9.51-17.73,17.69-41.42,17.69S54.57,197.85,49.9,189"/><line class="cls-1" x1="92.81" y1="121.16" x2="92.81" y2="221.6"/><path class="cls-1" d="M319.1,153.75c-4.67-8.83-19.21-17.67-42.91-17.67s-41.7,8.17-41.7,17.67c0,11.92,15.9,16.93,41.7,17.6,23.94.62,41.43,5.72,41.43,17.64,0,9.51-17.73,17.69-41.43,17.69S238,197.85,233.29,189"/><line class="cls-1" x1="276.19" y1="121.16" x2="276.19" y2="221.6"/></g></g></svg>