<svg xmlns="http://www.w3.org/2000/svg" viewBox="0 0 348.73 360.33"><defs><style>.cls-1{fill:none;stroke:#3f3f3f;stroke-linecap:round;stroke-linejoin:round;stroke-width:14px;}</style></defs><title>资源 44</title><g id="图层_2" data-name="图层 2"><g id="图层_1-2" data-name="图层 1"><path class="cls-1" d="M341.73,186c0,95.56-71.81,167.37-167.37,167.37S7,281.52,7,186c0-32.67,8.39-62.56,23.26-87.75A159.22,159.22,0,0,1,65.48,56.75C94.32,32.71,132,18.6,174.36,18.6s80,14.11,108.89,38.15a159.22,159.22,0,0,1,35.22,41.46C333.34,123.4,341.73,153.29,341.73,186Z"/><path class="cls-1" d="M299.42,218.11c-15.87,51.24-58.18,100.08-125.06,100.08S65.18,269.35,49.3,218.11c31.27,13.15,73.09,21.94,125.06,21.94S268.16,231.26,299.42,218.11Z"/><path class="cls-1" d="M52.44,122.26l91.49,43.62s-16.36,46.35-56,31.21S52.44,122.26,52.44,122.26Z"/><path class="cls-1" d="M296.29,122.26,204.8,165.88s16.36,46.35,56,31.21S296.29,122.26,296.29,122.26Z"/><path class="cls-1" d="M116.2,236c-4.18,10-10,22.64-15.27,29.21-5.06-8.52-13.7-28.05-17-35.62"/><path class="cls-1" d="M264.79,229.6c-3.29,7.57-11.93,27.1-17,35.62-5.28-6.57-11.09-19.18-15.27-29.21"/><path class="cls-1" d="M30.26,98.21C14,75.6,11.91,37.55,25.57,7,31.85,31.48,51,47.66,65.48,56.75"/><path class="cls-1" d="M283.25,56.75C297.72,47.66,316.87,31.48,323.16,7c13.66,30.55,11.55,68.6-4.69,91.21"/></g></g></svg>