<svg version="1.1" width="100" height="100" xmlns="http://www.w3.org/2000/svg" xmlns:xlink="http://www.w3.org/1999/xlink" id="iconStrait" viewBox="0 0 1024 1024"><path d="M733.866667 716.8h-443.733334c-10.24 0-17.066667-6.826667-17.066666-17.066667s6.826667-17.066667 17.066666-17.066666h443.733334c10.24 0 17.066667 6.826667 17.066666 17.066666s-6.826667 17.066667-17.066666 17.066667z" fill="" ></path><path d="M512 1024C228.693333 1024 0 795.306667 0 512S228.693333 0 512 0s512 228.693333 512 512-228.693333 512-512 512z m0-989.866667C249.173333 34.133333 34.133333 249.173333 34.133333 512s215.04 477.866667 477.866667 477.866667 477.866667-215.04 477.866667-477.866667S774.826667 34.133333 512 34.133333z" fill="" ></path><path d="M324.266667 409.6c-27.306667 0-51.2-23.893333-51.2-51.2S296.96 307.2 324.266667 307.2s51.2 23.893333 51.2 51.2-23.893333 51.2-51.2 51.2z m0-68.266667c-10.24 0-17.066667 6.826667-17.066667 17.066667s6.826667 17.066667 17.066667 17.066667 17.066667-6.826667 17.066666-17.066667-6.826667-17.066667-17.066666-17.066667zM699.733333 409.6c-27.306667 0-51.2-23.893333-51.2-51.2S672.426667 307.2 699.733333 307.2s51.2 23.893333 51.2 51.2-23.893333 51.2-51.2 51.2z m0-68.266667c-10.24 0-17.066667 6.826667-17.066666 17.066667s6.826667 17.066667 17.066666 17.066667 17.066667-6.826667 17.066667-17.066667-6.826667-17.066667-17.066667-17.066667z" fill="" ></path></svg>