<svg version="1.1" width="100" height="100" xmlns="http://www.w3.org/2000/svg" xmlns:xlink="http://www.w3.org/1999/xlink" id="iconX-Eye" viewBox="0 0 1024 1024"><path d="M512 1024C228.693333 1024 0 795.306667 0 512S228.693333 0 512 0s512 228.693333 512 512-228.693333 512-512 512z m0-989.866667C249.173333 34.133333 34.133333 249.173333 34.133333 512s215.04 477.866667 477.866667 477.866667 477.866667-215.04 477.866667-477.866667S774.826667 34.133333 512 34.133333z" fill="" ></path><path d="M733.866667 716.8h-443.733334c-10.24 0-17.066667-6.826667-17.066666-17.066667s6.826667-17.066667 17.066666-17.066666h443.733334c10.24 0 17.066667 6.826667 17.066666 17.066666s-6.826667 17.066667-17.066666 17.066667zM802.133333 477.866667c-3.413333 0-10.24 0-13.653333-3.413334l-204.8-204.8c-6.826667-6.826667-6.826667-17.066667 0-23.893333s17.066667-6.826667 23.893333 0l204.8 204.8c6.826667 6.826667 6.826667 17.066667 0 23.893333 0 3.413333-6.826667 3.413333-10.24 3.413334z" fill="" ></path><path d="M597.333333 477.866667c-3.413333 0-10.24 0-13.653333-3.413334-6.826667-6.826667-6.826667-17.066667 0-23.893333l204.8-204.8c6.826667-6.826667 17.066667-6.826667 23.893333 0s6.826667 17.066667 0 23.893333l-204.8 204.8c0 3.413333-6.826667 3.413333-10.24 3.413334zM426.666667 477.866667c-3.413333 0-10.24 0-13.653334-3.413334l-204.8-204.8c-3.413333-6.826667-3.413333-20.48 0-27.306666s17.066667-6.826667 23.893334 0l204.8 204.8c6.826667 6.826667 6.826667 17.066667 0 23.893333 0 6.826667-6.826667 6.826667-10.24 6.826667z" fill="" ></path><path d="M221.866667 477.866667c-3.413333 0-10.24 0-13.653334-3.413334-6.826667-6.826667-6.826667-17.066667 0-23.893333l204.8-204.8c6.826667-6.826667 17.066667-6.826667 23.893334 0s6.826667 17.066667 0 23.893333l-204.8 204.8c0 3.413333-6.826667 3.413333-10.24 3.413334z" fill="" ></path></svg>