<svg version="1.1" width="100" height="100" xmlns="http://www.w3.org/2000/svg" xmlns:xlink="http://www.w3.org/1999/xlink" id="iconLOL" viewBox="0 0 1024 1024"><path d="M802.133333 375.466667c-10.24 0-17.066667-6.826667-17.066666-17.066667 0-27.306667-30.72-51.2-68.266667-51.2s-68.266667 23.893333-68.266667 51.2c0 10.24-6.826667 17.066667-17.066666 17.066667s-17.066667-6.826667-17.066667-17.066667C614.4 310.613333 658.773333 273.066667 716.8 273.066667s102.4 37.546667 102.4 85.333333c0 10.24-6.826667 17.066667-17.066667 17.066667zM221.866667 375.466667c-10.24 0-17.066667-6.826667-17.066667-17.066667C204.8 310.613333 249.173333 273.066667 307.2 273.066667c10.24 0 17.066667 6.826667 17.066667 17.066666S317.44 307.2 307.2 307.2c-37.546667 0-68.266667 23.893333-68.266667 51.2 0 10.24-6.826667 17.066667-17.066666 17.066667z" fill="" ></path><path d="M392.533333 375.466667c-10.24 0-17.066667-6.826667-17.066666-17.066667 0-27.306667-30.72-51.2-68.266667-51.2-10.24 0-17.066667-6.826667-17.066667-17.066667S296.96 273.066667 307.2 273.066667c58.026667 0 102.4 37.546667 102.4 85.333333 0 10.24-6.826667 17.066667-17.066667 17.066667z" fill="" ></path><path d="M788.48 938.666667c-3.413333 0-10.24-3.413333-13.653333-6.826667-3.413333-3.413333-10.24-6.826667-13.653334-10.24-6.826667 0-10.24-6.826667-10.24-13.653333V358.4c0-10.24 6.826667-17.066667 17.066667-17.066667s17.066667 6.826667 17.066667 17.066667v539.306667c3.413333 0 3.413333 3.413333 6.826666 3.413333C914.773333 812.373333 989.866667 665.6 989.866667 512c0-262.826667-215.04-477.866667-477.866667-477.866667S34.133333 249.173333 34.133333 512c0 153.6 75.093333 300.373333 197.973334 389.12 3.413333 0 3.413333-3.413333 6.826666-3.413333V358.4c0-10.24 6.826667-17.066667 17.066667-17.066667s17.066667 6.826667 17.066667 17.066667v549.546667c0 6.826667-3.413333 13.653333-10.24 17.066666-3.413333 3.413333-10.24 3.413333-13.653334 10.24-6.826667 6.826667-13.653333 6.826667-23.893333 3.413334C85.333333 839.68 0 682.666667 0 512 0 228.693333 228.693333 0 512 0s512 228.693333 512 512c0 170.666667-85.333333 327.68-225.28 423.253333-3.413333 3.413333-6.826667 3.413333-10.24 3.413334z" fill="" ></path><path d="M512 1024c-44.373333 0-92.16-6.826667-136.533333-20.48-6.826667 0-10.24-6.826667-10.24-10.24s0-10.24 3.413333-17.066667 6.826667-10.24 6.826667-20.48c0-13.653333-10.24-27.306667-23.893334-30.72-6.826667-3.413333-10.24-10.24-10.24-17.066666V358.4c0-10.24 6.826667-17.066667 17.066667-17.066667s17.066667 6.826667 17.066667 17.066667v539.306667c20.48 13.653333 34.133333 34.133333 34.133333 58.026666 0 6.826667 0 13.653333-3.413333 20.48 71.68 17.066667 139.946667 17.066667 211.626666 0-3.413333-6.826667-3.413333-13.653333-3.413333-20.48 0-23.893333 13.653333-47.786667 34.133333-58.026666V358.4c0-10.24 6.826667-17.066667 17.066667-17.066667s17.066667 6.826667 17.066667 17.066667v549.546667c0 6.826667-3.413333 13.653333-10.24 17.066666-13.653333 3.413333-23.893333 17.066667-23.893334 30.72 0 10.24 3.413333 17.066667 6.826667 20.48s3.413333 10.24 3.413333 17.066667c-3.413333 6.826667-6.826667 10.24-10.24 10.24-44.373333 13.653333-92.16 20.48-136.533333 20.48zM768 805.546667c-3.413333 0-3.413333 0-6.826667-3.413334-6.826667-3.413333-10.24-10.24-10.24-13.653333v-191.146667c0-10.24 6.826667-17.066667 17.066667-17.066666h102.4c10.24 0 17.066667 6.826667 17.066667 17.066666 0 78.506667-37.546667 150.186667-109.226667 204.8-3.413333 3.413333-6.826667 3.413333-10.24 3.413334zM785.066667 614.4v136.533333c40.96-40.96 61.44-85.333333 68.266666-136.533333h-68.266666zM256 805.546667c-3.413333 0-6.826667 0-10.24-3.413334-71.68-54.613333-109.226667-126.293333-109.226667-204.8 0-10.24 6.826667-17.066667 17.066667-17.066666h102.4c10.24 0 17.066667 6.826667 17.066667 17.066666v191.146667c0 6.826667-3.413333 13.653333-10.24 13.653333-3.413333 3.413333-3.413333 3.413333-6.826667 3.413334zM170.666667 614.4c3.413333 47.786667 27.306667 95.573333 68.266666 136.533333v-136.533333H170.666667z" fill="" ></path><path d="M512 887.466667c-54.613333 0-109.226667-10.24-160.426667-27.306667-6.826667-3.413333-10.24-10.24-10.24-17.066667v-245.76c0-10.24 6.826667-17.066667 17.066667-17.066666h307.2c10.24 0 17.066667 6.826667 17.066667 17.066666v245.76c0 6.826667-3.413333 13.653333-10.24 17.066667-51.2 17.066667-105.813333 27.306667-160.426667 27.306667z m-136.533333-54.613334c88.746667 27.306667 184.32 27.306667 273.066666 0V614.4h-273.066666v218.453333z" fill="" ></path><path d="M341.333333 1024H273.066667c-37.546667 0-68.266667-30.72-68.266667-68.266667 0-23.893333 13.653333-47.786667 34.133333-58.026666V358.4c0-10.24 6.826667-17.066667 17.066667-17.066667s17.066667 6.826667 17.066667 17.066667v549.546667c0 6.826667-3.413333 13.653333-10.24 17.066666-13.653333 3.413333-23.893333 17.066667-23.893334 30.72 0 20.48 13.653333 34.133333 34.133334 34.133334h68.266666c20.48 0 34.133333-13.653333 34.133334-34.133334 0-13.653333-10.24-27.306667-23.893334-30.72-6.826667-3.413333-10.24-10.24-10.24-17.066666V358.4c0-10.24 6.826667-17.066667 17.066667-17.066667s17.066667 6.826667 17.066667 17.066667v539.306667c20.48 13.653333 34.133333 34.133333 34.133333 58.026666 0 37.546667-30.72 68.266667-68.266667 68.266667z" fill="" ></path><path d="M750.933333 1024h-68.266666c-37.546667 0-68.266667-30.72-68.266667-68.266667 0-23.893333 13.653333-47.786667 34.133333-58.026666V358.4c0-10.24 6.826667-17.066667 17.066667-17.066667s17.066667 6.826667 17.066667 17.066667v549.546667c0 6.826667-3.413333 13.653333-10.24 17.066666-13.653333 3.413333-23.893333 17.066667-23.893334 30.72 0 20.48 13.653333 34.133333 34.133334 34.133334h68.266666c20.48 0 34.133333-13.653333 34.133334-34.133334 0-13.653333-10.24-27.306667-23.893334-30.72-6.826667-3.413333-10.24-10.24-10.24-17.066666V358.4c0-10.24 6.826667-17.066667 17.066667-17.066667s17.066667 6.826667 17.066667 17.066667v539.306667c20.48 13.653333 34.133333 34.133333 34.133333 58.026666 0 37.546667-30.72 68.266667-68.266667 68.266667z" fill="" ></path></svg>