<svg version="1.1" width="100" height="100" xmlns="http://www.w3.org/2000/svg" xmlns:xlink="http://www.w3.org/1999/xlink" id="iconLayer-1" viewBox="0 0 1024 1024"><path d="M836.266667 614.4c-3.413333 0-6.826667 0-6.826667-3.413333l-136.533333-68.266667c-6.826667-3.413333-10.24-13.653333-6.826667-23.893333 3.413333-6.826667 13.653333-10.24 23.893333-6.826667l136.533334 68.266667c6.826667 3.413333 10.24 13.653333 6.826666 23.893333-3.413333 6.826667-10.24 10.24-17.066666 10.24zM488.106667 334.506667c-6.826667 0-13.653333-3.413333-13.653334-10.24l-68.266666-136.533334c-3.413333-6.826667 0-17.066667 6.826666-23.893333 6.826667-3.413333 17.066667 0 23.893334 6.826667l68.266666 136.533333c3.413333 6.826667 0 17.066667-6.826666 23.893333-3.413333 3.413333-6.826667 3.413333-10.24 3.413334zM539.306667 887.466667c-92.16 0-194.56-44.373333-276.48-122.88C122.88 621.226667 95.573333 419.84 204.8 310.613333c6.826667-3.413333 17.066667-3.413333 23.893333 0l484.693334 484.693334c6.826667 6.826667 6.826667 17.066667 0 23.893333-47.786667 47.786667-109.226667 68.266667-174.08 68.266667zM215.04 348.16c-81.92 98.986667-51.2 269.653333 68.266667 389.12s293.546667 150.186667 389.12 68.266667L215.04 348.16z" fill="" ></path><path d="M512 1024c-136.533333 0-266.24-54.613333-361.813333-150.186667S0 648.533333 0 512 54.613333 245.76 150.186667 150.186667 375.466667 0 512 0s266.24 54.613333 361.813333 150.186667S1024 375.466667 1024 512s-54.613333 266.24-150.186667 361.813333C778.24 969.386667 648.533333 1024 512 1024z m0-989.866667c-126.293333 0-249.173333 51.2-337.92 139.946667C85.333333 262.826667 34.133333 385.706667 34.133333 512s51.2 249.173333 139.946667 337.92C262.826667 938.666667 385.706667 989.866667 512 989.866667s249.173333-51.2 337.92-139.946667c88.746667-88.746667 139.946667-211.626667 139.946667-337.92s-51.2-249.173333-139.946667-337.92C761.173333 85.333333 638.293333 34.133333 512 34.133333z" fill="" ></path></svg>