<svg version="1.1" width="100" height="100" xmlns="http://www.w3.org/2000/svg" xmlns:xlink="http://www.w3.org/1999/xlink" id="iconCry-Hard" viewBox="0 0 1024 1024"><path d="M392.533333 375.466667h-170.666666c-10.24 0-17.066667-6.826667-17.066667-17.066667s6.826667-17.066667 17.066667-17.066667h170.666666c10.24 0 17.066667 6.826667 17.066667 17.066667s-6.826667 17.066667-17.066667 17.066667zM802.133333 375.466667h-170.666666c-10.24 0-17.066667-6.826667-17.066667-17.066667s6.826667-17.066667 17.066667-17.066667h170.666666c10.24 0 17.066667 6.826667 17.066667 17.066667s-6.826667 17.066667-17.066667 17.066667zM512 1024c-44.373333 0-92.16-6.826667-136.533333-20.48-6.826667 0-10.24-6.826667-10.24-10.24s0-10.24 3.413333-17.066667 6.826667-10.24 6.826667-20.48c0-13.653333-10.24-27.306667-23.893334-30.72-6.826667-3.413333-10.24-10.24-10.24-17.066666v-105.813334c0-10.24 6.826667-17.066667 17.066667-17.066666s17.066667 6.826667 17.066667 17.066666v95.573334c20.48 13.653333 34.133333 34.133333 34.133333 58.026666 0 6.826667 0 13.653333-3.413333 20.48 71.68 17.066667 139.946667 17.066667 211.626666 0-3.413333-6.826667-3.413333-13.653333-3.413333-20.48 0-23.893333 13.653333-47.786667 34.133333-58.026666v-95.573334c0-10.24 6.826667-17.066667 17.066667-17.066666s17.066667 6.826667 17.066667 17.066666v105.813334c0 6.826667-3.413333 13.653333-10.24 17.066666-13.653333 3.413333-23.893333 17.066667-23.893334 30.72 0 10.24 3.413333 17.066667 6.826667 20.48s3.413333 10.24 3.413333 17.066667c-3.413333 6.826667-6.826667 10.24-10.24 10.24-44.373333 13.653333-92.16 20.48-136.533333 20.48z" fill="" ></path><path d="M788.48 938.666667c-3.413333 0-10.24-3.413333-13.653333-6.826667-3.413333-3.413333-10.24-6.826667-13.653334-10.24-10.24-3.413333-13.653333-13.653333-10.24-20.48 3.413333-10.24 13.653333-13.653333 20.48-10.24 6.826667 3.413333 10.24 3.413333 17.066667 10.24C914.773333 812.373333 989.866667 665.6 989.866667 512c0-262.826667-215.04-477.866667-477.866667-477.866667S34.133333 249.173333 34.133333 512c0 153.6 75.093333 300.373333 197.973334 389.12 3.413333 0 3.413333-3.413333 6.826666-3.413333V358.4c0-10.24 6.826667-17.066667 17.066667-17.066667h102.4c10.24 0 17.066667 6.826667 17.066667 17.066667V682.666667c85.333333-44.373333 187.733333-44.373333 273.066666 0v-324.266667c0-10.24 6.826667-17.066667 17.066667-17.066667h102.4c10.24 0 17.066667 6.826667 17.066667 17.066667s-6.826667 17.066667-17.066667 17.066667H682.666667v334.506666c0 6.826667-3.413333 10.24-10.24 13.653334-6.826667 3.413333-13.653333 3.413333-17.066667 0-88.746667-54.613333-197.973333-58.026667-290.133333 0-6.826667 3.413333-13.653333 3.413333-17.066667 0-3.413333 0-6.826667-6.826667-6.826667-10.24V375.466667H273.066667v532.48c0 6.826667-3.413333 13.653333-10.24 17.066666-3.413333 3.413333-10.24 3.413333-13.653334 10.24-6.826667 6.826667-13.653333 6.826667-23.893333 3.413334C85.333333 839.68 0 682.666667 0 512 0 228.693333 228.693333 0 512 0s512 228.693333 512 512c0 170.666667-85.333333 327.68-225.28 423.253333-3.413333 3.413333-6.826667 3.413333-10.24 3.413334z" fill="" ></path><path d="M512 1024c-44.373333 0-92.16-6.826667-136.533333-20.48-6.826667 0-10.24-6.826667-10.24-10.24s0-10.24 3.413333-17.066667 6.826667-10.24 6.826667-20.48c0-13.653333-10.24-27.306667-23.893334-30.72-6.826667-3.413333-10.24-10.24-10.24-17.066666V375.466667H273.066667v532.48c0 6.826667-3.413333 13.653333-10.24 17.066666-3.413333 3.413333-10.24 3.413333-13.653334 10.24-6.826667 6.826667-13.653333 6.826667-23.893333 3.413334C85.333333 839.68 0 682.666667 0 512 0 228.693333 228.693333 0 512 0s512 228.693333 512 512c0 170.666667-85.333333 327.68-225.28 423.253333-6.826667 3.413333-17.066667 3.413333-23.893333-3.413333-3.413333-3.413333-10.24-6.826667-13.653334-10.24-6.826667 0-10.24-6.826667-10.24-13.653333V375.466667h-68.266666v532.48c0 6.826667-3.413333 13.653333-10.24 17.066666-13.653333 3.413333-23.893333 17.066667-23.893334 30.72 0 10.24 3.413333 17.066667 6.826667 20.48s3.413333 10.24 3.413333 17.066667c-3.413333 6.826667-6.826667 10.24-10.24 10.24-44.373333 13.653333-92.16 20.48-136.533333 20.48z m-105.813333-47.786667c71.68 17.066667 139.946667 17.066667 211.626666 0-3.413333-6.826667-3.413333-13.653333-3.413333-20.48 0-23.893333 13.653333-47.786667 34.133333-58.026666V358.4c0-10.24 6.826667-17.066667 17.066667-17.066667h102.4c10.24 0 17.066667 6.826667 17.066667 17.066667v539.306667c3.413333 0 3.413333 3.413333 6.826666 3.413333C914.773333 812.373333 989.866667 665.6 989.866667 512c0-262.826667-215.04-477.866667-477.866667-477.866667S34.133333 249.173333 34.133333 512c0 153.6 75.093333 300.373333 197.973334 389.12 3.413333 0 3.413333-3.413333 6.826666-3.413333V358.4c0-10.24 6.826667-17.066667 17.066667-17.066667h102.4c10.24 0 17.066667 6.826667 17.066667 17.066667v539.306667c20.48 13.653333 34.133333 34.133333 34.133333 58.026666 0 6.826667 0 13.653333-3.413333 20.48z" fill="" ></path><path d="M341.333333 1024H273.066667c-37.546667 0-68.266667-30.72-68.266667-68.266667 0-23.893333 13.653333-47.786667 34.133333-58.026666V358.4c0-10.24 6.826667-17.066667 17.066667-17.066667h102.4c10.24 0 17.066667 6.826667 17.066667 17.066667v539.306667c20.48 13.653333 34.133333 34.133333 34.133333 58.026666 0 37.546667-30.72 68.266667-68.266667 68.266667zM273.066667 375.466667v532.48c0 6.826667-3.413333 13.653333-10.24 17.066666-13.653333 3.413333-23.893333 17.066667-23.893334 30.72 0 20.48 13.653333 34.133333 34.133334 34.133334h68.266666c20.48 0 34.133333-13.653333 34.133334-34.133334 0-13.653333-10.24-27.306667-23.893334-30.72-6.826667-3.413333-10.24-10.24-10.24-17.066666V375.466667H273.066667z" fill="" ></path><path d="M750.933333 1024h-68.266666c-37.546667 0-68.266667-30.72-68.266667-68.266667 0-23.893333 13.653333-47.786667 34.133333-58.026666V358.4c0-10.24 6.826667-17.066667 17.066667-17.066667h102.4c10.24 0 17.066667 6.826667 17.066667 17.066667v539.306667c20.48 13.653333 34.133333 34.133333 34.133333 58.026666 0 37.546667-30.72 68.266667-68.266667 68.266667z m-68.266666-648.533333v532.48c0 6.826667-3.413333 13.653333-10.24 17.066666-13.653333 3.413333-23.893333 17.066667-23.893334 30.72 0 20.48 13.653333 34.133333 34.133334 34.133334h68.266666c20.48 0 34.133333-13.653333 34.133334-34.133334 0-13.653333-10.24-27.306667-23.893334-30.72-6.826667-3.413333-10.24-10.24-10.24-17.066666V375.466667h-68.266666z" fill="" ></path></svg>