<svg version="1.1" width="100" height="100" xmlns="http://www.w3.org/2000/svg" xmlns:xlink="http://www.w3.org/1999/xlink" id="iconDrool" viewBox="0 0 1024 1024"><path d="M512 1024C228.693333 1024 0 795.306667 0 512S228.693333 0 512 0s512 228.693333 512 512-228.693333 512-512 512z m0-989.866667C249.173333 34.133333 34.133333 249.173333 34.133333 512s215.04 477.866667 477.866667 477.866667 477.866667-215.04 477.866667-477.866667S774.826667 34.133333 512 34.133333z" fill="" ></path><path d="M324.266667 477.866667C259.413333 477.866667 204.8 423.253333 204.8 358.4S259.413333 238.933333 324.266667 238.933333 443.733333 293.546667 443.733333 358.4 389.12 477.866667 324.266667 477.866667z m0-204.8C276.48 273.066667 238.933333 310.613333 238.933333 358.4S276.48 443.733333 324.266667 443.733333s85.333333-37.546667 85.333333-85.333333S372.053333 273.066667 324.266667 273.066667zM699.733333 477.866667c-64.853333 0-119.466667-54.613333-119.466666-119.466667S634.88 238.933333 699.733333 238.933333 819.2 293.546667 819.2 358.4 764.586667 477.866667 699.733333 477.866667z m0-204.8C651.946667 273.066667 614.4 310.613333 614.4 358.4s37.546667 85.333333 85.333333 85.333333 85.333333-37.546667 85.333334-85.333333S747.52 273.066667 699.733333 273.066667zM631.466667 716.8h-238.933334c-10.24 0-17.066667-6.826667-17.066666-17.066667 0-64.853333 61.44-119.466667 136.533333-119.466666s136.533333 54.613333 136.533333 119.466666c0 10.24-6.826667 17.066667-17.066666 17.066667z m-218.453334-34.133333H614.4c-10.24-37.546667-51.2-68.266667-98.986667-68.266667s-95.573333 30.72-102.4 68.266667z" fill="" ></path><path d="M392.533333 887.466667c-27.306667 0-51.2-23.893333-51.2-51.2 0-20.48 27.306667-112.64 34.133334-139.946667 3.413333-13.653333 27.306667-13.653333 34.133333 0 6.826667 27.306667 34.133333 122.88 34.133333 139.946667 0 27.306667-23.893333 51.2-51.2 51.2z m0-122.88c-10.24 37.546667-17.066667 64.853333-17.066666 71.68 0 10.24 6.826667 17.066667 17.066666 17.066666s17.066667-6.826667 17.066667-17.066666c0-6.826667-6.826667-37.546667-17.066667-71.68z" fill="" ></path></svg>