<svg version="1.1" width="100" height="100" xmlns="http://www.w3.org/2000/svg" xmlns:xlink="http://www.w3.org/1999/xlink" id="iconBroken-Heart" viewBox="0 0 1024 1024"><path d="M510.299003 1020.598007c-3.401993 0-6.803987 0-10.20598-3.401994C479.681063 1000.186047 0 625.966777 0 285.767442 0 129.275748 129.275748 0 285.767442 0c88.451827 0 170.099668 40.82392 224.531561 112.265781 54.431894-68.039867 136.079734-112.265781 224.531562-112.265781C891.322259 0 1020.598007 129.275748 1020.598007 285.767442c0 340.199336-479.681063 714.418605-500.093024 731.428571-3.401993 3.401993-6.803987 3.401993-10.20598 3.401994zM285.767442 34.019934C146.285714 34.019934 34.019934 146.285714 34.019934 285.767442c0 295.973422 404.837209 639.574751 476.279069 697.408638 71.44186-57.833887 476.27907-398.033223 476.27907-697.408638C986.578073 146.285714 874.312292 34.019934 734.830565 34.019934c-85.049834 0-163.295681 44.225914-210.923588 115.667774-6.803987 10.20598-23.813953 10.20598-27.215947 0C449.063123 78.245847 370.817276 34.019934 285.767442 34.019934z" fill="" ></path><path d="M510.299003 1020.598007c-6.803987 0-13.607973-3.401993-17.009966-10.20598l-68.039868-170.099668c-3.401993-3.401993 0-10.20598 0-13.607974l81.647841-159.893687-95.255814-129.275748c-3.401993-6.803987-3.401993-17.009967 0-23.813953l122.471761-122.471761-156.491695-125.873754s-3.401993-3.401993-3.401993-10.20598c0-6.803987 3.401993-10.20598 6.803987-13.607974 0 0 81.647841-64.637874 115.667774-115.667774 6.803987-6.803987 17.009967-10.20598 23.813953-3.401993 6.803987 6.803987 10.20598 17.009967 3.401994 23.813953-27.215947 40.82392-78.245847 88.451827-105.461794 108.863788l153.089701 122.47176c3.401993 3.401993 6.803987 6.803987 6.803986 13.607974 0 3.401993 0 10.20598-3.401993 13.607973l-125.873754 125.873754 91.853821 125.873755c3.401993 6.803987 3.401993 13.607973 0 17.009966l-81.647841 163.295681 64.637874 163.295682c3.401993 10.20598 0 17.009967-10.20598 23.813953 0-3.401993 0-3.401993-3.401994-3.401993z" fill="" ></path></svg>