<svg version="1.1" width="100" height="100" xmlns="http://www.w3.org/2000/svg" xmlns:xlink="http://www.w3.org/1999/xlink" id="iconHypnotized" viewBox="0 0 1024 1024"><path d="M512 1024C228.693333 1024 0 795.306667 0 512S228.693333 0 512 0s512 228.693333 512 512-228.693333 512-512 512z m0-989.866667C249.173333 34.133333 34.133333 249.173333 34.133333 512s215.04 477.866667 477.866667 477.866667 477.866667-215.04 477.866667-477.866667S774.826667 34.133333 512 34.133333z" fill="" ></path><path d="M631.466667 785.066667h-238.933334c-10.24 0-17.066667-6.826667-17.066666-17.066667s6.826667-17.066667 17.066666-17.066667h238.933334c10.24 0 17.066667 6.826667 17.066666 17.066667s-6.826667 17.066667-17.066666 17.066667zM324.266667 512C259.413333 512 204.8 457.386667 204.8 392.533333 204.8 344.746667 242.346667 307.2 290.133333 307.2s85.333333 37.546667 85.333334 85.333333c0 27.306667-23.893333 51.2-51.2 51.2-10.24 0-17.066667-6.826667-17.066667-17.066666s6.826667-17.066667 17.066667-17.066667 17.066667-6.826667 17.066666-17.066667c0-27.306667-23.893333-51.2-51.2-51.2S238.933333 365.226667 238.933333 392.533333C238.933333 440.32 276.48 477.866667 324.266667 477.866667s85.333333-37.546667 85.333333-85.333334C409.6 327.68 354.986667 273.066667 290.133333 273.066667S170.666667 327.68 170.666667 392.533333c0 10.24-6.826667 17.066667-17.066667 17.066667s-17.066667-6.826667-17.066667-17.066667C136.533333 307.2 204.8 238.933333 290.133333 238.933333S443.733333 307.2 443.733333 392.533333c0 64.853333-54.613333 119.466667-119.466666 119.466667zM768 512c-64.853333 0-119.466667-54.613333-119.466667-119.466667 0-47.786667 37.546667-85.333333 85.333334-85.333333s85.333333 37.546667 85.333333 85.333333c0 27.306667-23.893333 51.2-51.2 51.2-10.24 0-17.066667-6.826667-17.066667-17.066666s6.826667-17.066667 17.066667-17.066667 17.066667-6.826667 17.066667-17.066667c0-27.306667-23.893333-51.2-51.2-51.2s-51.2 23.893333-51.2 51.2c0 47.786667 37.546667 85.333333 85.333333 85.333334s85.333333-37.546667 85.333333-85.333334C853.333333 327.68 798.72 273.066667 733.866667 273.066667S614.4 327.68 614.4 392.533333c0 10.24-6.826667 17.066667-17.066667 17.066667s-17.066667-6.826667-17.066666-17.066667C580.266667 307.2 648.533333 238.933333 733.866667 238.933333S887.466667 307.2 887.466667 392.533333c0 64.853333-54.613333 119.466667-119.466667 119.466667z" fill="" ></path></svg>