<svg version="1.1" width="100" height="100" xmlns="http://www.w3.org/2000/svg" xmlns:xlink="http://www.w3.org/1999/xlink" id="iconNinja" viewBox="0 0 1024 1024"><path d="M512 1024C228.693333 1024 0 795.306667 0 512S228.693333 0 512 0s512 228.693333 512 512-228.693333 512-512 512z m0-989.866667C249.173333 34.133333 34.133333 249.173333 34.133333 512s215.04 477.866667 477.866667 477.866667 477.866667-215.04 477.866667-477.866667S774.826667 34.133333 512 34.133333z" fill="" ></path><path d="M512 614.4c-320.853333 0-406.186667-174.08-409.6-180.906667-3.413333-3.413333-3.413333-10.24 0-13.653333C109.226667 409.6 204.8 238.933333 512 238.933333s402.773333 170.666667 406.186667 180.906667c3.413333 3.413333 3.413333 10.24 0 13.653333 0 6.826667-85.333333 180.906667-406.186667 180.906667zM139.946667 426.666667c17.066667 34.133333 109.226667 153.6 372.053333 153.6s354.986667-119.466667 372.053333-153.6C863.573333 395.946667 761.173333 273.066667 512 273.066667S160.426667 395.946667 139.946667 426.666667zM58.026667 1024h-6.826667c-6.826667 0-10.24-3.413333-13.653333-6.826667-3.413333-3.413333-3.413333-10.24 0-17.066666l23.893333-47.786667-47.786667-10.24c-6.826667 0-10.24-6.826667-10.24-10.24-3.413333-3.413333 0-10.24 0-17.066667 23.893333-40.96 64.853333-116.053333 64.853334-146.773333 0-10.24 6.826667-17.066667 17.066666-17.066667s17.066667 6.826667 17.066667 17.066667c0 37.546667-37.546667 109.226667-58.026667 143.36l44.373334 10.24c3.413333 0 10.24 3.413333 10.24 10.24s3.413333 10.24 0 13.653333L78.506667 989.866667c34.133333-3.413333 85.333333-10.24 112.64-34.133334 10.24-10.24 13.653333-20.48 13.653333-34.133333 0-10.24 6.826667-17.066667 17.066667-17.066667s17.066667 6.826667 17.066666 17.066667c0 23.893333-6.826667 40.96-23.893333 58.026667C170.666667 1020.586667 81.92 1024 58.026667 1024z" fill="" ></path><path d="M324.266667 477.866667c-27.306667 0-51.2-23.893333-51.2-51.2S296.96 375.466667 324.266667 375.466667s51.2 23.893333 51.2 51.2-23.893333 51.2-51.2 51.2z m0-68.266667c-10.24 0-17.066667 6.826667-17.066667 17.066667s6.826667 17.066667 17.066667 17.066666 17.066667-6.826667 17.066666-17.066666-6.826667-17.066667-17.066666-17.066667zM699.733333 477.866667c-27.306667 0-51.2-23.893333-51.2-51.2s23.893333-51.2 51.2-51.2 51.2 23.893333 51.2 51.2-23.893333 51.2-51.2 51.2z m0-68.266667c-10.24 0-17.066667 6.826667-17.066666 17.066667s6.826667 17.066667 17.066666 17.066666 17.066667-6.826667 17.066667-17.066666-6.826667-17.066667-17.066667-17.066667z" fill="" ></path></svg>