<svg version="1.1" width="100" height="100" xmlns="http://www.w3.org/2000/svg" xmlns:xlink="http://www.w3.org/1999/xlink" id="iconPirate" viewBox="0 0 1024 1024"><path d="M290.441216 494.933333C205.107883 494.933333 136.841216 433.493333 136.841216 354.986667c0-98.986667 112.64-98.986667 153.6-98.986667s153.6 0 153.6 98.986667c0 78.506667-68.266667 139.946667-153.6 139.946666z m0-204.8c-105.813333 0-119.466667 30.72-119.466667 64.853334 0 58.026667 54.613333 105.813333 119.466667 105.813333s119.466667-47.786667 119.466667-105.813333c0-34.133333-13.653333-64.853333-119.466667-64.853334z" fill="" ></path><path d="M17.374549 505.173333c-6.826667 0-10.24-3.413333-13.653333-6.826666-6.826667-10.24-3.413333-20.48 3.413333-27.306667l136.533334-95.573333c6.826667-6.826667 17.066667-3.413333 23.893333 3.413333s3.413333 17.066667-3.413333 23.893333l-136.533334 95.573334c-3.413333 3.413333-6.826667 6.826667-10.24 6.826666zM358.707883 290.133333c-3.413333 0-10.24-3.413333-13.653334-6.826666-6.826667-6.826667-3.413333-17.066667 3.413334-23.893334C358.707883 252.586667 583.987883 68.266667 751.241216 68.266667c10.24 0 17.066667 6.826667 17.066667 17.066666s-6.826667 17.066667-17.066667 17.066667c-153.6 0-378.88 180.906667-382.293333 184.32-3.413333 3.413333-6.826667 3.413333-10.24 3.413333zM631.774549 324.266667c-6.826667 0-13.653333-3.413333-17.066666-10.24-3.413333-10.24 0-17.066667 10.24-20.48l136.533333-51.2c10.24-3.413333 17.066667 0 20.48 10.24 3.413333 10.24 0 17.066667-10.24 20.48l-136.533333 51.2h-3.413334zM512.307883 887.466667c-208.213333 0-375.466667-129.706667-375.466667-290.133334 0-10.24 6.826667-17.066667 17.066667-17.066666h716.8c10.24 0 17.066667 6.826667 17.066666 17.066666 0 160.426667-167.253333 290.133333-375.466666 290.133334zM170.974549 614.4c10.24 133.12 160.426667 238.933333 341.333334 238.933333s327.68-105.813333 341.333333-238.933333H170.974549z" fill="" ></path><path d="M512.307883 1024C229.001216 1024 0.307883 795.306667 0.307883 512S229.001216 0 512.307883 0s512 228.693333 512 512-228.693333 512-512 512z m0-989.866667C249.481216 34.133333 34.441216 249.173333 34.441216 512s215.04 477.866667 477.866667 477.866667 477.866667-215.04 477.866666-477.866667S775.134549 34.133333 512.307883 34.133333z" fill="" ></path><path d="M700.041216 443.733333c-27.306667 0-51.2-23.893333-51.2-51.2s23.893333-51.2 51.2-51.2 51.2 23.893333 51.2 51.2-23.893333 51.2-51.2 51.2z m0-68.266666c-10.24 0-17.066667 6.826667-17.066667 17.066666s6.826667 17.066667 17.066667 17.066667 17.066667-6.826667 17.066667-17.066667-6.826667-17.066667-17.066667-17.066666z" fill="" ></path></svg>