<svg version="1.1" width="100" height="100" xmlns="http://www.w3.org/2000/svg" xmlns:xlink="http://www.w3.org/1999/xlink" id="iconHeadache" viewBox="0 0 1024 1024"><path d="M512 1024C228.693333 1024 0 795.306667 0 512c0-58.026667 10.24-116.053333 30.72-174.08 3.413333-6.826667 13.653333-10.24 20.48-10.24 10.24 3.413333 13.653333 13.653333 10.24 20.48-17.066667 54.613333-27.306667 109.226667-27.306667 163.84 0 262.826667 215.04 477.866667 477.866667 477.866667s477.866667-215.04 477.866667-477.866667S774.826667 34.133333 512 34.133333c-54.613333 0-109.226667 10.24-160.426667 27.306667-10.24 3.413333-17.066667 0-20.48-10.24s0-17.066667 10.24-20.48c54.613333-20.48 112.64-30.72 170.666667-30.72 283.306667 0 512 228.693333 512 512s-228.693333 512-512 512z" fill="" ></path><path d="M358.4 546.133333h-68.266667c-10.24 0-17.066667-6.826667-17.066666-17.066666s6.826667-17.066667 17.066666-17.066667h68.266667c10.24 0 17.066667 6.826667 17.066667 17.066667s-6.826667 17.066667-17.066667 17.066666zM733.866667 546.133333h-68.266667c-10.24 0-17.066667-6.826667-17.066667-17.066666s6.826667-17.066667 17.066667-17.066667h68.266667c10.24 0 17.066667 6.826667 17.066666 17.066667s-6.826667 17.066667-17.066666 17.066666zM631.466667 750.933333h-238.933334c-10.24 0-17.066667-6.826667-17.066666-17.066666s6.826667-17.066667 17.066666-17.066667h238.933334c10.24 0 17.066667 6.826667 17.066666 17.066667s-6.826667 17.066667-17.066666 17.066666zM17.066667 204.8C6.826667 204.8 0 197.973333 0 187.733333S6.826667 170.666667 17.066667 170.666667C102.4 170.666667 170.666667 102.4 170.666667 17.066667c0-10.24 6.826667-17.066667 17.066666-17.066667s17.066667 6.826667 17.066667 17.066667C204.8 119.466667 119.466667 204.8 17.066667 204.8zM426.666667 204.8C324.266667 204.8 238.933333 119.466667 238.933333 17.066667c0-10.24 6.826667-17.066667 17.066667-17.066667s17.066667 6.826667 17.066667 17.066667C273.066667 102.4 341.333333 170.666667 426.666667 170.666667c10.24 0 17.066667 6.826667 17.066666 17.066666s-6.826667 17.066667-17.066666 17.066667zM256 443.733333c-10.24 0-17.066667-6.826667-17.066667-17.066666C238.933333 324.266667 324.266667 238.933333 426.666667 238.933333c10.24 0 17.066667 6.826667 17.066666 17.066667s-6.826667 17.066667-17.066666 17.066667C341.333333 273.066667 273.066667 341.333333 273.066667 426.666667c0 10.24-6.826667 17.066667-17.066667 17.066666zM187.733333 443.733333c-10.24 0-17.066667-6.826667-17.066666-17.066666C170.666667 341.333333 102.4 273.066667 17.066667 273.066667 6.826667 273.066667 0 266.24 0 256S6.826667 238.933333 17.066667 238.933333C119.466667 238.933333 204.8 324.266667 204.8 426.666667c0 10.24-6.826667 17.066667-17.066667 17.066666z" fill="" ></path></svg>