<svg version="1.1" width="100" height="100" xmlns="http://www.w3.org/2000/svg" xmlns:xlink="http://www.w3.org/1999/xlink" id="iconFever" viewBox="0 0 1024 1024"><path d="M785.066667 682.666667c-37.546667 0-68.266667-30.72-68.266667-68.266667s30.72-68.266667 68.266667-68.266667 68.266667 30.72 68.266666 68.266667-30.72 68.266667-68.266666 68.266667z m0-102.4c-20.48 0-34.133333 13.653333-34.133334 34.133333s13.653333 34.133333 34.133334 34.133333 34.133333-13.653333 34.133333-34.133333-13.653333-34.133333-34.133333-34.133333z" fill="" ></path><path d="M529.066667 682.666667c-6.826667 0-17.066667-6.826667-17.066667-13.653334 0-10.24 3.413333-17.066667 13.653333-20.48l204.8-34.133333c10.24 0 17.066667 3.413333 20.48 13.653333s-3.413333 17.066667-13.653333 20.48l-208.213333 34.133334c3.413333 0 0 0 0 0z" fill="" ></path><path d="M512 1024C228.693333 1024 0 795.306667 0 512S228.693333 0 512 0s512 228.693333 512 512-228.693333 512-512 512z m0-989.866667C249.173333 34.133333 34.133333 249.173333 34.133333 512s215.04 477.866667 477.866667 477.866667 477.866667-215.04 477.866667-477.866667S774.826667 34.133333 512 34.133333z" fill="" ></path><path d="M699.733333 785.066667c-6.826667 0-10.24-3.413333-13.653333-6.826667-34.133333-58.026667-92.16-95.573333-157.013333-95.573333s-122.88 34.133333-157.013334 95.573333c-3.413333 6.826667-13.653333 10.24-23.893333 6.826667-6.826667-3.413333-10.24-13.653333-6.826667-23.893334 40.96-68.266667 109.226667-109.226667 184.32-109.226666s143.36 40.96 184.32 109.226666c3.413333 6.826667 3.413333 17.066667-6.826666 23.893334h-3.413334zM221.866667 341.333333c-6.826667 0-13.653333-3.413333-13.653334-10.24-6.826667-6.826667-3.413333-17.066667 6.826667-20.48l102.4-51.2c6.826667-3.413333 17.066667 0 23.893333 6.826667 3.413333 6.826667 0 17.066667-6.826666 23.893333l-102.4 51.2h-10.24zM802.133333 341.333333c-3.413333 0-6.826667 0-6.826666-3.413333l-102.4-51.2c-10.24-3.413333-13.653333-13.653333-6.826667-20.48 3.413333-6.826667 13.653333-10.24 23.893333-6.826667l102.4 51.2c6.826667 3.413333 10.24 13.653333 6.826667 23.893334-3.413333 3.413333-10.24 6.826667-17.066667 6.826666zM324.266667 443.733333c-27.306667 0-51.2-23.893333-51.2-51.2S296.96 341.333333 324.266667 341.333333s51.2 23.893333 51.2 51.2-23.893333 51.2-51.2 51.2z m0-68.266666c-10.24 0-17.066667 6.826667-17.066667 17.066666s6.826667 17.066667 17.066667 17.066667 17.066667-6.826667 17.066666-17.066667-6.826667-17.066667-17.066666-17.066666zM699.733333 443.733333c-27.306667 0-51.2-23.893333-51.2-51.2s23.893333-51.2 51.2-51.2 51.2 23.893333 51.2 51.2-23.893333 51.2-51.2 51.2z m0-68.266666c-10.24 0-17.066667 6.826667-17.066666 17.066666s6.826667 17.066667 17.066666 17.066667 17.066667-6.826667 17.066667-17.066667-6.826667-17.066667-17.066667-17.066666z" fill="" ></path></svg>