<svg version="1.1" width="100" height="100" xmlns="http://www.w3.org/2000/svg" xmlns:xlink="http://www.w3.org/1999/xlink" id="iconIn-Love" viewBox="0 0 1024 1024"><path d="M512 1024C228.693333 1024 0 795.306667 0 512S228.693333 0 512 0s512 228.693333 512 512-228.693333 512-512 512z m0-989.866667C249.173333 34.133333 34.133333 249.173333 34.133333 512s215.04 477.866667 477.866667 477.866667 477.866667-215.04 477.866667-477.866667S774.826667 34.133333 512 34.133333z" fill="" ></path><path d="M290.133333 580.266667c-3.413333 0-10.24-3.413333-13.653333-6.826667l-116.053333-133.12c-13.653333-17.066667-23.893333-40.96-23.893334-64.853333 0-51.2 30.72-92.16 71.68-102.4 23.893333-3.413333 44.373333 3.413333 64.853334 20.48 6.826667 6.826667 13.653333 13.653333 17.066666 20.48 3.413333-10.24 10.24-17.066667 17.066667-20.48 20.48-17.066667 40.96-20.48 64.853333-17.066667 40.96 6.826667 71.68 51.2 71.68 98.986667 0 27.306667-10.24 51.2-23.893333 68.266666l-116.053333 133.12c-3.413333 0-10.24 3.413333-13.653334 3.413334z m-68.266666-273.066667h-6.826667c-23.893333 6.826667-44.373333 34.133333-44.373333 64.853333 0 20.48 6.826667 34.133333 17.066666 47.786667l102.4 119.466667 102.4-119.466667c10.24-10.24 17.066667-27.306667 17.066667-44.373333 0-34.133333-20.48-61.44-44.373333-68.266667-13.653333-3.413333-27.306667 0-37.546667 10.24-13.653333 13.653333-20.48 30.72-20.48 51.2 0 10.24-6.826667 17.066667-17.066667 17.066667s-17.066667-6.826667-17.066666-17.066667c0-20.48-6.826667-37.546667-20.48-51.2-10.24-6.826667-20.48-10.24-30.72-10.24zM733.866667 580.266667c-3.413333 0-10.24-3.413333-13.653334-6.826667l-116.053333-133.12c-13.653333-17.066667-23.893333-40.96-23.893333-64.853333 0-51.2 30.72-92.16 71.68-98.986667 23.893333-3.413333 47.786667 3.413333 64.853333 17.066667 6.826667 6.826667 13.653333 13.653333 17.066667 20.48 3.413333-6.826667 10.24-13.653333 17.066666-20.48 20.48-17.066667 40.96-20.48 64.853334-17.066667 40.96 6.826667 71.68 51.2 71.68 98.986667 0 27.306667-10.24 51.2-23.893334 68.266666l-116.053333 133.12c-3.413333 0-10.24 3.413333-13.653333 3.413334z m-68.266667-273.066667h-6.826667c-23.893333 3.413333-44.373333 34.133333-44.373333 64.853333 0 20.48 6.826667 34.133333 17.066667 47.786667l102.4 119.466667 102.4-119.466667c10.24-10.24 17.066667-27.306667 17.066666-44.373333 0-34.133333-20.48-61.44-44.373333-68.266667-13.653333-3.413333-27.306667 0-37.546667 10.24-13.653333 10.24-20.48 30.72-20.48 51.2 0 10.24-6.826667 17.066667-17.066666 17.066667s-17.066667-6.826667-17.066667-17.066667c0-20.48-6.826667-37.546667-20.48-51.2-10.24-6.826667-20.48-10.24-30.72-10.24zM512 819.2c-133.12 0-238.933333-68.266667-238.933333-153.6 0-10.24 6.826667-17.066667 17.066666-17.066667s17.066667 6.826667 17.066667 17.066667c0 64.853333 92.16 119.466667 204.8 119.466667s204.8-54.613333 204.8-119.466667c0-10.24 6.826667-17.066667 17.066667-17.066667s17.066667 6.826667 17.066666 17.066667c0 85.333333-105.813333 153.6-238.933333 153.6z" fill="" ></path></svg>