<svg version="1.1" width="100" height="100" xmlns="http://www.w3.org/2000/svg" xmlns:xlink="http://www.w3.org/1999/xlink" id="iconMoney-Eye" viewBox="0 0 1024 1024"><path d="M512 1024C228.693333 1024 0 795.306667 0 512S228.693333 0 512 0s512 228.693333 512 512-228.693333 512-512 512z m0-989.866667C249.173333 34.133333 34.133333 249.173333 34.133333 512s215.04 477.866667 477.866667 477.866667 477.866667-215.04 477.866667-477.866667S774.826667 34.133333 512 34.133333z" fill="" ></path><path d="M512 819.2c-102.4 0-197.973333-54.613333-252.586667-143.36-3.413333-6.826667-3.413333-17.066667 6.826667-23.893333 6.826667-6.826667 17.066667-3.413333 20.48 3.413333C337.92 737.28 419.84 785.066667 512 785.066667s174.08-47.786667 225.28-129.706667c3.413333-6.826667 17.066667-10.24 23.893333-6.826667 6.826667 3.413333 10.24 17.066667 6.826667 23.893334C709.973333 764.586667 614.4 819.2 512 819.2zM290.133333 546.133333c-64.853333 0-116.053333-27.306667-119.466666-61.44 0-10.24 6.826667-17.066667 13.653333-20.48 10.24 0 20.48 6.826667 20.48 13.653334 3.413333 13.653333 34.133333 34.133333 85.333333 34.133333s85.333333-20.48 85.333334-34.133333c0-6.826667-6.826667-23.893333-81.92-34.133334h-10.24c-30.72-3.413333-112.64-13.653333-112.64-68.266666 0-37.546667 51.2-68.266667 119.466666-68.266667 64.853333 0 116.053333 27.306667 119.466667 61.44 0 10.24-6.826667 17.066667-13.653333 20.48-10.24 0-17.066667-6.826667-20.48-13.653333-3.413333-13.653333-34.133333-34.133333-85.333334-34.133334S204.8 361.813333 204.8 375.466667c0 6.826667 6.826667 23.893333 81.92 34.133333h10.24c30.72 3.413333 112.64 13.653333 112.64 68.266667 0 37.546667-51.2 68.266667-119.466667 68.266666z" fill="" ></path><path d="M290.133333 580.266667c-10.24 0-17.066667-6.826667-17.066666-17.066667v-273.066667c0-10.24 6.826667-17.066667 17.066666-17.066666s17.066667 6.826667 17.066667 17.066666v273.066667c0 10.24-6.826667 17.066667-17.066667 17.066667zM733.866667 546.133333c-64.853333 0-116.053333-27.306667-119.466667-61.44 0-10.24 6.826667-17.066667 13.653333-20.48 10.24 0 17.066667 6.826667 20.48 13.653334 3.413333 13.653333 34.133333 34.133333 85.333334 34.133333s85.333333-20.48 85.333333-34.133333c0-6.826667-6.826667-23.893333-81.92-34.133334h-10.24c-30.72-3.413333-112.64-13.653333-112.64-68.266666 0-37.546667 51.2-68.266667 119.466667-68.266667 64.853333 0 116.053333 27.306667 119.466666 61.44 0 10.24-6.826667 17.066667-13.653333 20.48-10.24 0-17.066667-6.826667-20.48-13.653333-3.413333-13.653333-34.133333-34.133333-85.333333-34.133334s-85.333333 20.48-85.333334 34.133334c0 6.826667 6.826667 23.893333 81.92 34.133333h10.24c30.72 3.413333 112.64 13.653333 112.64 68.266667 0 37.546667-51.2 68.266667-119.466666 68.266666z" fill="" ></path><path d="M733.866667 580.266667c-10.24 0-17.066667-6.826667-17.066667-17.066667v-273.066667c0-10.24 6.826667-17.066667 17.066667-17.066666s17.066667 6.826667 17.066666 17.066666v273.066667c0 10.24-6.826667 17.066667-17.066666 17.066667z" fill="" ></path></svg>