<svg version="1.1" width="100" height="100" xmlns="http://www.w3.org/2000/svg" xmlns:xlink="http://www.w3.org/1999/xlink" id="iconDevil" viewBox="0 0 1024 1024"><path d="M512 1024C228.693333 1024 0 795.306667 0 512c0-85.333333 20.48-170.666667 64.853333-249.173333C20.48 187.733333 0 102.4 0 17.066667 0 6.826667 6.826667 0 17.066667 0s17.066667 6.826667 17.066666 17.066667C34.133333 61.44 81.92 102.4 163.84 136.533333 259.413333 47.786667 382.293333 0 512 0s252.586667 47.786667 348.16 136.533333C942.08 102.4 989.866667 61.44 989.866667 17.066667c0-10.24 6.826667-17.066667 17.066666-17.066667s17.066667 6.826667 17.066667 17.066667c0 85.333333-20.48 170.666667-64.853333 249.173333C1003.52 341.333333 1024 426.666667 1024 512c0 283.306667-228.693333 512-512 512zM40.96 102.4c10.24 54.613333 27.306667 105.813333 58.026667 153.6 3.413333 6.826667 3.413333 10.24 0 17.066667C58.026667 344.746667 34.133333 430.08 34.133333 512c0 262.826667 215.04 477.866667 477.866667 477.866667s477.866667-215.04 477.866667-477.866667c0-81.92-23.893333-167.253333-64.853334-238.933333-3.413333-6.826667-3.413333-10.24 0-17.066667 27.306667-47.786667 47.786667-98.986667 58.026667-153.6-27.306667 27.306667-68.266667 51.2-119.466667 68.266667-6.826667 3.413333-13.653333 0-17.066666-3.413334C754.346667 81.92 634.88 34.133333 512 34.133333S269.653333 81.92 180.906667 167.253333c-6.826667 6.826667-13.653333 6.826667-17.066667 3.413334C109.226667 153.6 68.266667 129.706667 40.96 102.4z" fill="" ></path><path d="M392.533333 324.266667h-6.826666L249.173333 273.066667c-6.826667-3.413333-13.653333-13.653333-10.24-23.893334 3.413333-6.826667 13.653333-13.653333 23.893334-10.24l136.533333 51.2c10.24 3.413333 13.653333 13.653333 10.24 20.48-3.413333 10.24-10.24 13.653333-17.066667 13.653334zM631.466667 324.266667c-6.826667 0-13.653333-3.413333-17.066667-10.24-3.413333-10.24 0-17.066667 10.24-20.48l136.533333-51.2c10.24-3.413333 17.066667 0 20.48 10.24 3.413333 10.24 0 17.066667-10.24 20.48l-136.533333 51.2h-3.413333zM512 887.466667c-208.213333 0-375.466667-129.706667-375.466667-290.133334 0-10.24 6.826667-17.066667 17.066667-17.066666h716.8c10.24 0 17.066667 6.826667 17.066667 17.066666 0 160.426667-167.253333 290.133333-375.466667 290.133334zM170.666667 614.4c10.24 133.12 160.426667 238.933333 341.333333 238.933333s327.68-105.813333 341.333333-238.933333H170.666667zM324.266667 409.6c-27.306667 0-51.2-23.893333-51.2-51.2S296.96 307.2 324.266667 307.2s51.2 23.893333 51.2 51.2-23.893333 51.2-51.2 51.2z m0-68.266667c-10.24 0-17.066667 6.826667-17.066667 17.066667s6.826667 17.066667 17.066667 17.066667 17.066667-6.826667 17.066666-17.066667-6.826667-17.066667-17.066666-17.066667zM699.733333 409.6c-27.306667 0-51.2-23.893333-51.2-51.2S672.426667 307.2 699.733333 307.2s51.2 23.893333 51.2 51.2-23.893333 51.2-51.2 51.2z m0-68.266667c-10.24 0-17.066667 6.826667-17.066666 17.066667s6.826667 17.066667 17.066666 17.066667 17.066667-6.826667 17.066667-17.066667-6.826667-17.066667-17.066667-17.066667z" fill="" ></path></svg>