<svg version="1.1" width="100" height="100" xmlns="http://www.w3.org/2000/svg" xmlns:xlink="http://www.w3.org/1999/xlink" id="iconVomiting" viewBox="0 0 1024 1024"><path d="M358.4 443.733333h-136.533333c-10.24 0-17.066667-6.826667-17.066667-17.066666s6.826667-17.066667 17.066667-17.066667h136.533333c10.24 0 17.066667 6.826667 17.066667 17.066667s-6.826667 17.066667-17.066667 17.066666zM802.133333 443.733333h-136.533333c-10.24 0-17.066667-6.826667-17.066667-17.066666s6.826667-17.066667 17.066667-17.066667h136.533333c10.24 0 17.066667 6.826667 17.066667 17.066667s-6.826667 17.066667-17.066667 17.066666z" fill="" ></path><path d="M768 952.32c-6.826667 0-10.24-3.413333-13.653333-6.826667-3.413333-6.826667-3.413333-17.066667 6.826666-23.893333 143.36-88.746667 232.106667-238.933333 232.106667-409.6 0-262.826667-215.04-477.866667-477.866667-477.866667S34.133333 249.173333 34.133333 512c0 167.253333 85.333333 320.853333 232.106667 409.6 6.826667 3.413333 10.24 17.066667 6.826667 23.893333-3.413333 6.826667-17.066667 10.24-23.893334 6.826667C92.16 856.746667 0 692.906667 0 512 0 228.693333 228.693333 0 512 0s512 228.693333 512 512c0 180.906667-92.16 344.746667-245.76 436.906667-3.413333 3.413333-6.826667 3.413333-10.24 3.413333z" fill="" ></path><path d="M706.56 1024H317.44c-61.44 0-92.16-6.826667-105.813333-20.48-6.826667-10.24-6.826667-23.893333-6.826667-30.72 3.413333-34.133333 40.96-51.2 102.4-51.2 3.413333-3.413333 6.826667-20.48-3.413333-54.613333-10.24-34.133333-27.306667-47.786667-30.72-47.786667-6.826667 0-10.24-3.413333-13.653334-6.826667-3.413333-3.413333-3.413333-10.24 0-17.066666C262.826667 785.066667 303.786667 716.8 512 716.8s249.173333 68.266667 252.586667 78.506667c3.413333 6.826667 3.413333 10.24 0 17.066666-3.413333 3.413333-6.826667 6.826667-13.653334 6.826667-3.413333 0-20.48 13.653333-30.72 47.786667-10.24 30.72-6.826667 51.2-3.413333 54.613333 61.44 0 102.4 17.066667 102.4 51.2 0 10.24 0 20.48-10.24 30.72-13.653333 13.653333-40.96 20.48-102.4 20.48zM300.373333 798.72c27.306667 23.893333 44.373333 78.506667 44.373334 109.226667 0 13.653333-3.413333 23.893333-6.826667 30.72-6.826667 10.24-17.066667 17.066667-30.72 17.066666-47.786667 0-68.266667 13.653333-68.266667 17.066667v6.826667s10.24 10.24 78.506667 10.24h385.706667c68.266667 0 78.506667-6.826667 78.506666-10.24v-6.826667c0-6.826667-20.48-17.066667-68.266666-17.066667-13.653333 0-23.893333-6.826667-30.72-17.066666-3.413333-6.826667-6.826667-20.48-6.826667-30.72 0-30.72 17.066667-85.333333 44.373333-109.226667-20.48-20.48-78.506667-47.786667-208.213333-47.786667s-187.733333 27.306667-211.626667 47.786667z" fill="" ></path><path d="M750.933333 819.2c-10.24 0-17.066667-6.826667-17.066666-17.066667 0-85.333333-98.986667-153.6-221.866667-153.6s-221.866667 68.266667-221.866667 153.6c0 10.24-6.826667 17.066667-17.066666 17.066667s-17.066667-6.826667-17.066667-17.066667c0-102.4 116.053333-187.733333 256-187.733333s256 85.333333 256 187.733333c0 10.24-6.826667 17.066667-17.066667 17.066667z" fill="" ></path><path d="M460.8 955.733333c-10.24 0-17.066667-6.826667-17.066667-17.066666 0-23.893333-37.546667-112.64-47.786666-122.88-6.826667-6.826667-6.826667-17.066667 0-23.893334 6.826667-6.826667 17.066667-6.826667 23.893333 0 17.066667 17.066667 54.613333 119.466667 54.613333 150.186667 3.413333 6.826667-3.413333 13.653333-13.653333 13.653333z" fill="" ></path><path d="M563.2 955.733333c-10.24 0-17.066667-6.826667-17.066667-17.066666 0-30.72 37.546667-129.706667 54.613334-150.186667 6.826667-6.826667 17.066667-6.826667 23.893333 0 6.826667 6.826667 6.826667 17.066667 0 23.893333-10.24 10.24-47.786667 102.4-47.786667 122.88 3.413333 13.653333-3.413333 20.48-13.653333 20.48z" fill="" ></path></svg>