<svg version="1.1" width="100" height="100" xmlns="http://www.w3.org/2000/svg" xmlns:xlink="http://www.w3.org/1999/xlink" id="iconKarate" viewBox="0 0 1025 1024"><path d="M509.953784 1017.218543C228.52332 1017.218543 1.344512 790.039735 1.344512 508.609272S228.52332 0 509.953784 0s508.609272 227.178808 508.609271 508.609272-227.178808 508.609272-508.609271 508.609271z m0-983.311258C248.867691 33.907285 35.251797 247.523179 35.251797 508.609272s213.615894 474.701987 474.701987 474.701986 474.701987-213.615894 474.701986-474.701986S771.039876 33.907285 509.953784 33.907285z" fill="" ></path><path d="M957.529942 332.291391c-3.390728 0-10.172185-3.390728-13.562913-6.781457 0 0-118.675497-122.066225-437.403974-122.066225S75.940538 325.509934 72.54981 328.900662c-6.781457 6.781457-16.953642 6.781457-23.735099 0-6.781457-6.781457-6.781457-16.953642 0-23.735099 3.390728-6.781457 128.847682-135.629139 461.139073-135.629139s457.748344 128.847682 461.139072 135.629139c6.781457 6.781457 6.781457 16.953642 0 23.735099-3.390728 3.390728-6.781457 3.390728-13.562914 3.390729z" fill="" ></path><path d="M994.827956 467.92053c-3.390728 0-6.781457 0-10.172186-3.390729 0 0-152.582781-125.456954-478.092715-125.456953S31.861068 461.139073 28.47034 464.529801c-6.781457 6.781457-16.953642 3.390728-23.7351-3.390728-6.781457-6.781457-6.781457-16.953642 3.390729-23.735099C14.907426 430.622517 167.490207 305.165563 506.563055 305.165563s491.655629 125.456954 498.437086 132.238411c6.781457 6.781457 6.781457 16.953642 3.390729 23.735099-6.781457 3.390728-10.172185 6.781457-13.562914 6.781457zM984.65577 1017.218543c-3.390728 0-10.172185-3.390728-13.562914-3.390728l-23.735099-23.7351-40.688742 27.125828c-6.781457 3.390728-13.562914 3.390728-20.344371 0-6.781457-3.390728-10.172185-10.172185-6.781457-16.953642 10.172185-54.251656 13.562914-135.629139-10.172185-152.582782-6.781457-6.781457-10.172185-16.953642-3.390728-23.735099s16.953642-10.172185 23.735099-3.390729c33.907285 27.125828 33.907285 101.721854 27.125828 149.192053l20.344371-13.562914c6.781457-3.390728 16.953642-3.390728 20.34437 3.390729l10.172186 10.172185c10.172185-74.596026 20.344371-210.225166-20.344371-257.695364-6.781457-6.781457-3.390728-16.953642 3.390729-23.735099 6.781457-6.781457 16.953642-3.390728 23.735099 3.390728 64.423841 81.377483 23.735099 308.556291 20.344371 318.728477 0 6.781457-6.781457 10.172185-10.172186 13.562914 3.390728-6.781457 0-6.781457 0-6.781457z" fill="" ></path><path d="M391.278287 389.933775h-6.781457l-135.629139-50.860927c-6.781457-3.390728-13.562914-13.562914-10.172186-23.7351 3.390728-6.781457 13.562914-13.562914 23.7351-10.172185l135.629139 50.860927c10.172185 3.390728 13.562914 13.562914 10.172185 20.344371-3.390728 10.172185-10.172185 13.562914-16.953642 13.562914zM628.62928 389.933775c-6.781457 0-13.562914-3.390728-16.953642-10.172186-3.390728-10.172185 0-16.953642 10.172185-20.34437l135.629139-50.860928c10.172185-3.390728 16.953642 0 20.344371 10.172186 3.390728 10.172185 0 16.953642-10.172185 20.344371l-135.629139 50.860927h-3.390729zM323.463717 474.701987c-27.125828 0-50.860927-23.735099-50.860927-50.860927S296.337889 372.980132 323.463717 372.980132s50.860927 23.735099 50.860927 50.860928-23.735099 50.860927-50.860927 50.860927z m0-67.81457c-10.172185 0-16.953642 6.781457-16.953642 16.953643s6.781457 16.953642 16.953642 16.953642 16.953642-6.781457 16.953643-16.953642-6.781457-16.953642-16.953643-16.953643zM696.44385 474.701987c-27.125828 0-50.860927-23.735099-50.860927-50.860927s23.735099-50.860927 50.860927-50.860928 50.860927 23.735099 50.860927 50.860928-23.735099 50.860927-50.860927 50.860927z m0-67.81457c-10.172185 0-16.953642 6.781457-16.953643 16.953643s6.781457 16.953642 16.953643 16.953642 16.953642-6.781457 16.953642-16.953642-6.781457-16.953642-16.953642-16.953643zM798.165704 813.774834h-576.423841c-10.172185 0-16.953642-6.781457-16.953642-16.953642 0-122.066225 135.629139-220.397351 305.165563-220.397351s305.165563 98.331126 305.165562 220.397351c0 10.172185-6.781457 16.953642-16.953642 16.953642zM238.695505 779.86755h542.516557c-13.562914-94.940397-128.847682-169.536424-271.258278-169.536424s-257.695364 74.596026-271.258279 169.536424z" fill="" ></path></svg>