<svg version="1.1" width="100" height="100" xmlns="http://www.w3.org/2000/svg" xmlns:xlink="http://www.w3.org/1999/xlink" id="iconNird" viewBox="0 0 1024 1024"><path d="M512 1024C228.693333 1024 0 795.306667 0 512S228.693333 0 512 0s512 228.693333 512 512-228.693333 512-512 512z m0-989.866667C249.173333 34.133333 34.133333 249.173333 34.133333 512s215.04 477.866667 477.866667 477.866667 477.866667-215.04 477.866667-477.866667S774.826667 34.133333 512 34.133333z" fill="" ></path><path d="M512 785.066667c-116.053333 0-201.386667-37.546667-249.173333-112.64-3.413333-6.826667-3.413333-17.066667 6.826666-23.893334 6.826667-6.826667 17.066667-3.413333 23.893334 6.826667C331.093333 716.8 406.186667 750.933333 512 750.933333s180.906667-34.133333 221.866667-98.986666c3.413333-6.826667 17.066667-10.24 23.893333-6.826667 6.826667 3.413333 10.24 17.066667 6.826667 23.893333-51.2 78.506667-136.533333 116.053333-252.586667 116.053334zM563.2 443.733333c-10.24 0-17.066667-6.826667-17.066667-17.066666s0-17.066667-34.133333-17.066667-34.133333 6.826667-34.133333 17.066667-6.826667 17.066667-17.066667 17.066666-17.066667-6.826667-17.066667-17.066666c0-37.546667 20.48-51.2 68.266667-51.2s68.266667 13.653333 68.266667 51.2c0 10.24-6.826667 17.066667-17.066667 17.066666z" fill="" ></path><path d="M733.866667 580.266667c-102.4 0-187.733333-85.333333-187.733334-187.733334S631.466667 204.8 733.866667 204.8 921.6 290.133333 921.6 392.533333 836.266667 580.266667 733.866667 580.266667z m0-341.333334C648.533333 238.933333 580.266667 307.2 580.266667 392.533333s68.266667 153.6 153.6 153.6 153.6-68.266667 153.6-153.6S819.2 238.933333 733.866667 238.933333zM494.933333 853.333333h-102.4c-10.24 0-17.066667-6.826667-17.066666-17.066666V750.933333c0-10.24 6.826667-17.066667 17.066666-17.066666s17.066667 6.826667 17.066667 17.066666v68.266667h68.266667v-51.2c0-10.24 6.826667-17.066667 17.066666-17.066667s17.066667 6.826667 17.066667 17.066667v68.266667c0 10.24-6.826667 17.066667-17.066667 17.066666zM290.133333 580.266667c-102.4 0-187.733333-85.333333-187.733333-187.733334S187.733333 204.8 290.133333 204.8 477.866667 290.133333 477.866667 392.533333 392.533333 580.266667 290.133333 580.266667z m0-341.333334C204.8 238.933333 136.533333 307.2 136.533333 392.533333S204.8 546.133333 290.133333 546.133333s153.6-68.266667 153.6-153.6S375.466667 238.933333 290.133333 238.933333z" fill="" ></path><path d="M733.866667 443.733333c-27.306667 0-51.2-23.893333-51.2-51.2s23.893333-51.2 51.2-51.2 51.2 23.893333 51.2 51.2-23.893333 51.2-51.2 51.2z m0-68.266666c-10.24 0-17.066667 6.826667-17.066667 17.066666s6.826667 17.066667 17.066667 17.066667 17.066667-6.826667 17.066666-17.066667-6.826667-17.066667-17.066666-17.066666z" fill="" ></path><path d="M290.133333 443.733333c-27.306667 0-51.2-23.893333-51.2-51.2S262.826667 341.333333 290.133333 341.333333s51.2 23.893333 51.2 51.2S317.44 443.733333 290.133333 443.733333z m0-68.266666c-10.24 0-17.066667 6.826667-17.066666 17.066666s6.826667 17.066667 17.066666 17.066667 17.066667-6.826667 17.066667-17.066667-6.826667-17.066667-17.066667-17.066666z" fill="" ></path></svg>