<svg version="1.1" width="100" height="100" xmlns="http://www.w3.org/2000/svg" xmlns:xlink="http://www.w3.org/1999/xlink" id="iconWierd-1" viewBox="0 0 1024 1024"><path d="M512 1024C228.693333 1024 0 795.306667 0 512S228.693333 0 512 0s512 228.693333 512 512-228.693333 512-512 512z m0-989.866667C249.173333 34.133333 34.133333 249.173333 34.133333 512s215.04 477.866667 477.866667 477.866667 477.866667-215.04 477.866667-477.866667S774.826667 34.133333 512 34.133333z" fill="" ></path><path d="M665.6 716.8h-307.2c-10.24 0-17.066667-6.826667-17.066667-17.066667s6.826667-17.066667 17.066667-17.066666h307.2c10.24 0 17.066667 6.826667 17.066667 17.066666s-6.826667 17.066667-17.066667 17.066667zM324.266667 477.866667C259.413333 477.866667 204.8 423.253333 204.8 358.4S259.413333 238.933333 324.266667 238.933333 443.733333 293.546667 443.733333 358.4 389.12 477.866667 324.266667 477.866667z m0-204.8C276.48 273.066667 238.933333 310.613333 238.933333 358.4S276.48 443.733333 324.266667 443.733333s85.333333-37.546667 85.333333-85.333333S372.053333 273.066667 324.266667 273.066667zM699.733333 409.6c-27.306667 0-51.2-23.893333-51.2-51.2S672.426667 307.2 699.733333 307.2s51.2 23.893333 51.2 51.2-23.893333 51.2-51.2 51.2z m0-68.266667c-10.24 0-17.066667 6.826667-17.066666 17.066667s6.826667 17.066667 17.066666 17.066667 17.066667-6.826667 17.066667-17.066667-6.826667-17.066667-17.066667-17.066667z" fill="" ></path></svg>