<svg version="1.1" width="100" height="100" xmlns="http://www.w3.org/2000/svg" xmlns:xlink="http://www.w3.org/1999/xlink" id="iconWow" viewBox="0 0 1024 1024"><path d="M512 1024C228.693333 1024 0 795.306667 0 512S228.693333 0 512 0s512 228.693333 512 512-228.693333 512-512 512z m0-989.866667C249.173333 34.133333 34.133333 249.173333 34.133333 512s215.04 477.866667 477.866667 477.866667 477.866667-215.04 477.866667-477.866667S774.826667 34.133333 512 34.133333z" fill="" ></path><path d="M307.2 443.733333c-58.026667 0-102.4-44.373333-102.4-102.4s44.373333-102.4 102.4-102.4 102.4 44.373333 102.4 102.4-44.373333 102.4-102.4 102.4z m0-170.666666c-37.546667 0-68.266667 30.72-68.266667 68.266666s30.72 68.266667 68.266667 68.266667 68.266667-30.72 68.266667-68.266667-30.72-68.266667-68.266667-68.266666zM716.8 443.733333c-58.026667 0-102.4-44.373333-102.4-102.4s44.373333-102.4 102.4-102.4 102.4 44.373333 102.4 102.4-44.373333 102.4-102.4 102.4z m0-170.666666c-37.546667 0-68.266667 30.72-68.266667 68.266666s30.72 68.266667 68.266667 68.266667 68.266667-30.72 68.266667-68.266667-30.72-68.266667-68.266667-68.266666zM512 921.6c-133.12 0-238.933333-102.4-238.933333-228.693333C273.066667 580.266667 361.813333 512 512 512s238.933333 68.266667 238.933333 180.906667c0 126.293333-105.813333 228.693333-238.933333 228.693333z m0-375.466667c-61.44 0-204.8 13.653333-204.8 146.773334 0 105.813333 92.16 194.56 204.8 194.56s204.8-88.746667 204.8-194.56c0-133.12-143.36-146.773333-204.8-146.773334z" fill="" ></path></svg>