<?xml version="1.0" standalone="no"?><!DOCTYPE svg PUBLIC "-//W3C//DTD SVG 1.1//EN" "http://www.w3.org/Graphics/SVG/1.1/DTD/svg11.dtd"><svg t="1603336708416" class="icon" viewBox="0 0 1024 1024" version="1.1" xmlns="http://www.w3.org/2000/svg" p-id="7112" xmlns:xlink="http://www.w3.org/1999/xlink" width="200" height="200"><defs><style type="text/css"></style></defs><path d="M226.5 548.2c-20 0-36.2-16.2-36.2-36.2v-4.2c0-20 16.2-36.2 36.2-36.2s36.2 16.2 36.2 36.2v4.2c0 20-16.2 36.2-36.2 36.2z" fill="#2c2c2c" p-id="7113"></path><path d="M226.5 925.4c-6.2 0-12.4-1.6-18-4.8-11.3-6.4-18.2-18.4-18.2-31.4V613.1c0-20 16.2-36.2 36.2-36.2s36.2 16.2 36.2 36.2V826l535-314-535-314v189.4c0 20-16.2 36.2-36.2 36.2s-36.2-16.2-36.2-36.2V134.8c0-13 7-25 18.2-31.4 11.3-6.4 25.1-6.4 36.3 0.2l642.8 377.2c11.1 6.5 17.9 18.4 17.9 31.2s-6.8 24.7-17.9 31.2L244.8 920.4c-5.6 3.4-11.9 5-18.3 5z" fill="#2c2c2c" p-id="7114"></path></svg>