<?xml version="1.0" standalone="no"?><!DOCTYPE svg PUBLIC "-//W3C//DTD SVG 1.1//EN" "http://www.w3.org/Graphics/SVG/1.1/DTD/svg11.dtd"><svg t="1603359678871" class="icon" viewBox="0 0 1443 1024" version="1.1" xmlns="http://www.w3.org/2000/svg" p-id="21827" xmlns:xlink="http://www.w3.org/1999/xlink" width="281.8359375" height="200"><defs><style type="text/css"></style></defs><path d="M527.941516 514.728322L464.175453 450.962258l193.598097-193.598097-193.598097-193.598098L527.941516 0l257.364161 257.364161z" fill="#2c2c2c" p-id="21828"></path><path d="M225.481129 212.267935h496.058484v90.192452H225.481129z" fill="#2c2c2c" p-id="21829"></path><path d="M1217.598098 1024H225.481129c-124.330295 0-225.481129-101.150835-225.481129-225.481129v-360.769807c0-124.330295 101.150835-225.481129 225.481129-225.481129v90.192452c-74.589158 0-135.288678 60.69952-135.288677 135.288677v360.769807c0 74.589158 60.69952 135.288678 135.288677 135.288677h992.116969c74.589158 0 135.288678-60.69952 135.288677-135.288677v-360.769807c0-74.589158-60.69952-135.288678-135.288677-135.288677h-315.673581v-90.192452h315.673581c124.330295 0 225.481129 101.150835 225.481129 225.481129v360.769807c0 124.330295-101.150835 225.481129-225.481129 225.481129z" fill="#2c2c2c" p-id="21830"></path></svg>