<?xml version="1.0" encoding="utf-8"?>
<svg width="58px" height="14px" viewBox="0 0 58 14" version="1.1" xmlns:xlink="http://www.w3.org/1999/xlink" xmlns="http://www.w3.org/2000/svg">
  <desc>Created with Lunacy</desc>
  <defs>
    <path d="M1.77664 4.27711L2.20609 4.27711C2.73163 4.27711 3.10519 4.16534 3.32678 3.94179C3.54837 3.71824 3.65917 3.33585 3.65917 2.79462C3.65917 2.273 3.56308 1.89944 3.37091 1.67393C3.17873 1.44841 2.82576 1.33566 2.31198 1.33566L1.77664 1.33566L1.77664 4.27711ZM0 9.86587L0 0.112015L2.2355 0.112015C2.74928 0.112015 3.19049 0.154175 3.55916 0.238497C3.92782 0.322819 4.24844 0.464008 4.52101 0.662066C4.79359 0.860125 4.99753 1.12878 5.13284 1.46803C5.26814 1.80727 5.3358 2.22201 5.3358 2.71226C5.3358 3.32409 5.24461 3.82413 5.06224 4.2124C4.87987 4.60067 4.57886 4.88305 4.15921 5.05954L5.51228 9.86587L3.72976 9.86587L2.56495 5.41251L1.77664 5.41251L1.77664 9.86587L0 9.86587ZM9.33617 9.98353C8.33215 9.98353 7.61248 9.71096 7.17715 9.16581C6.74181 8.62066 6.52414 7.82255 6.52414 6.77147L6.52414 3.17113C6.52414 2.65343 6.57317 2.20437 6.67122 1.82394C6.76926 1.44351 6.92712 1.11407 7.14479 0.835612C7.36246 0.557152 7.65366 0.348312 8.0184 0.209082C8.38314 0.0698529 8.8224 0.000240197 9.33617 0.000240197C10.3363 0.000240197 11.055 0.268889 11.4923 0.806197C11.9296 1.34351 12.1482 2.13181 12.1482 3.17113L12.1482 6.77147C12.1482 7.28132 12.0982 7.7294 11.9982 8.11571C11.8982 8.50202 11.7393 8.83734 11.5217 9.12169C11.304 9.40603 11.0128 9.62075 10.6481 9.76586C10.2833 9.91098 9.84603 9.98353 9.33617 9.98353ZM8.88907 8.58928C9.01458 8.64027 9.16361 8.66576 9.33617 8.66576C9.50874 8.66576 9.65581 8.64027 9.77739 8.58928C9.89897 8.5383 9.99604 8.47163 10.0686 8.38926C10.1412 8.3069 10.198 8.19905 10.2392 8.06571C10.2804 7.93236 10.3078 7.79901 10.3216 7.66567C10.3353 7.53232 10.3421 7.37348 10.3421 7.18915L10.3421 2.75932C10.3421 2.524 10.3304 2.32791 10.3069 2.17103C10.2833 2.01415 10.2372 1.8661 10.1686 1.72687C10.1 1.58764 9.99702 1.48371 9.85975 1.41508C9.72248 1.34644 9.54796 1.31213 9.33617 1.31213C9.12439 1.31213 8.94888 1.34644 8.80965 1.41508C8.67042 1.48371 8.56747 1.58764 8.5008 1.72687C8.43413 1.8661 8.38903 2.01415 8.36549 2.17103C8.34196 2.32791 8.3302 2.524 8.3302 2.75932L8.3302 7.18915C8.3302 7.37348 8.33706 7.53232 8.35079 7.66567C8.36451 7.79901 8.39197 7.93236 8.43315 8.06571C8.47433 8.19905 8.53021 8.3069 8.60081 8.38926C8.6714 8.47163 8.76749 8.5383 8.88907 8.58928ZM14.4014 9.86587L14.4014 1.4239L12.7659 1.4239L12.7659 0.112015L17.7605 0.112015L17.7605 1.4239L16.178 1.4239L16.178 9.86587L14.4014 9.86587ZM20.3137 4.27711L20.7431 4.27711C21.2687 4.27711 21.6422 4.16534 21.8638 3.94179C22.0854 3.71824 22.1962 3.33585 22.1962 2.79462C22.1962 2.273 22.1001 1.89944 21.908 1.67393C21.7158 1.44841 21.3628 1.33566 20.849 1.33566L20.3137 1.33566L20.3137 4.27711ZM18.537 9.86587L18.537 0.112015L20.7725 0.112015C21.2863 0.112015 21.7275 0.154175 22.0962 0.238497C22.4649 0.322819 22.7855 0.464008 23.0581 0.662066C23.3306 0.860125 23.5346 1.12878 23.6699 1.46803C23.8052 1.80727 23.8728 2.22201 23.8728 2.71226C23.8728 3.32409 23.7817 3.82413 23.5993 4.2124C23.4169 4.60067 23.1159 4.88305 22.6962 5.05954L24.0493 9.86587L22.2668 9.86587L21.102 5.41251L20.3137 5.41251L20.3137 9.86587L18.537 9.86587ZM25.273 9.86587L25.273 0.112015L27.0261 0.112015L27.0261 9.86587L25.273 9.86587ZM31.1441 9.98353C30.7245 9.98353 30.3538 9.93059 30.0322 9.82469C29.7106 9.7188 29.4449 9.57173 29.2351 9.38348C29.0253 9.19522 28.8547 8.96187 28.7233 8.68341C28.5919 8.40495 28.4997 8.10591 28.4468 7.78627C28.3939 7.46663 28.3674 7.10679 28.3674 6.70675L28.3674 3.30643C28.3674 2.88286 28.3948 2.50734 28.4497 2.17986C28.5046 1.85237 28.5968 1.54843 28.7262 1.26801C28.8557 0.987586 29.0253 0.757175 29.2351 0.576763C29.4449 0.396354 29.7097 0.255166 30.0293 0.153195C30.3489 0.0512247 30.7205 0.000240197 31.1441 0.000240197C31.6304 0.000240197 32.0461 0.064951 32.3913 0.194374C32.7364 0.3238 33.009 0.514011 33.209 0.765016C33.409 1.01602 33.5541 1.30919 33.6443 1.64451C33.7345 1.97984 33.7797 2.37105 33.7797 2.81815L33.7797 3.65352L32.0677 3.65352L32.0677 2.82404C32.0677 2.33771 32.0422 2.01023 31.9912 1.84159C31.8893 1.51215 31.6402 1.33566 31.2441 1.31213L31.15 1.31213C31.001 1.31213 30.8706 1.32978 30.7588 1.36507C30.647 1.40037 30.5558 1.45626 30.4852 1.53274C30.4146 1.60921 30.3578 1.69059 30.3146 1.77688C30.2715 1.86316 30.2391 1.97591 30.2176 2.11514C30.196 2.25437 30.1823 2.38282 30.1764 2.50047C30.1705 2.61813 30.1675 2.76717 30.1675 2.94758L30.1675 7.07738C30.1675 7.64998 30.2391 8.05786 30.3823 8.30102C30.5254 8.54418 30.7813 8.66576 31.15 8.66576C31.2755 8.66576 31.3863 8.65105 31.4824 8.62164C31.5785 8.59223 31.6589 8.55497 31.7236 8.50986C31.7883 8.46476 31.8432 8.40005 31.8883 8.31573C31.9334 8.23141 31.9677 8.15297 31.9912 8.08041C32.0148 8.00785 32.0324 7.90687 32.0442 7.77744C32.056 7.64802 32.0628 7.5382 32.0648 7.448C32.0667 7.35779 32.0677 7.23425 32.0677 7.07738L32.0677 6.20671L33.7797 6.20671L33.7797 7.00678C33.7797 7.37152 33.7542 7.699 33.7032 7.98923C33.6522 8.27945 33.5649 8.55202 33.4414 8.80695C33.3178 9.06188 33.158 9.27366 32.9619 9.4423C32.7658 9.61095 32.5148 9.74331 32.2089 9.8394C31.903 9.93549 31.5481 9.98353 31.1441 9.98353ZM37.4682 9.98353C35.7504 9.98353 34.8484 8.99129 34.7621 7.00678L36.3093 6.68322C36.3485 7.97355 36.7172 8.6187 37.4153 8.6187C37.6859 8.6187 37.8869 8.53634 38.0183 8.37162C38.1497 8.20689 38.2154 7.98531 38.2154 7.70685C38.2154 7.43623 38.1663 7.18817 38.0683 6.96266C37.9702 6.73715 37.8565 6.55282 37.7271 6.40967C37.5977 6.26651 37.4133 6.08905 37.1741 5.87726L35.8916 4.76539C35.5151 4.43595 35.2347 4.09376 35.0504 3.73883C34.866 3.38389 34.7739 2.93973 34.7739 2.40635C34.7739 1.64941 34.9964 1.06112 35.4416 0.641476C35.8867 0.221827 36.4976 0.00808357 37.2741 0.000240197C37.631 -0.00368235 37.9467 0.0404381 38.2212 0.132605C38.4958 0.22477 38.7223 0.348311 38.9007 0.503228C39.0792 0.658146 39.2282 0.851299 39.3478 1.08269C39.4674 1.31409 39.5567 1.55431 39.6155 1.80335C39.6743 2.0524 39.7155 2.32987 39.739 2.63578L38.2212 2.93581C38.2134 2.73971 38.2007 2.56911 38.183 2.424C38.1654 2.27888 38.135 2.13181 38.0918 1.98278C38.0487 1.83374 37.9928 1.71315 37.9242 1.62098C37.8555 1.52881 37.7634 1.45528 37.6477 1.40037C37.532 1.34546 37.3976 1.32389 37.2447 1.33566C36.9819 1.35135 36.7809 1.43861 36.6417 1.59745C36.5025 1.75629 36.4328 1.96905 36.4328 2.23574C36.4328 2.5495 36.4946 2.80737 36.6182 3.00935C36.7417 3.21133 36.9349 3.42801 37.1976 3.65941L38.4683 4.76539C38.6801 4.95757 38.8644 5.14386 39.0213 5.32427C39.1782 5.50468 39.3282 5.71058 39.4714 5.94198C39.6145 6.17337 39.7233 6.42829 39.7979 6.70675C39.8724 6.98521 39.9096 7.27935 39.9096 7.58919C39.9096 8.29906 39.6851 8.87558 39.236 9.31876C38.787 9.76194 38.1977 9.98353 37.4682 9.98353Z" id="path_1" />
    <path d="M8.52876 14L7.22213 11.7934C6.96571 11.3604 6.96571 10.827 7.22213 10.3939L9.21681 7.02542L9.83704 5.97782C9.90002 5.87145 9.93317 5.75081 9.93317 5.628C9.93317 5.2414 9.61157 4.928 9.21486 4.928L0 4.928L0 2.8C0 1.2536 1.28639 0 2.87324 0L11.493 0C13.0798 0 14.3662 1.2536 14.3662 2.8L14.3662 11.2C14.3662 12.7464 13.0798 14 11.493 14L8.52876 14ZM5.85446 14L2.87324 14C1.28639 14 0 12.7464 0 11.2L0 7.02542L6.04497 7.02542C6.09538 7.02542 6.14491 7.03835 6.18858 7.06291C6.32602 7.1402 6.37314 7.31143 6.29383 7.44537L4.54783 10.3939C4.29141 10.827 4.29141 11.3604 4.54783 11.7934L5.85446 14Z" id="path_2" />
    <clipPath id="mask_1">
      <use xlink:href="#path_1" />
    </clipPath>
    <clipPath id="mask_2">
      <use xlink:href="#path_2" />
    </clipPath>
  </defs>
  <g id="Group">
    <g id="ROTRICS" transform="translate(18 2)">
      <path d="M1.77664 4.27711L2.20609 4.27711C2.73163 4.27711 3.10519 4.16534 3.32678 3.94179C3.54837 3.71824 3.65917 3.33585 3.65917 2.79462C3.65917 2.273 3.56308 1.89944 3.37091 1.67393C3.17873 1.44841 2.82576 1.33566 2.31198 1.33566L1.77664 1.33566L1.77664 4.27711ZM0 9.86587L0 0.112015L2.2355 0.112015C2.74928 0.112015 3.19049 0.154175 3.55916 0.238497C3.92782 0.322819 4.24844 0.464008 4.52101 0.662066C4.79359 0.860125 4.99753 1.12878 5.13284 1.46803C5.26814 1.80727 5.3358 2.22201 5.3358 2.71226C5.3358 3.32409 5.24461 3.82413 5.06224 4.2124C4.87987 4.60067 4.57886 4.88305 4.15921 5.05954L5.51228 9.86587L3.72976 9.86587L2.56495 5.41251L1.77664 5.41251L1.77664 9.86587L0 9.86587ZM9.33617 9.98353C8.33215 9.98353 7.61248 9.71096 7.17715 9.16581C6.74181 8.62066 6.52414 7.82255 6.52414 6.77147L6.52414 3.17113C6.52414 2.65343 6.57317 2.20437 6.67122 1.82394C6.76926 1.44351 6.92712 1.11407 7.14479 0.835612C7.36246 0.557152 7.65366 0.348312 8.0184 0.209082C8.38314 0.0698529 8.8224 0.000240197 9.33617 0.000240197C10.3363 0.000240197 11.055 0.268889 11.4923 0.806197C11.9296 1.34351 12.1482 2.13181 12.1482 3.17113L12.1482 6.77147C12.1482 7.28132 12.0982 7.7294 11.9982 8.11571C11.8982 8.50202 11.7393 8.83734 11.5217 9.12169C11.304 9.40603 11.0128 9.62075 10.6481 9.76586C10.2833 9.91098 9.84603 9.98353 9.33617 9.98353ZM8.88907 8.58928C9.01458 8.64027 9.16361 8.66576 9.33617 8.66576C9.50874 8.66576 9.65581 8.64027 9.77739 8.58928C9.89897 8.5383 9.99604 8.47163 10.0686 8.38926C10.1412 8.3069 10.198 8.19905 10.2392 8.06571C10.2804 7.93236 10.3078 7.79901 10.3216 7.66567C10.3353 7.53232 10.3421 7.37348 10.3421 7.18915L10.3421 2.75932C10.3421 2.524 10.3304 2.32791 10.3069 2.17103C10.2833 2.01415 10.2372 1.8661 10.1686 1.72687C10.1 1.58764 9.99702 1.48371 9.85975 1.41508C9.72248 1.34644 9.54796 1.31213 9.33617 1.31213C9.12439 1.31213 8.94888 1.34644 8.80965 1.41508C8.67042 1.48371 8.56747 1.58764 8.5008 1.72687C8.43413 1.8661 8.38903 2.01415 8.36549 2.17103C8.34196 2.32791 8.3302 2.524 8.3302 2.75932L8.3302 7.18915C8.3302 7.37348 8.33706 7.53232 8.35079 7.66567C8.36451 7.79901 8.39197 7.93236 8.43315 8.06571C8.47433 8.19905 8.53021 8.3069 8.60081 8.38926C8.6714 8.47163 8.76749 8.5383 8.88907 8.58928ZM14.4014 9.86587L14.4014 1.4239L12.7659 1.4239L12.7659 0.112015L17.7605 0.112015L17.7605 1.4239L16.178 1.4239L16.178 9.86587L14.4014 9.86587ZM20.3137 4.27711L20.7431 4.27711C21.2687 4.27711 21.6422 4.16534 21.8638 3.94179C22.0854 3.71824 22.1962 3.33585 22.1962 2.79462C22.1962 2.273 22.1001 1.89944 21.908 1.67393C21.7158 1.44841 21.3628 1.33566 20.849 1.33566L20.3137 1.33566L20.3137 4.27711ZM18.537 9.86587L18.537 0.112015L20.7725 0.112015C21.2863 0.112015 21.7275 0.154175 22.0962 0.238497C22.4649 0.322819 22.7855 0.464008 23.0581 0.662066C23.3306 0.860125 23.5346 1.12878 23.6699 1.46803C23.8052 1.80727 23.8728 2.22201 23.8728 2.71226C23.8728 3.32409 23.7817 3.82413 23.5993 4.2124C23.4169 4.60067 23.1159 4.88305 22.6962 5.05954L24.0493 9.86587L22.2668 9.86587L21.102 5.41251L20.3137 5.41251L20.3137 9.86587L18.537 9.86587ZM25.273 9.86587L25.273 0.112015L27.0261 0.112015L27.0261 9.86587L25.273 9.86587ZM31.1441 9.98353C30.7245 9.98353 30.3538 9.93059 30.0322 9.82469C29.7106 9.7188 29.4449 9.57173 29.2351 9.38348C29.0253 9.19522 28.8547 8.96187 28.7233 8.68341C28.5919 8.40495 28.4997 8.10591 28.4468 7.78627C28.3939 7.46663 28.3674 7.10679 28.3674 6.70675L28.3674 3.30643C28.3674 2.88286 28.3948 2.50734 28.4497 2.17986C28.5046 1.85237 28.5968 1.54843 28.7262 1.26801C28.8557 0.987586 29.0253 0.757175 29.2351 0.576763C29.4449 0.396354 29.7097 0.255166 30.0293 0.153195C30.3489 0.0512247 30.7205 0.000240197 31.1441 0.000240197C31.6304 0.000240197 32.0461 0.064951 32.3913 0.194374C32.7364 0.3238 33.009 0.514011 33.209 0.765016C33.409 1.01602 33.5541 1.30919 33.6443 1.64451C33.7345 1.97984 33.7797 2.37105 33.7797 2.81815L33.7797 3.65352L32.0677 3.65352L32.0677 2.82404C32.0677 2.33771 32.0422 2.01023 31.9912 1.84159C31.8893 1.51215 31.6402 1.33566 31.2441 1.31213L31.15 1.31213C31.001 1.31213 30.8706 1.32978 30.7588 1.36507C30.647 1.40037 30.5558 1.45626 30.4852 1.53274C30.4146 1.60921 30.3578 1.69059 30.3146 1.77688C30.2715 1.86316 30.2391 1.97591 30.2176 2.11514C30.196 2.25437 30.1823 2.38282 30.1764 2.50047C30.1705 2.61813 30.1675 2.76717 30.1675 2.94758L30.1675 7.07738C30.1675 7.64998 30.2391 8.05786 30.3823 8.30102C30.5254 8.54418 30.7813 8.66576 31.15 8.66576C31.2755 8.66576 31.3863 8.65105 31.4824 8.62164C31.5785 8.59223 31.6589 8.55497 31.7236 8.50986C31.7883 8.46476 31.8432 8.40005 31.8883 8.31573C31.9334 8.23141 31.9677 8.15297 31.9912 8.08041C32.0148 8.00785 32.0324 7.90687 32.0442 7.77744C32.056 7.64802 32.0628 7.5382 32.0648 7.448C32.0667 7.35779 32.0677 7.23425 32.0677 7.07738L32.0677 6.20671L33.7797 6.20671L33.7797 7.00678C33.7797 7.37152 33.7542 7.699 33.7032 7.98923C33.6522 8.27945 33.5649 8.55202 33.4414 8.80695C33.3178 9.06188 33.158 9.27366 32.9619 9.4423C32.7658 9.61095 32.5148 9.74331 32.2089 9.8394C31.903 9.93549 31.5481 9.98353 31.1441 9.98353ZM37.4682 9.98353C35.7504 9.98353 34.8484 8.99129 34.7621 7.00678L36.3093 6.68322C36.3485 7.97355 36.7172 8.6187 37.4153 8.6187C37.6859 8.6187 37.8869 8.53634 38.0183 8.37162C38.1497 8.20689 38.2154 7.98531 38.2154 7.70685C38.2154 7.43623 38.1663 7.18817 38.0683 6.96266C37.9702 6.73715 37.8565 6.55282 37.7271 6.40967C37.5977 6.26651 37.4133 6.08905 37.1741 5.87726L35.8916 4.76539C35.5151 4.43595 35.2347 4.09376 35.0504 3.73883C34.866 3.38389 34.7739 2.93973 34.7739 2.40635C34.7739 1.64941 34.9964 1.06112 35.4416 0.641476C35.8867 0.221827 36.4976 0.00808357 37.2741 0.000240197C37.631 -0.00368235 37.9467 0.0404381 38.2212 0.132605C38.4958 0.22477 38.7223 0.348311 38.9007 0.503228C39.0792 0.658146 39.2282 0.851299 39.3478 1.08269C39.4674 1.31409 39.5567 1.55431 39.6155 1.80335C39.6743 2.0524 39.7155 2.32987 39.739 2.63578L38.2212 2.93581C38.2134 2.73971 38.2007 2.56911 38.183 2.424C38.1654 2.27888 38.135 2.13181 38.0918 1.98278C38.0487 1.83374 37.9928 1.71315 37.9242 1.62098C37.8555 1.52881 37.7634 1.45528 37.6477 1.40037C37.532 1.34546 37.3976 1.32389 37.2447 1.33566C36.9819 1.35135 36.7809 1.43861 36.6417 1.59745C36.5025 1.75629 36.4328 1.96905 36.4328 2.23574C36.4328 2.5495 36.4946 2.80737 36.6182 3.00935C36.7417 3.21133 36.9349 3.42801 37.1976 3.65941L38.4683 4.76539C38.6801 4.95757 38.8644 5.14386 39.0213 5.32427C39.1782 5.50468 39.3282 5.71058 39.4714 5.94198C39.6145 6.17337 39.7233 6.42829 39.7979 6.70675C39.8724 6.98521 39.9096 7.27935 39.9096 7.58919C39.9096 8.29906 39.6851 8.87558 39.236 9.31876C38.787 9.76194 38.1977 9.98353 37.4682 9.98353Z" id="Clip-2" fill="none" stroke="none" />
      <g clip-path="url(#mask_1)">
        <path d="M0 0L40.0818 0L40.0818 10.1557L0 10.1557L0 0Z" transform="translate(-0.08605852 -0.08605852)" id="Fill-1" fill="#C0C0C0" stroke="none" />
      </g>
    </g>
    <g id="grayLogo">
      <path d="M8.52876 14L7.22213 11.7934C6.96571 11.3604 6.96571 10.827 7.22213 10.3939L9.21681 7.02542L9.83704 5.97782C9.90002 5.87145 9.93317 5.75081 9.93317 5.628C9.93317 5.2414 9.61157 4.928 9.21486 4.928L0 4.928L0 2.8C0 1.2536 1.28639 0 2.87324 0L11.493 0C13.0798 0 14.3662 1.2536 14.3662 2.8L14.3662 11.2C14.3662 12.7464 13.0798 14 11.493 14L8.52876 14ZM5.85446 14L2.87324 14C1.28639 14 0 12.7464 0 11.2L0 7.02542L6.04497 7.02542C6.09538 7.02542 6.14491 7.03835 6.18858 7.06291C6.32602 7.1402 6.37314 7.31143 6.29383 7.44537L4.54783 10.3939C4.29141 10.827 4.29141 11.3604 4.54783 11.7934L5.85446 14Z" id="Clip-2" fill="none" stroke="none" />
      <g clip-path="url(#mask_2)">
        <path d="M0 0L14.5099 0L14.5099 14.14L0 14.14L0 0Z" transform="translate(-0.07183099 -0.07)" id="Fill-1" fill="#C0C0C0" stroke="none" />
      </g>
    </g>
  </g>
</svg>