<?xml version="1.0" standalone="no"?><!DOCTYPE svg PUBLIC "-//W3C//DTD SVG 1.1//EN"
        "http://www.w3.org/Graphics/SVG/1.1/DTD/svg11.dtd">
<svg t="1602904301161" class="icon" viewBox="0 0 1024 1024" version="1.1" xmlns="http://www.w3.org/2000/svg" p-id="3107"
     xmlns:xlink="http://www.w3.org/1999/xlink" width="200" height="200">
    <defs>
        <style type="text/css"></style>
    </defs>
    <path d="M860.262 636.416H981.71v-44.954H860.672V318.26l113.766-113.766-31.846-31.847-104.14 104.141H196.505L92.262 172.647l-31.846 31.846 99.43 99.43c0.103 20.685 0.615 59.085 1.23 102.707 0.818 61.543 1.945 136.704 2.047 185.55H42.291v44.953h121.651c2.56 42.393 12.084 84.787 28.672 126.464 15.463 39.117 32.666 66.253 39.936 77.824 0.922 1.433 1.946 3.174 2.253 3.686-0.102-0.102-0.102-0.307-0.205-0.41l1.946-1.023-110.182 137.728 35.123 28.16 105.984-132.506c36.352 29.798 121.856 91.034 219.033 99.635v1.024h22.528c60.519 0 114.074-11.469 159.437-34.201 37.888-18.944 62.567-41.882 79.053-57.242l112.026 127.488 33.792-29.696L782.643 858.01c1.639-2.663 4.096-6.247 6.963-10.343 21.71-31.232 65.536-94.208 70.656-211.251zM717.414 852.787c-27.955 26.215-78.54 73.421-185.958 79.36v-550.81h-44.954V931.43c-108.85-11.57-205.414-102.092-206.438-103.014l-6.451-6.144c-0.717-1.331-1.741-2.765-3.072-4.915-41.37-65.536-62.362-133.735-62.362-202.752v-22.528c-0.205-49.152-1.229-124.519-2.048-186.163-0.41-32.87-0.921-62.67-1.126-84.173h610.713v292.045c0 117.452-42.598 178.688-63.078 208.076-1.434 2.048-2.867 4.096-4.3 6.247l-11.367 7.782c-6.042 4.301-11.981 9.83-19.559 16.896z"
          fill="#EEEEEE" p-id="3108"></path>
    <path d="M737.792 237.67c0-60.825-23.654-117.964-66.56-160.87s-100.045-66.56-160.87-66.56c-60.826 0-117.965 23.654-160.87 66.56-42.906 42.906-66.56 100.045-66.56 160.87v22.528h454.86V237.67z m-408.576-22.425c11.162-90.01 88.064-159.949 181.043-159.949s169.984 69.94 181.043 159.949H329.216z"
          fill="#EEEEEE" p-id="3109"></path>
</svg>
