<svg id="Capa_1" enable-background="new 0 0 480 480" height="512" viewBox="0 0 480 480" width="512"
     xmlns="http://www.w3.org/2000/svg">
    <g>
        <path d="m240.002 480c-8.492.023-16.64-3.352-22.629-9.372l-144.012-144c-12.497-12.498-12.496-32.76.001-45.257s32.76-12.496 45.257.001l89.383 89.372v-338.744c0-17.673 14.327-32 32-32s32 14.327 32 32v338.745l89.38-89.372c12.497-12.498 32.758-12.499 45.256-.002s12.499 32.758.002 45.256l-144.012 144c-5.988 6.02-14.135 9.395-22.626 9.373zm-144.012-191.992c-8.833-.006-15.998 7.15-16.003 15.983-.003 4.247 1.684 8.321 4.688 11.323l144.012 144c6.248 6.249 16.378 6.25 22.627.003.001-.001.002-.002.003-.003l144.012-144c6.248-6.249 6.248-16.38-.001-22.629s-16.38-6.248-22.629.001l-103.038 103.029c-3.123 3.125-8.188 3.127-11.314.004-1.502-1.501-2.346-3.537-2.345-5.66v-358.059c0-8.837-7.163-16-16-16s-16 7.163-16 16v358.059c0 4.418-3.581 8-8 8-2.122 0-4.158-.843-5.658-2.344l-103.042-103.029c-2.999-3.001-7.07-4.684-11.312-4.678z"
              style="stroke: #EEEEEE; fill: #EEEEEE; fill-rule: nonzero;"
        />
    </g>
</svg>
