<?xml version="1.0" standalone="no"?><!DOCTYPE svg PUBLIC "-//W3C//DTD SVG 1.1//EN"
        "http://www.w3.org/Graphics/SVG/1.1/DTD/svg11.dtd">
<svg t="1594263009414" class="icon" viewBox="0 0 1024 1024" version="1.1" xmlns="http://www.w3.org/2000/svg" p-id="4895"
     xmlns:xlink="http://www.w3.org/1999/xlink" width="200" height="200">
    <defs>
        <style type="text/css"></style>
    </defs>
    <path d="M870.4 240.64H153.088c-12.8 0-23.04-10.24-23.04-23.04s10.24-23.04 23.04-23.04H870.4c12.8 0 23.04 10.24 23.04 23.04s-10.24 23.04-23.04 23.04z m-231.424-92.16H384.512c-12.8 0-23.04-10.24-23.04-23.04s10.24-23.04 23.04-23.04h254.464c12.8 0 23.04 10.24 23.04 23.04 0 12.288-10.24 23.04-23.04 23.04zM407.552 749.568V356.352c0-12.8 10.24-23.04 23.04-23.04s23.04 10.24 23.04 23.04v393.216c0 12.8-10.24 23.04-23.04 23.04-12.8 0.512-23.04-10.24-23.04-23.04z m161.792 0V356.352c0-12.8 10.24-23.04 23.04-23.04s23.04 10.24 23.04 23.04v393.216c0 12.8-10.24 23.04-23.04 23.04s-23.04-10.24-23.04-23.04zM245.76 310.272c12.8 0 23.04 10.24 23.04 23.04V819.2c0 25.6 20.48 46.08 46.08 46.08h393.216c25.6 0 46.08-20.48 46.08-46.08V333.312c0-12.8 10.24-23.04 23.04-23.04s23.04 10.24 23.04 23.04v508.928c0 38.4-31.232 69.632-69.632 69.632H291.84c-38.4 0-69.632-31.232-69.632-69.632V333.312c0.512-12.8 10.752-23.04 23.552-23.04z"
          fill="#888888" p-id="4896"></path>
</svg>
