<?xml version="1.0" encoding="UTF-8"?>
<svg width="16px" height="16px" viewBox="0 0 16 16" version="1.1" xmlns="http://www.w3.org/2000/svg" xmlns:xlink="http://www.w3.org/1999/xlink">
    <!-- Generator: Sketch 60.1 (88133) - https://sketch.com -->
    <title>快捷备份@3x</title>
    <desc>Created with Sketch.</desc>
    <g id="快捷备份" stroke="none" stroke-width="1" fill="none" fill-rule="evenodd">
        <g id="复制拷贝" fill="#888888" fill-rule="nonzero">
            <rect id="矩形" opacity="0" x="0" y="0" width="16" height="16"></rect>
            <path d="M13.2972736,11.520701 L6.2555672,11.520701 C5.28338648,11.520701 4.49515259,10.7324994 4.49515259,9.76034248 L4.49515259,2.71894056 C4.49515259,1.74679967 5.28338648,0.958582078 6.2555672,0.958582078 L13.2972896,0.958582078 C14.2694703,0.958582078 15.0577042,1.74678367 15.0577042,2.71894056 L15.0577042,9.76035848 C15.0577042,10.7324994 14.2694544,11.520701 13.2972736,11.520701 Z M14.1774969,2.71894056 C14.1774969,2.23287012 13.783364,1.83876931 13.2972736,1.83876931 L6.2555672,1.83876931 C5.76947684,1.83876931 5.37534391,2.23287011 5.37534391,2.71894056 L5.37534391,9.76035848 C5.37534391,10.2464289 5.76946086,10.6405457 6.2555672,10.6405457 L13.2972896,10.6405457 C13.783364,10.6405457 14.1774969,10.2464449 14.1774969,9.76035848 L14.1774969,2.71894056 L14.1774969,2.71894056 Z M1.85449869,6.23964152 L1.85449869,13.2810754 C1.85449869,13.7671299 2.24861564,14.1612467 2.734706,14.1612467 L9.77641244,14.1612467 C10.2625028,14.1612467 10.6566357,13.7671459 10.6566357,13.2810754 L10.6566357,12.4008882 L11.536843,12.4008882 L11.536843,13.2810754 C11.536843,14.2532163 10.7486092,15.0414019 9.77641244,15.0414019 L2.734706,15.0414019 C1.76252528,15.0414019 0.974275391,14.2532163 0.974275391,13.2810754 L0.974275391,6.23964152 C0.974275391,5.26750063 1.76250928,4.47928303 2.734706,4.47928303 L3.6149293,4.47928303 L3.6149293,5.35945428 L2.734706,5.35945428 C2.24861563,5.3594543 1.85449869,5.75357108 1.85449869,6.23964152 Z" id="形状"></path>
        </g>
    </g>
</svg>