<svg id="Capa_1" enable-background="new 0 0 512 512" height="512" viewBox="0 0 512 512" width="512" xmlns="http://www.w3.org/2000/svg"><g id="XMLID_1338_"><g id="XMLID_180_"><path id="XMLID_201_" d="m480.226 222.1h-113.677l7.805-7.805c12.385-12.385 12.385-32.538 0-44.924l-160.067-160.067c-6-6-13.978-9.304-22.462-9.304-8.485 0-16.463 3.304-22.463 9.304l-48.212 48.214c-3.905 3.905-3.905 10.237 0 14.142 3.906 3.905 10.236 3.905 14.143 0l48.213-48.213c2.222-2.223 5.177-3.446 8.32-3.446s6.098 1.224 8.319 3.446l160.066 160.066c4.588 4.588 4.588 12.053 0 16.64l-160.066 160.066c-2.223 2.222-5.177 3.446-8.319 3.446-3.144 0-6.098-1.224-8.32-3.447l-160.067-160.065c-4.588-4.588-4.588-12.053 0-16.641l48.213-48.212c3.905-3.905 3.905-10.237 0-14.143-3.906-3.904-10.236-3.904-14.143 0l-48.213 48.214c-12.385 12.385-12.385 32.539 0 44.924l160.067 160.065c6 6 13.978 9.305 22.463 9.305s16.462-3.305 22.462-9.304l7.805-7.805v113.678c0 17.516 14.25 31.766 31.767 31.766h226.367c17.517 0 31.767-14.25 31.767-31.766v-226.368c-.002-17.516-14.252-31.766-31.768-31.766zm11.766 258.134c0 6.488-5.278 11.766-11.767 11.766h-226.366c-6.488 0-11.767-5.278-11.767-11.766v-133.678l104.457-104.456h133.677c6.488 0 11.767 5.278 11.767 11.766v226.368z"/><path id="XMLID_1113_" d="m367.042 330.06c-20.396 0-36.99 16.594-36.99 36.99s16.594 36.99 36.99 36.99c20.397 0 36.99-16.594 36.99-36.99s-16.593-36.99-36.99-36.99zm0 53.98c-9.368 0-16.99-7.622-16.99-16.99s7.622-16.99 16.99-16.99 16.99 7.622 16.99 16.99-7.622 16.99-16.99 16.99z"/><path id="XMLID_1160_" d="m115.486 228.805c9.473 0 18.944-3.605 26.156-10.816 0-.001 0-.001 0-.001 14.422-14.422 14.422-37.889 0-52.312-14.424-14.422-37.891-14.422-52.312.001-14.422 14.422-14.422 37.889 0 52.312 7.211 7.211 16.683 10.816 26.156 10.816zm-12.014-48.986c3.312-3.313 7.662-4.969 12.014-4.969 4.351 0 8.702 1.657 12.014 4.968 6.624 6.624 6.624 17.404 0 24.028-6.625 6.625-17.404 6.624-24.027 0-6.625-6.624-6.625-17.403-.001-24.027z"/><path id="XMLID_1205_" d="m217.981 141.649c14.422-14.423 14.422-37.89 0-52.312s-37.888-14.423-52.311 0c-6.986 6.987-10.834 16.276-10.834 26.156s3.848 19.169 10.834 26.156c7.211 7.211 16.684 10.816 26.155 10.816 9.472.001 18.945-3.605 26.156-10.816zm-43.146-26.156c0-4.538 1.767-8.805 4.977-12.014 3.312-3.312 7.662-4.968 12.014-4.968 4.35 0 8.701 1.656 12.013 4.968 6.624 6.625 6.624 17.404 0 24.028-6.623 6.626-17.403 6.624-24.026 0-3.211-3.209-4.978-7.476-4.978-12.014z"/><path id="XMLID_1209_" d="m165.669 294.327c6.986 6.987 16.275 10.835 26.156 10.835 9.88 0 19.169-3.848 26.154-10.834 6.987-6.986 10.836-16.275 10.836-26.156s-3.849-19.17-10.835-26.156c-14.422-14.422-37.889-14.422-52.311 0-6.987 6.986-10.835 16.275-10.835 26.156.001 9.88 3.849 19.169 10.835 26.155zm14.143-38.169c3.312-3.312 7.662-4.968 12.013-4.968s8.702 1.656 12.015 4.968c3.209 3.209 4.976 7.476 4.976 12.014s-1.767 8.804-4.976 12.013c-.001 0-.001 0-.001 0-3.209 3.209-7.476 4.976-12.013 4.976-4.538 0-8.805-1.767-12.015-4.977-3.209-3.209-4.976-7.476-4.976-12.013s1.767-8.804 4.977-12.013z"/><path id="XMLID_1212_" d="m294.32 217.989c.001 0 .001 0 .001-.001 14.422-14.422 14.422-37.889-.001-52.312-14.423-14.422-37.891-14.42-52.311.001-14.422 14.422-14.422 37.889 0 52.312 7.212 7.211 16.683 10.816 26.156 10.816 9.47 0 18.945-3.606 26.155-10.816zm-38.169-14.142c-6.624-6.624-6.624-17.404 0-24.028 3.312-3.312 7.662-4.968 12.014-4.968 4.351 0 8.702 1.656 12.014 4.968 6.624 6.624 6.624 17.404.001 24.028-6.628 6.624-17.406 6.623-24.029 0z"/><path id="XMLID_1249_" d="m96.403 106.41c2.63 0 5.21-1.07 7.069-2.93 1.86-1.86 2.931-4.44 2.931-7.07 0-2.64-1.07-5.21-2.931-7.07-1.859-1.86-4.439-2.93-7.069-2.93s-5.21 1.06-7.07 2.93c-1.86 1.86-2.93 4.44-2.93 7.07s1.069 5.21 2.93 7.07c1.86 1.86 4.44 2.93 7.07 2.93z"/></g></g></svg>