<?xml version="1.0" encoding="UTF-8"?>
<svg width="16px" height="16px" viewBox="0 0 16 16" version="1.1" xmlns="http://www.w3.org/2000/svg" xmlns:xlink="http://www.w3.org/1999/xlink">
    <!-- Generator: Sketch 60.1 (88133) - https://sketch.com -->
    <title>撤销@3x</title>
    <desc>Created with Sketch.</desc>
    <g id="撤销" stroke="none" stroke-width="1" fill="none" fill-rule="evenodd">
        <g id="撤回" fill="#888888" fill-rule="nonzero">
            <rect id="矩形" opacity="0" x="0" y="0" width="16" height="16"></rect>
            <path d="M8.0875,13.85 C7.9125,13.85 7.7375,13.7875 7.5875,13.675 L7.5125,13.6125 C6.1875,12.5125 3.0625,9.925 1.775,8.825 C1.525,8.6125 1.3875,8.3125 1.3875,8 C1.3875,7.7 1.5125,7.4125 1.75,7.2 C3.125,6.025 6.85,2.925 7.6,2.3125 C7.8,2.1375 8.1125,2.1 8.3625,2.2 C8.625,2.3125 8.7875,2.55 8.7875,2.85 L8.7875,5.525 C10.0625,5.75 14.1125,6.8875 14.625,12.125 L14.625,12.1625 C14.625,12.4125 14.475,12.6125 14.25,12.6625 C14.025,12.725 13.7875,12.625 13.675,12.45 C12.35,10.4875 9.8375,10.4125 8.7875,10.475 L8.7875,13.1875 C8.7875,13.4375 8.65,13.65 8.4125,13.775 C8.3125,13.825 8.2,13.85 8.0875,13.85 Z M8.025,13.075 C8.0375,13.075 8.0375,13.0875 8.025,13.075 L8.0375,10.2375 C8.0375,9.975 8.2375,9.7625 8.4875,9.75 C9.35,9.6625 12.0125,9.575 13.7625,11.375 C12.95,7.2 9.5375,6.4 8.4625,6.25 L8.4375,6.25 C8.2,6.2 8.0375,6.0125 8.0375,5.775 L8.0375,2.925 C7.2125,3.6 3.5875,6.625 2.225,7.775 C2.15,7.85 2.125,7.9375 2.125,8 C2.125,8.1 2.175,8.1875 2.25,8.25 C3.5375,9.3375 6.65,11.925 7.975,13.025 L8.025,13.075 L8.025,13.075 Z" id="形状"></path>
        </g>
    </g>
</svg>