<?xml version="1.0" standalone="no"?><!DOCTYPE svg PUBLIC "-//W3C//DTD SVG 1.1//EN" "http://www.w3.org/Graphics/SVG/1.1/DTD/svg11.dtd"><svg t="1603684384605" class="icon" viewBox="0 0 1247 1024" version="1.1" xmlns="http://www.w3.org/2000/svg" p-id="2053" xmlns:xlink="http://www.w3.org/1999/xlink" width="243.5546875" height="200"><defs><style type="text/css"></style></defs><path d="M919.433355 1021.956815H153.238893a285.02434 285.02434 0 0 1-86.835373-24.518223A137.915003 137.915003 0 0 1 0 886.084997V138.279201A150.174115 150.174115 0 0 1 153.238893 0.364198h298.305044A55.166001 55.166001 0 0 1 510.796308 39.695514l66.403521 110.332002h428.558102a150.174115 150.174115 0 0 1 153.238893 137.915003V306.841983a122.080318 122.080318 0 0 1 62.827946 40.863705 119.01554 119.01554 0 0 1 21.453445 104.713243l-145.066152 449.500751A197.167375 197.167375 0 0 1 919.433355 1021.956815zM153.238893 51.443829a99.094484 99.094484 0 0 0-102.159262 86.835372v747.805796a88.367761 88.367761 0 0 0 38.309723 67.935909A246.203821 246.203821 0 0 0 153.238893 970.877184h766.194462a144.555355 144.555355 0 0 0 129.742263-89.389354l144.044559-446.94677a67.935909 67.935909 0 0 0-13.280704-59.252372 98.583688 98.583688 0 0 0-56.187594-25.539815 25.539815 25.539815 0 0 1-18.388667-24.518223v-37.288131a99.094484 99.094484 0 0 0-102.159262-86.835372H561.875939a25.539815 25.539815 0 0 1-21.964241-12.259111L463.803048 61.659755A25.029019 25.029019 0 0 1 459.716678 51.443829a26.561408 26.561408 0 0 0-8.683538 0z" fill="#515151" p-id="2054"></path><path d="M29.11539 904.473664H21.453445a25.539815 25.539815 0 0 1-16.856278-35.755742l145.066151-446.94677a197.167375 197.167375 0 0 1 177.757116-122.591114h817.274093a25.539815 25.539815 0 0 1 0 51.079631h-817.274093A144.555355 144.555355 0 0 0 197.167375 439.649023L51.079631 886.595793a25.539815 25.539815 0 0 1-21.964241 17.877871z" fill="#515151" p-id="2055"></path></svg>