<?xml version="1.0" encoding="UTF-8"?>
<svg width="24px" height="24px" viewBox="0 0 24 24" version="1.1" xmlns="http://www.w3.org/2000/svg" xmlns:xlink="http://www.w3.org/1999/xlink">
    <!-- Generator: Sketch 60.1 (88133) - https://sketch.com -->
    <title>基础配置管理</title>
    <desc>Created with Sketch.</desc>
    <g id="基础配置管理" stroke="none" stroke-width="1" fill="none" fill-rule="evenodd">
        <g fill-rule="nonzero">
            <rect id="Rectangle" fill="#FFFFFF" opacity="0" x="0" y="0" width="24" height="24"></rect>
            <path d="M6.121875,20.184375 L3.046875,20.184375 C2.634375,20.184375 2.3015625,19.8515625 2.3015625,19.4390625 C2.3015625,19.0265625 2.634375,18.69375 3.046875,18.69375 L6.121875,18.69375 C6.46171875,17.3765625 7.64765625,16.4554688 9.009375,16.4554688 C10.36875,16.4554688 11.5570313,17.3765625 11.896875,18.69375 L20.934375,18.69375 C21.346875,18.69375 21.6796875,19.0265625 21.6796875,19.4390625 C21.6796875,19.8515625 21.346875,20.184375 20.934375,20.184375 L11.8945313,20.184375 C11.5546875,21.5015625 10.36875,22.4226563 9.00703125,22.4226563 C7.64765625,22.4226563 6.459375,21.5015625 6.121875,20.184375 Z M12.0820313,12.7335938 L3.046875,12.7335938 C2.634375,12.7335938 2.3015625,12.4007813 2.3015625,11.9882813 C2.3015625,11.5757813 2.634375,11.2429688 3.046875,11.2429688 L12.084375,11.2429688 C12.4242188,9.92578125 13.6101563,9.0046875 14.971875,9.0046875 C16.33125,9.0046875 17.5195313,9.92578125 17.859375,11.2429688 L20.934375,11.2429688 C21.346875,11.2429688 21.6796875,11.5757813 21.6796875,11.9882813 C21.6796875,12.4007813 21.346875,12.7335938 20.934375,12.7335938 L17.8570313,12.7335938 C17.5171875,14.0507813 16.33125,14.971875 14.9695313,14.971875 C13.6101563,14.971875 12.421875,14.0507813 12.0820313,12.7335938 Z M6.121875,5.28046875 L3.046875,5.28046875 C2.634375,5.28046875 2.3015625,4.94765625 2.3015625,4.53515625 C2.3015625,4.12265625 2.634375,3.78984375 3.046875,3.78984375 L6.121875,3.78984375 C6.46171875,2.47265625 7.64765625,1.5515625 9.009375,1.5515625 C10.36875,1.5515625 11.5570313,2.47265625 11.896875,3.78984375 L20.934375,3.78984375 C21.2015625,3.78984375 21.4476563,3.9328125 21.5789063,4.1625 C21.7125,4.3921875 21.7125,4.678125 21.5789063,4.9078125 C21.4453125,5.1375 21.1992188,5.28046875 20.934375,5.28046875 L11.8945313,5.28046875 C11.5546875,6.59765625 10.36875,7.51875 9.00703125,7.51875 C7.64765625,7.51875 6.459375,6.59765625 6.121875,5.28046875 Z M9.009375,6.02578125 C9.54140625,6.02578125 10.0335938,5.7421875 10.3007813,5.28046875 C10.5679688,4.81875 10.5679688,4.2515625 10.3007813,3.78984375 C10.0335938,3.328125 9.54140625,3.04453125 9.009375,3.04453125 C8.18671875,3.04453125 7.51875,3.7125 7.51875,4.53515625 C7.51875,5.3578125 8.184375,6.02578125 9.009375,6.02578125 Z M14.9695313,13.4789063 C15.7921875,13.4789063 16.4601563,12.8109375 16.4601563,11.9882813 C16.4601563,11.165625 15.7921875,10.4976563 14.9695313,10.4976563 C14.146875,10.4976563 13.4789063,11.165625 13.4789063,11.9882813 C13.4789063,12.8109375 14.146875,13.4789063 14.9695313,13.4789063 Z M9.009375,20.9296875 C9.83203125,20.9296875 10.5,20.2617188 10.5,19.4390625 C10.5,18.6164063 9.83203125,17.9484375 9.009375,17.9484375 C8.18671875,17.9484375 7.51875,18.6164063 7.51875,19.4390625 C7.51875,20.2640625 8.184375,20.9296875 9.009375,20.9296875 Z" id="Shape" fill="#000000"></path>
        </g>
    </g>
</svg>