<svg id="Capa_1" enable-background="new 0 0 512 512" height="512" viewBox="0 0 512 512" width="512" xmlns="http://www.w3.org/2000/svg"><g><path d="m0 406h241v60h-120v30h270v-30h-120v-60h241v-390h-512zm30-360h452v330h-452z"/><path d="m216.238 252.389 39.213 33.611-39.213 33.611 19.524 22.778 65.787-56.389-65.787-56.389z"/><path d="m126.238 229.611-65.787 56.389 65.787 56.389 19.524-22.778-39.213-33.611 39.213-33.611z"/><path d="m119.153 271h123.693v30h-123.693z" transform="matrix(.243 -.97 .97 .243 -140.359 392.233)"/><path d="m181 106h30v30h-30z"/><path d="m241 106h30v30h-30z"/><path d="m361 166h30v30h-30z"/><path d="m421 166h30v30h-30z"/><path d="m361 286h30v30h-30z"/><path d="m421 286h30v30h-30z"/><path d="m301 106h150v30h-150z"/><path d="m331 226h30v30h-30z"/><path d="m391 226h60v30h-60z"/><path d="m61 106h90v30h-90z"/><path d="m181 166h150v30h-150z"/><path d="m91 166h60v30h-60z"/></g></svg>