<svg id="Layer_1" enable-background="new 0 0 512.004 512.004" height="512" viewBox="0 0 512.004 512.004" width="512" xmlns="http://www.w3.org/2000/svg"><g><path d="m489.648 233.646h-6.936c-4.145-42.792-20.162-83.155-46.566-117.125-2.542-3.271-7.255-3.86-10.524-1.319-3.271 2.542-3.861 7.254-1.319 10.524 24.355 31.334 39.255 68.496 43.344 107.92h-14.804c-5.019-44.315-25.038-85.866-56.828-117.656-31.79-31.791-73.341-51.811-117.656-56.828v-14.808c46.402 4.775 88.833 24.164 123.141 56.36 3.022 2.835 7.769 2.683 10.602-.336 2.835-3.021 2.684-7.768-.336-10.602-37.115-34.83-83.113-55.648-133.406-60.484v-6.937c-.002-12.327-10.03-22.355-22.358-22.355s-22.356 10.028-22.356 22.355v6.943c-107.963 10.515-193.829 96.335-204.347 204.348h-6.943c-12.327 0-22.356 10.029-22.356 22.356s10.028 22.355 22.355 22.355h6.943c10.513 107.962 96.334 193.828 204.347 204.348v6.943c0 12.327 10.029 22.355 22.356 22.355s22.355-10.028 22.355-22.355v-6.937c47.181-4.551 90.904-23.317 126.833-54.538 3.126-2.717 3.458-7.454.741-10.581-2.718-3.126-7.455-3.458-10.581-.741-33.183 28.836-73.486 46.306-116.993 50.798v-14.807c91.539-10.364 164.142-83.154 174.484-174.484h14.805c-4.374 42.311-21.073 81.708-48.563 114.381-2.666 3.169-2.259 7.9.911 10.567 3.169 2.665 7.9 2.26 10.567-.911 29.774-35.388 47.717-78.143 52.149-124.037h6.937c12.327 0 22.355-10.028 22.355-22.355s-10.026-22.357-22.353-22.357zm-241.002-211.291c0-4.056 3.3-7.355 7.356-7.355s7.355 3.3 7.355 7.355v56.384c0 4.057-3.3 7.356-7.355 7.356-4.057 0-7.356-3.3-7.356-7.356 0-18.856 0-34.16 0-56.384zm-15 22.005v14.802c-91.539 10.365-164.142 83.154-174.484 174.484h-14.801c10.391-99.589 89.533-178.875 189.285-189.286zm-211.29 218.997c-4.056 0-7.355-3.3-7.355-7.355s3.3-7.355 7.355-7.355h56.384c4.056 0 7.355 3.3 7.355 7.355s-3.3 7.355-7.355 7.355c-18.803 0-34.216 0-56.384 0zm211.29 204.287c-99.588-10.394-178.877-89.535-189.285-189.287h14.801c10.366 91.539 83.154 164.143 174.484 174.484zm29.712 22.004c0 4.056-3.3 7.355-7.355 7.355-4.057 0-7.356-3.3-7.356-7.355 0-20.298 0-34.567 0-56.385 0-4.056 3.3-7.355 7.356-7.355s7.355 3.3 7.355 7.355zm15-51.913v-4.471c0-12.327-10.028-22.355-22.355-22.355s-22.356 10.028-22.356 22.355v4.471c-82.617-10.174-149.202-76.759-159.377-159.377h4.471c12.327 0 22.355-10.028 22.355-22.355s-10.028-22.355-22.355-22.355h-4.471c10.175-82.618 76.76-149.203 159.377-159.377v4.47c0 12.327 10.029 22.356 22.356 22.356s22.355-10.029 22.355-22.356v-4.47c82.617 10.174 149.202 76.759 159.377 159.377h-4.471c-12.327 0-22.355 10.028-22.355 22.355s10.028 22.355 22.355 22.355h4.471c-10.175 82.618-76.76 149.203-159.377 159.377zm211.29-174.378c-6.954 0-49.598 0-56.384 0-4.056 0-7.355-3.3-7.355-7.355s3.3-7.355 7.355-7.355h56.384c4.056 0 7.355 3.3 7.355 7.355s-3.299 7.355-7.355 7.355z"/><path d="m409.682 176.392c-10.645-10.645-26.472-13.709-40.32-7.812l-11.566 4.926c-4.18-8.543-11.174-15.666-19.97-19.97l4.926-11.567c5.897-13.85 2.831-29.676-7.813-40.32-2.93-2.928-7.678-2.928-10.607 0-2.929 2.93-2.929 7.678 0 10.607 6.293 6.292 8.105 15.648 4.619 23.836l-5.659 13.289c-13.136-1.349-25.901 3.17-35.211 12.479-.517.517-1.021 1.05-1.513 1.595-11.498-4.306-23.691-6.536-36.133-6.616l.444-22.233 13.015-13.014c2.929-2.93 2.929-7.678 0-10.607-2.93-2.928-7.678-2.928-10.607 0l-15.149 15.149c-1.369 1.37-2.156 3.217-2.194 5.154l-.529 26.523c-23.466 3.201-44.911 14.21-61.36 31.414l-25.45-14.458c-2.406-1.366-5.368-1.297-7.706.178l-23.845 15.041c-3.504 2.21-4.553 6.842-2.343 10.345 2.211 3.504 6.842 4.551 10.345 2.343l20.045-12.645 19.246 10.934c-10.884 15.28-17.407 33.127-18.93 51.994l-26.167 1.179c-2.859.129-5.396 1.874-6.538 4.498l-11.796 27.09c-1.654 3.798.084 8.217 3.882 9.87 3.798 1.655 8.218-.086 9.87-3.882l9.93-22.802 20.668-.932c3.202 53.215 45.799 94.851 98.093 98.037l-.934 20.72-22.803 9.93c-3.798 1.653-5.536 6.072-3.882 9.87 1.654 3.801 6.077 5.535 9.87 3.882l27.09-11.796c2.624-1.143 4.369-3.679 4.498-6.538l1.182-26.223c18.338-1.497 36.351-7.794 51.981-18.89l10.944 19.262-12.645 20.045c-2.21 3.503-1.161 8.135 2.343 10.345 3.503 2.209 8.134 1.162 10.345-2.343l15.041-23.845c1.476-2.339 1.544-5.301.178-7.706l-14.46-25.452c16.713-15.969 28.075-37.385 31.394-61.358l26.543-.529c1.938-.038 3.784-.825 5.154-2.194l15.15-15.15c2.929-2.93 2.929-7.678 0-10.607-2.93-2.928-7.678-2.928-10.607 0l-13.015 13.016-22.231.444c-.076-12.349-2.357-24.553-6.662-36.094 10.349-9.317 15.551-22.81 14.119-36.763l13.288-5.659c8.187-3.489 17.543-1.676 23.836 4.618 2.93 2.928 7.678 2.928 10.607 0 2.928-2.931 2.928-7.679-.001-10.608zm-77.869 48.879c-13.375-7.856-24.766-11.742-34.11-11.643.098-9.359-3.799-20.77-11.679-34.172 20.301 8.954 36.758 25.311 45.789 45.815zm-68.055-52.347c16.894 23.304 22.937 41.106 16.16 47.882l-98.642 98.642c-53.17-62.785.087-159.457 82.482-146.524zm-71.875 157.13 98.643-98.641c6.768-6.771 24.547-.744 47.818 16.114 12.792 81.488-82.657 136.512-146.461 82.527zm149.179-119.871c-7.588-13.484-17.234-22.679-17.234-22.679h.001c-6.869-6.845-14.487-12.63-22.66-17.247 4.996-3.961 11.136-6.111 17.606-6.111 23.652 0 37.037 27.461 22.287 46.037z"/><path d="m242.807 291.796c-10.467 10.465-10.469 27.404-.001 37.87 10.466 10.468 27.403 10.468 37.87.001 0 0 0 0 .001-.001 10.466-10.466 10.467-27.404 0-37.869-10.465-10.467-27.404-10.469-37.87-.001zm27.264 27.264c-4.605 4.605-12.053 4.606-16.658 0-4.604-4.604-4.605-12.052.001-16.657 4.604-4.604 12.052-4.605 16.657.001 4.604 4.604 4.603 12.052 0 16.656z"/><path d="m290.889 254.521c-8.352 8.353-8.352 21.942 0 30.295 8.353 8.351 21.941 8.352 30.295 0 8.352-8.353 8.352-21.942 0-30.295-8.353-8.351-21.941-8.351-30.295 0zm19.688 19.688c-2.508 2.51-6.572 2.51-9.08 0-2.51-2.508-2.51-6.572 0-9.08 2.508-2.51 6.572-2.51 9.08 0 2.509 2.508 2.509 6.572 0 9.08z"/><path d="m181.665 230.653c-10.44 10.441-10.44 27.431 0 37.872 10.443 10.441 27.433 10.437 37.871-.001 10.439-10.44 10.439-27.43-.001-37.871-10.443-10.44-27.43-10.438-37.87 0zm27.264 27.265c-4.593 4.593-12.065 4.592-16.658.001-4.593-4.593-4.593-12.066 0-16.659 4.593-4.592 12.065-4.591 16.658 0 4.592 4.593 4.592 12.066 0 16.658z"/><path d="m226.514 190.147c-8.352 8.353-8.352 21.941 0 30.294 8.353 8.351 21.941 8.352 30.295 0 8.352-8.353 8.352-21.941 0-30.294-8.353-8.351-21.941-8.351-30.295 0zm19.688 19.687c-2.508 2.51-6.572 2.51-9.08 0-2.51-2.508-2.51-6.571 0-9.079 2.508-2.51 6.572-2.51 9.08 0 2.51 2.508 2.51 6.571 0 9.079z"/></g></svg>