<?xml version="1.0" encoding="UTF-8"?>
<svg width="24px" height="24px" viewBox="0 0 24 24" version="1.1" xmlns="http://www.w3.org/2000/svg" xmlns:xlink="http://www.w3.org/1999/xlink">
    <!-- Generator: Sketch 60.1 (88133) - https://sketch.com -->
    <title>laser hover</title>
    <desc>Created with Sketch.</desc>
    <g id="laser-hover" stroke="none" stroke-width="1" fill="none" fill-rule="evenodd">
        <rect id="Rectangle" fill="#007AFF" fill-rule="nonzero" opacity="0" x="0" y="0" width="24" height="24"></rect>
        <g id="编组" transform="translate(1.000000, 1.000000)">
            <path d="M9.78188063,4 L20.6841074,4 C20.80561,4 20.9041074,4.09849736 20.9041074,4.22 L20.9041074,8.95 C20.9041074,9.86126984 20.1653772,10.6 19.2541074,10.6 L11.2118806,10.6 C10.3006108,10.6 9.56188063,9.86126984 9.56188063,8.95 L9.56188063,4.22 C9.56188063,4.09849736 9.66037798,4 9.78188063,4 Z" id="矩形" stroke="#007AFF" stroke-width="1.65" transform="translate(15.232994, 7.300000) rotate(45.000000) translate(-15.232994, -7.300000) "></path>
            <path d="M9.20044642,9.04562702 L13.6004464,9.04562702 C14.2079596,9.04562702 14.7004464,9.53811379 14.7004464,10.145627 L14.7004464,12.345627 C14.7004464,12.9531402 14.2079596,13.445627 13.6004464,13.445627 L9.20044642,13.445627 C8.59293319,13.445627 8.10044642,12.9531402 8.10044642,12.345627 L8.10044642,10.145627 C8.10044642,9.53811379 8.59293319,9.04562702 9.20044642,9.04562702 Z" id="矩形" stroke="#007AFF" stroke-width="1.65" transform="translate(11.400446, 11.245627) rotate(45.000000) translate(-11.400446, -11.245627) "></path>
            <line x1="9.8448115" y1="12.8012619" x2="7.20405284" y2="15.4420206" id="路径-2" stroke="#007AFF" stroke-width="1.65" fill="#D8D8D8" stroke-linecap="round"></line>
            <path d="M10.3809921,17.6154385 L12.0309921,17.6154385 C12.486627,17.6154385 12.8559921,17.9848036 12.8559921,18.4404385 C12.8559921,18.8960734 12.486627,19.2654385 12.0309921,19.2654385 L10.3809921,19.2654385 C9.92535713,19.2654385 9.55599205,18.8960734 9.55599205,18.4404385 C9.55599205,17.9848036 9.92535713,17.6154385 10.3809921,17.6154385 Z" id="矩形" fill="#007AFF" transform="translate(11.205992, 18.440439) rotate(45.000000) translate(-11.205992, -18.440439) "></path>
            <path d="M3.38063492,10.6150814 L5.03063492,10.6150814 C5.48626984,10.6150814 5.85563492,10.9844465 5.85563492,11.4400814 C5.85563492,11.8957163 5.48626984,12.2650814 5.03063492,12.2650814 L3.38063492,12.2650814 C2.925,12.2650814 2.55563492,11.8957163 2.55563492,11.4400814 C2.55563492,10.9844465 2.925,10.6150814 3.38063492,10.6150814 Z" id="矩形" fill="#007AFF" transform="translate(4.205635, 11.440081) rotate(45.000000) translate(-4.205635, -11.440081) "></path>
            <path d="M7.26972222,19.1710734 L8.91972222,19.1710734 C9.37535713,19.1710734 9.74472222,19.5404385 9.74472222,19.9960734 C9.74472222,20.4517084 9.37535713,20.8210734 8.91972222,20.8210734 L7.26972222,20.8210734 C6.8140873,20.8210734 6.44472222,20.4517084 6.44472222,19.9960734 C6.44472222,19.5404385 6.8140873,19.1710734 7.26972222,19.1710734 Z" id="矩形" fill="#007AFF" transform="translate(8.094722, 19.996073) scale(-1, 1) rotate(-89.000000) translate(-8.094722, -19.996073) "></path>
            <path d="M3.21617565,17.8078804 L4.86617565,17.8078804 C5.32181057,17.8078804 5.69117565,18.1772455 5.69117565,18.6328804 C5.69117565,19.0885154 5.32181057,19.4578804 4.86617565,19.4578804 L3.21617565,19.4578804 C2.76054073,19.4578804 2.39117565,19.0885154 2.39117565,18.6328804 C2.39117565,18.1772455 2.76054073,17.8078804 3.21617565,17.8078804 Z" id="矩形" fill="#007AFF" transform="translate(4.041176, 18.632880) scale(-1, 1) rotate(-135.000000) translate(-4.041176, -18.632880) "></path>
            <path d="M1.825,13.7263512 L3.475,13.7263512 C3.93063492,13.7263512 4.3,14.0957163 4.3,14.5513512 C4.3,15.0069861 3.93063492,15.3763512 3.475,15.3763512 L1.825,15.3763512 C1.36936508,15.3763512 1,15.0069861 1,14.5513512 C1,14.0957163 1.36936508,13.7263512 1.825,13.7263512 Z" id="矩形" fill="#007AFF" transform="translate(2.650000, 14.551351) rotate(1.000000) translate(-2.650000, -14.551351) "></path>
        </g>
    </g>
</svg>