<?xml version="1.0" encoding="UTF-8"?>
<svg width="24px" height="24px" viewBox="0 0 24 24" version="1.1" xmlns="http://www.w3.org/2000/svg" xmlns:xlink="http://www.w3.org/1999/xlink">
    <!-- Generator: Sketch 60.1 (88133) - https://sketch.com -->
    <title>3d</title>
    <desc>Created with Sketch.</desc>
    <g id="3d" stroke="none" stroke-width="1" fill="none" fill-rule="evenodd">
        <g fill="#000000" fill-rule="nonzero">
            <rect id="Rectangle" opacity="0" x="0" y="0" width="24" height="24"></rect>
            <path d="M20.2677465,6.21070915 L12.7701898,1.72071335 C12.5330866,1.57872961 12.2665313,1.50773772 12,1.50773772 C11.7287219,1.50773772 11.4625204,1.58129397 11.2298102,1.72071335 L3.73225352,6.21070915 C3.28011158,6.48148351 3.00336373,6.9697922 3.00336373,7.49681316 L3.00336373,16.6598006 C3.00336373,17.1953698 3.28908707,17.6902559 3.75290353,17.9580405 L11.2504602,22.2867696 C11.482359,22.4206708 11.7411915,22.4876094 12,22.4876094 C12.2588085,22.4876094 12.517641,22.4206708 12.7495398,22.2867696 L20.2470965,17.9580405 C20.7109166,17.6902595 20.9966363,17.1953711 20.9966363,16.6598006 L20.9966363,7.49681316 C20.9966363,6.96978968 20.7198955,6.4814766 20.2677465,6.21070915 L20.2677465,6.21070915 Z M12,3.00679338 L18.7682351,7.06002131 L11.9933325,11.1200606 L5.22919861,7.06158026 L12,3.00679338 Z M4.50244334,8.37373062 L11.2435769,12.4184203 L11.2435769,20.5517619 L4.50244334,16.6597767 L4.50244334,8.37373062 Z M12.7426565,20.5597245 L12.7426565,12.4186601 L19.4975567,8.37061273 L19.4975567,16.6597767 L12.7426565,20.5597245 Z" id="Shape"></path>
        </g>
    </g>
</svg>