<?xml version="1.0" encoding="UTF-8"?>
<svg width="24px" height="24px" viewBox="0 0 24 24" version="1.1" xmlns="http://www.w3.org/2000/svg" xmlns:xlink="http://www.w3.org/1999/xlink">
    <!-- Generator: Sketch 60.1 (88133) - https://sketch.com -->
    <title>Blockly</title>
    <desc>Created with Sketch.</desc>
    <g id="Blockly" stroke="none" stroke-width="1" fill="none" fill-rule="evenodd">
        <g id="分组-8">
            <g id="分组-2" transform="translate(3.000000, 3.000000)" stroke="#007AFF" stroke-width="1.5">
                <path d="M10.750016,0.75 L10.7501002,4.70107025 L10.2500011,4.87781211 C9.35847531,5.19288948 8.75,6.03867506 8.75,7 C8.75,7.96132494 9.35847531,8.80711052 10.2500011,9.12218789 L10.7500948,9.29892785 L10.7500084,17.0476173 L16,17.0476173 C16.6903559,17.0476173 17.25,16.4879732 17.25,15.7976173 L17.25,2 C17.25,1.30964406 16.6903559,0.75 16,0.75 L10.750016,0.75 Z" id="合并形状"></path>
                <g id="分组-2-copy">
                    <path d="M16,0.75 L2,0.75 C1.30964406,0.75 0.75,1.30964406 0.75,2 L0.75,15.7976173 C0.75,16.4879732 1.30964406,17.0476173 1.99995396,17.0476173 L3.80164799,17.0475067 L4.02687756,17.3334517 C4.47951669,17.9081094 5.17002363,18.25 5.91923077,18.25 C6.66843791,18.25 7.35894485,17.9081094 7.81158398,17.3334517 L8.03679928,17.0475248 L16,17.0476173 C16.6903559,17.0476173 17.25,16.4879732 17.25,15.7976173 L17.25,2 C17.25,1.30964406 16.6903559,0.75 16,0.75 Z" id="合并形状"></path>
                </g>
            </g>
            <rect id="矩形" x="0" y="0" width="24" height="24"></rect>
        </g>
    </g>
</svg>