<?xml version="1.0" encoding="UTF-8"?>
<svg width="24px" height="24px" viewBox="0 0 24 24" version="1.1" xmlns="http://www.w3.org/2000/svg" xmlns:xlink="http://www.w3.org/1999/xlink">
    <!-- Generator: Sketch 60.1 (88133) - https://sketch.com -->
    <title>设置</title>
    <desc>Created with Sketch.</desc>
    <g id="设置" stroke="none" stroke-width="1" fill="none" fill-rule="evenodd">
        <g fill="#000000" fill-rule="nonzero" id="分组">
            <g>
                <rect id="矩形" opacity="0" x="0" y="0" width="24" height="24"></rect>
                <path d="M12,10.3636364 C12.9037387,10.3636364 13.6363636,11.0962613 13.6363636,12 C13.6363636,12.9037387 12.9037387,13.6363636 12,13.6363636 C11.0962613,13.6363636 10.3636364,12.9037387 10.3636364,12 C10.3636364,11.0962613 11.0962613,10.3636364 12,10.3636364 L12,10.3636364 Z M12,8.72727272 C10.6763054,8.72727272 9.48295025,9.52464712 8.97639425,10.7475815 C8.46983825,11.9705159 8.7498389,13.3781742 9.68583235,14.3141677 C10.6218258,15.2501611 12.0294841,15.5301618 13.2524185,15.0236058 C14.4753529,14.5170497 15.2727273,13.3236946 15.2727273,12 C15.2727273,10.1925226 13.8074774,8.72727272 12,8.72727272 L12,8.72727272 Z M8.54181818,3.27272728 C8.59688882,3.2759646 8.64988345,3.29489125 8.69454546,3.32727272 L9.90545454,4.22181818 C11.1466667,5.15272727 12.8533333,5.15272727 14.0945455,4.22181818 L15.3054545,3.32727272 C15.349655,3.294025 15.4029196,3.27500194 15.4581818,3.27272728 L15.5236364,3.27272728 C16.283981,3.59262246 16.9991538,4.01072351 17.6509091,4.51636364 C17.7207018,4.58206543 17.7533906,4.67808883 17.7381818,4.77272728 L17.58,6.28363636 C17.3968982,7.81817469 18.2288679,9.29453465 19.6363636,9.93272728 L21.0054545,10.5490909 C21.0918869,10.5826442 21.1541276,10.6594079 21.1690909,10.7509091 C21.2781927,11.5818888 21.2781927,12.4235658 21.1690909,13.2545455 C21.1521534,13.3451475 21.0905991,13.4210646 21.0054545,13.4563636 L19.6363636,14.0672727 C18.2232736,14.6958309 17.3817978,16.1689659 17.5581818,17.7054545 L17.7163636,19.2109091 C17.7315724,19.3055476 17.6988836,19.4015709 17.6290909,19.4672727 C17.3127894,19.7276026 16.9793069,19.9663251 16.6309091,20.1818182 C16.2793222,20.3867982 15.9149362,20.5689912 15.54,20.7272727 L15.4745455,20.7272727 C15.4194748,20.7240354 15.3664802,20.7051088 15.3218182,20.6727273 L14.1109091,19.7781818 C12.869697,18.8472727 11.1630303,18.8472727 9.92181818,19.7781818 L8.69454546,20.6727273 C8.65034502,20.705975 8.59708043,20.7249981 8.54181818,20.7272727 L8.47636364,20.7272727 C7.71601902,20.4073775 7.00084616,19.9892765 6.3490909,19.4836364 C6.27929821,19.4179346 6.24660939,19.3219112 6.26181818,19.2272727 L6.42,17.7163636 C6.60310178,16.1818253 5.77113212,14.7054653 4.36363636,14.0672727 L2.97272728,13.4509091 C2.88629494,13.4173558 2.82405415,13.3405921 2.8090909,13.2490909 C2.69998907,12.4181112 2.69998907,11.5764342 2.8090909,10.7454545 C2.8260284,10.6548525 2.88758275,10.5789354 2.97272728,10.5436364 L4.36363636,9.93272728 C5.77672636,9.30416907 6.61820224,7.83103413 6.44181818,6.29454546 L6.28363636,4.7890909 C6.26842759,4.69445245 6.30111641,4.59842906 6.3709091,4.53272728 C6.6872106,4.27239739 7.02069312,4.03367493 7.3690909,3.81818182 C7.72067784,3.61320183 8.08506384,3.43100883 8.46,3.27272728 L8.52545454,3.27272728 L8.54181818,3.27272728 Z M8.52545454,1.63635537 C8.28780769,1.63564328 8.0523705,1.68198919 7.83272728,1.77272728 C7.39059541,1.96219613 6.96067469,2.17897818 6.54545454,2.42181818 C6.12618617,2.6679061 5.72350426,2.94121962 5.34,3.24 C4.8253338,3.65615303 4.55807758,4.30579123 4.6309091,4.96363636 L4.79454546,6.4690909 C4.88707368,7.29976195 4.43313123,8.09526305 3.6709091,8.43818182 L2.30727272,9.0490909 C1.70282169,9.31669382 1.27982029,9.87794445 1.1890909,10.5327273 C1.06091017,11.5048839 1.06091017,12.4896616 1.1890909,13.4618182 C1.27874417,14.1154023 1.69948035,14.6763839 2.30181818,14.9454545 L3.6709091,15.5618182 C4.43313123,15.904737 4.88707368,16.7002381 4.79454546,17.5309091 L4.6309091,19.0418182 C4.55620319,19.7011016 4.82620351,20.3524001 5.34545454,20.7654545 C6.11124712,21.3619438 6.95322595,21.8535567 7.8490909,22.2272727 C8.06873412,22.3180108 8.30417132,22.3643567 8.54181818,22.3636446 C8.94867107,22.3617005 9.34426526,22.2298358 9.6709091,21.9872727 L10.8763636,21.0872727 C11.5438133,20.5926749 12.4561867,20.5926749 13.1236364,21.0872727 L14.3290909,21.9872727 C14.6557347,22.2298358 15.0513289,22.3617005 15.4581818,22.3636446 C15.6958287,22.3643567 15.9312659,22.3180108 16.1509091,22.2272727 C16.5986185,22.0384222 17.0340214,21.8216315 17.4545455,21.5781818 C17.8738138,21.3320939 18.2764957,21.0587804 18.66,20.76 C19.1746662,20.343847 19.4419224,19.6942088 19.3690909,19.0363636 L19.2054545,17.5309091 C19.1129263,16.7002381 19.5668688,15.904737 20.3290909,15.5618182 L21.6927273,14.9509091 C22.286617,14.6760284 22.6983238,14.1161071 22.7836364,13.4672727 C22.9118171,12.4951161 22.9118171,11.5103384 22.7836364,10.5381818 C22.6983238,9.88934742 22.2866169,9.32942611 21.6927273,9.05454546 L20.3236364,8.43818182 C19.5614142,8.09526305 19.1074718,7.29976195 19.2,6.4690909 L19.3636364,4.95818182 C19.43962,4.29989618 19.1717613,3.64879333 18.6545455,3.23454546 C17.8887529,2.63805623 17.0467741,2.14644332 16.1509091,1.77272728 C15.9312659,1.68198919 15.6958287,1.63564328 15.4581818,1.63635537 C15.0513289,1.63829952 14.6557347,1.77016425 14.3290909,2.01272728 L13.1236364,2.91272728 C12.4561867,3.40732506 11.5438133,3.40732506 10.8763636,2.91272728 L9.6709091,2.01272728 C9.34426526,1.77016425 8.94867107,1.63829952 8.54181818,1.63635537 L8.52545454,1.63635537 Z" id="形状"></path>
            </g>
        </g>
    </g>
</svg>