<?xml version="1.0" encoding="UTF-8"?>
<svg width="24px" height="24px" viewBox="0 0 24 24" version="1.1" xmlns="http://www.w3.org/2000/svg" xmlns:xlink="http://www.w3.org/1999/xlink">
    <!-- Generator: Sketch 60.1 (88133) - https://sketch.com -->
    <title>Write/Draw</title>
    <desc>Created with Sketch.</desc>
    <g id="Write/Draw" stroke="none" stroke-width="1" fill="none" fill-rule="evenodd">
        <g id="书写" transform="translate(1.000000, 1.000000)" fill="#000000" fill-rule="nonzero">
            <g id="分组">
                <rect id="矩形" opacity="0" x="0" y="0" width="22" height="22"></rect>
                <path d="M17.3464844,6.30566406 L16.7255859,6.9265625 L16.9726562,6.67949219 C17.1703125,6.45820313 17.1617187,6.11875 16.9490234,5.90605469 L17.3464844,6.30566406 Z M13.9755859,2.92832031 L14.5964844,3.54921875 L14.3494141,3.30214844 C14.128125,3.10449219 13.7886719,3.11308594 13.5759766,3.32578125 L13.9755859,2.92832031 Z M20.6314453,19.8859375 C20.6314453,19.4003906 20.2382813,19.0050781 19.7505859,19.0050781 L2.15058594,19.0050781 C1.66503906,19.0050781 1.26972656,19.3982422 1.26972656,19.8859375 C1.26972656,20.3714844 1.66289062,20.7667969 2.15058594,20.7667969 L19.7527344,20.7667969 C20.2382813,20.7646484 20.6314453,20.3714844 20.6314453,19.8859375 Z M3.540625,17.6300781 C4.02617188,17.6300781 4.42148438,17.2369141 4.42148438,16.7492188 L4.42148438,12.1322266 C4.42148438,11.6466797 4.02832031,11.2513672 3.540625,11.2513672 C3.05507813,11.2513672 2.65976563,11.6445313 2.65976563,12.1322266 L2.65976563,16.7492188 C2.65976563,17.2369141 3.05507813,17.6300781 3.540625,17.6300781 Z" id="形状"></path>
                <path d="M2.65976562,16.7513672 C2.65976562,17.2369141 3.05292969,17.6322266 3.540625,17.6322266 L8.14472656,17.6322266 C8.63027344,17.6322266 9.02558594,17.2390625 9.02558594,16.7513672 C9.02558594,16.2658203 8.63242188,15.8705078 8.14472656,15.8705078 L3.540625,15.8705078 C3.05507813,15.8705078 2.65976562,16.2658203 2.65976562,16.7513672 Z" id="路径"></path>
                <path d="M18.7966797,5.27441406 C18.7945313,5.27226563 18.7902344,5.27011719 18.7880859,5.26582031 L14.9337891,1.41152344 C14.3601563,0.913085937 13.4878906,0.934570312 12.9421875,1.48242187 C12.9400391,1.48457031 12.9378906,1.48886719 12.9335938,1.49101562 L2.90898438,11.5134766 C2.56523438,11.8572266 2.56523438,12.4136719 2.90898438,12.7574219 C3.25273438,13.1011719 3.80917969,13.1011719 4.15292969,12.7574219 L13.9712891,2.9390625 L17.3378906,6.30351562 L7.52167969,16.1197266 C7.17792969,16.4634766 7.17792969,17.0199219 7.52167969,17.3636719 C7.86542969,17.7074219 8.421875,17.7074219 8.765625,17.3636719 L18.8933594,7.2359375 C19.3638672,6.66230469 19.3316406,5.81152344 18.7966797,5.27441406 Z" id="路径"></path>
            </g>
        </g>
    </g>
</svg>